<?xml version="1.0" standalone="no"?>
<!DOCTYPE svg PUBLIC "-//W3C//DTD SVG 1.1//EN" "http://www.w3.org/Graphics/SVG/1.1/DTD/svg11.dtd" >
<svg>
<metadata>
Created by FontForge 20090914 at Wed Oct 26 00:01:36 2011
 By www-data
(c) COPYRIGHT H. BERTHOLD AG 1992 Alle Rechte vorbehalten.
</metadata>
<defs>
<font id="CorporateSBQ-Regular" horiz-adv-x="250" >
  <font-face 
    font-family="Corporate S BQ"
    font-weight="400"
    font-stretch="normal"
    units-per-em="1000"
    panose-1="2 0 5 3 4 0 0 2 0 4"
    ascent="800"
    descent="-200"
    x-height="502"
    cap-height="706"
    bbox="-171 -261 938.999 935.998"
    underline-thickness="50"
    underline-position="-50"
    unicode-range="U+0020-U+FB02"
  />
<missing-glyph 
 />
    <glyph glyph-name="fi" unicode="fi" horiz-adv-x="536" 
d="M289 502l0.00195312 -60h-122v-442h-78v442h-71v60h71v33c0 14.667 0.166992 29.667 0.5 45s2.16602 30 5.49902 44s8.66602 27.333 15.999 40s18 24 32 34c16 10.667 31.5 17.167 46.5 19.5s26.167 3.5 33.5 3.5s17.833 -1 31.5 -3s29.5 -6.33301 47.5 -13v-68
c-4 2 -12.667 5.5 -26 10.5s-27.666 7.5 -42.999 7.5c-3.33301 0 -9.33301 -0.5 -18 -1.5s-17 -4.83301 -25 -11.5c-11.333 -10 -18.333 -23 -21 -39s-4.33398 -38.333 -5.00098 -67v-34h125zM417.002 716c5.33301 0.666992 10.334 0.333008 15.001 -1
s7.66699 -2.33301 9 -3c7.33301 -2.66699 13.166 -6.5 17.499 -11.5s7.5 -10 9.5 -15s3.33301 -9.83301 4 -14.5s1 -8 1 -10c0 -15.333 -5.16699 -28 -15.5 -38s-23.166 -15 -38.499 -15c-7.33301 0 -14.5 1.33301 -21.5 4s-12.833 6.66699 -17.5 12
c-6.66699 6.66699 -10.834 13.834 -12.501 21.501s-2.5 13.167 -2.5 16.5c0 6.66699 0.833008 12.167 2.5 16.5s3.16699 7.83301 4.5 10.5c6.66699 11.333 15 18.666 25 21.999s16.667 5 20 5zM458.003 501.999v-502h-78v502h78z" />
    <glyph glyph-name="fl" unicode="fl" horiz-adv-x="536" 
d="M289 502l0.00195312 -60h-122v-442h-78v442h-71v60h71v33c0 14.667 0.166992 29.667 0.5 45s2.16602 30 5.49902 44s8.66602 27.333 15.999 40s18 24 32 34c16 10.667 31.5 17.167 46.5 19.5s26.167 3.5 33.5 3.5s17.833 -1 31.5 -3s29.5 -6.33301 47.5 -13v-68
c-4 2 -12.667 5.5 -26 10.5s-27.666 7.5 -42.999 7.5c-3.33301 0 -9.33301 -0.5 -18 -1.5s-17 -4.83301 -25 -11.5c-11.333 -10 -18.333 -23 -21 -39s-4.33398 -38.333 -5.00098 -67v-34h125zM458.002 710v-710h-78v710h78z" />
    <glyph glyph-name=".notdef" 
 />
    <glyph glyph-name="space" unicode=" " 
 />
    <glyph glyph-name="space" unicode="&#xa0;" 
 />
    <glyph glyph-name="exclam" unicode="!" horiz-adv-x="266" 
d="M133 111c16 0 30.332 -5.83301 42.999 -17.5s18.667 -26.167 18 -43.5c0 -17.333 -6 -31.833 -18 -43.5s-26.667 -17.5 -44 -17.5s-31.666 6 -42.999 18s-17 26.333 -17 43s5.83301 31 17.5 43s26.167 18 43.5 18zM172.999 693l-12 -495h-60l-9 495h81z" />
    <glyph glyph-name="quotedbl" unicode="&#x22;" horiz-adv-x="396" 
d="M94 445l-32.999 243c0 1.33301 -0.333008 4 -1 8s-0.666992 8.5 0 13.5s2.16699 10.167 4.5 15.5s6.16602 10 11.499 14c5.33301 4.66699 11.166 7.5 17.499 8.5s10.833 1.5 13.5 1.5c2 0 5.16699 -0.333008 9.5 -1s8.83301 -2.66699 13.5 -6
c10.667 -6.66699 16.334 -14.5 17.001 -23.5s1 -15.167 1 -18.5l-35 -255h-19zM281.001 445l-31.999 243c0 1.33301 -0.333008 4 -1 8s-0.666992 8.5 0 13.5s2.16699 10.167 4.5 15.5s6.16602 10 11.499 14c5.33301 4.66699 11.166 7.5 17.499 8.5s10.5 1.5 12.5 1.5
c2.66699 0 6 -0.333008 10 -1s8.66699 -2.66699 14 -6c10.667 -6.66699 16.334 -14.5 17.001 -23.5s1 -15.167 1 -18.5l-36 -255h-19z" />
    <glyph glyph-name="numbersign" unicode="#" horiz-adv-x="583" 
d="M349 410h-101l-13 -97h101zM388 258l-34 -259h-61l36 259h-101l-38 -259h-57l35 259h-167v55h174l14 97h-167v57h175l32 241h60l-33 -241h100l33 241h59l-32 -241h167v-57h-175l-13 -97h168v-55h-175z" />
    <glyph glyph-name="dollar" unicode="$" horiz-adv-x="568" 
d="M306 57c3.33301 0.666992 9.33203 1.49902 17.999 2.49902s18 3.16699 28 6.5c25.333 8.66699 46 22.834 62 42.501s24 43.5 24 71.5c0 14 -1.83301 26 -5.5 36s-6.5 17.333 -8.5 22c-6 12 -13.5 22 -22.5 30s-18.667 15 -29 21s-21.166 11.167 -32.499 15.5l-34 12.5
v-260zM262.999 648.999c-4.66699 -0.666992 -11.333 -1.83496 -20 -3.50195s-18.167 -4.66699 -28.5 -9s-20.666 -10.5 -30.999 -18.5s-19.166 -18.667 -26.499 -32c-6 -11.333 -9.66699 -21.5 -11 -30.5s-2 -16.167 -2 -21.5c0 -15.333 3.16699 -29.666 9.5 -42.999
s15.166 -24.666 26.499 -33.999s24.666 -17 39.999 -23l43 -17v232zM306 400.998c10.667 -3.33301 21.0059 -7.00195 31.0059 -11.002l31 -12c16 -6.66699 31.333 -14 46 -22s28.167 -17 40.5 -27s23.166 -21.667 32.499 -35s16.666 -28.666 21.999 -45.999
c4 -13.333 6.5 -25.666 7.5 -36.999s1.5 -19 1.5 -23c0 -43.333 -11.833 -81 -35.5 -113s-55.5 -55.333 -95.5 -70c-8.66699 -3.33301 -19.167 -6.5 -31.5 -9.5s-28.833 -5.16699 -49.5 -6.5v-77h-43v77c-6.66699 0 -16.5 0.666992 -29.5 2s-27.833 4.66602 -44.5 9.99902
c-20.667 6.66699 -38.5 15.167 -53.5 25.5s-27.333 21.166 -37 32.499s-17.334 22.5 -23.001 33.5s-9.83398 20.5 -12.501 28.5c-6.66699 18 -10.5 34.167 -11.5 48.5s-1.83301 25.166 -2.5 32.499h77c0 -4.66699 0.5 -10.834 1.5 -18.501s2.66699 -16.167 5 -25.5
s6.16602 -19 11.499 -29s12.666 -20 21.999 -30c2.66699 -2.66699 7.33398 -6.66699 14.001 -12s15 -10.333 25 -15c8 -3.33301 15.667 -6 23 -8s19 -4.33301 35 -7v275l-63 24c-23.333 8.66699 -43.666 18.667 -60.999 30c-6.66699 4.66699 -14.167 10.834 -22.5 18.501
s-16.333 17.167 -24 28.5s-14 24.833 -19 40.5s-7.5 33.834 -7.5 54.501c0 55.333 20.333 101 61 137c11.333 9.33301 27.833 19.833 49.5 31.5s50.5 18.834 86.5 21.501v69h43v-69c5.33301 -0.666992 12.666 -1.5 21.999 -2.5s20.333 -3.5 33 -7.5
c5.33301 -1.33301 13 -3.83301 23 -7.5s20.833 -9.16699 32.5 -16.5s23.167 -16.666 34.5 -27.999s20.666 -25 27.999 -41c3.33301 -7.33301 6.33301 -16 9 -26s4.66699 -23.333 6 -40h-79c-1.33301 11.333 -3.33301 20.5 -6 27.5s-5.33398 12.833 -8.00098 17.5
c-7.33301 12.667 -17.666 23.334 -30.999 32.001s-27 14.667 -41 18c-3.33301 1.33301 -7 2.16602 -11 2.49902s-8 0.833008 -12 1.5v-247z" />
    <glyph glyph-name="percent" unicode="%" horiz-adv-x="609" 
d="M160 659c-10.667 0 -20.999 -3.3291 -30.999 -9.99609c-10.667 -7.33301 -20.334 -19.833 -29.001 -37.5s-13 -40.834 -13 -69.501c0 -6 0.5 -15.167 1.5 -27.5s4.83301 -25.833 11.5 -40.5c5.33301 -12.667 13 -23.834 23 -33.501s22.667 -14.5 38 -14.5
c3.33301 0 8 0.5 14 1.5s12 4.16699 18 9.5c10 7.33301 19.333 19.666 28 36.999s13 40 13 68c0 14.667 -1.16699 27.167 -3.5 37.5s-4.16602 18.166 -5.49902 23.499c-0.666992 2 -2.33398 6 -5.00098 12s-6.66699 12.333 -12 19s-11.833 12.5 -19.5 17.5
s-17.167 7.5 -28.5 7.5zM161.001 712.004c4.66699 0 12.001 -0.832031 22.001 -2.49902s21 -5.5 33 -11.5c14 -7.33301 25.833 -16.833 35.5 -28.5s17.834 -24.5 24.501 -38.5s11.5 -28.667 14.5 -44s4.5 -30.333 4.5 -45c0 -20.667 -2.33301 -39 -7 -55
s-10.334 -30.167 -17.001 -42.5s-13.834 -22.666 -21.501 -30.999s-14.834 -14.833 -21.501 -19.5c-9.33301 -6.66699 -20.166 -11.834 -32.499 -15.501s-24.166 -5.5 -35.499 -5.5c-5.33301 0 -13.166 0.833008 -23.499 2.5s-21.833 6.16699 -34.5 13.5
c-12.667 8 -23.834 17.667 -33.501 29s-17.667 23.833 -24 37.5s-11 28 -14 43s-4.5 29.5 -4.5 43.5c0 4.66699 0.666992 13 2 25s4.16602 25.333 8.49902 40s11 29.667 20 45s21.5 28.333 37.5 39c14 9.33301 27.167 15.166 39.5 17.499s21.5 3.5 27.5 3.5z
M449.002 281.005c-9.33301 -0.666992 -16.5 -2.33398 -21.5 -5.00098s-9.16699 -5 -12.5 -7c-10 -7.33301 -17.667 -16.666 -23 -27.999s-9.33301 -22.333 -12 -33s-4.16699 -20.167 -4.5 -28.5s-0.5 -13.5 -0.5 -15.5c0 -20 2.33301 -36.833 7 -50.5s9 -24.167 13 -31.5
c8.66699 -14 18 -23.167 28 -27.5s18.667 -6.5 26 -6.5c8.66699 0 15.667 1.33301 21 4s9.33301 5 12 7c10 7.33301 19.167 19.666 27.5 36.999s12.5 40.333 12.5 69c0 5.33301 -0.833008 16 -2.5 32s-7.16699 32 -16.5 48c-8.66699 14.667 -18 24.334 -28 29.001
s-18.667 7 -26 7zM449.002 334.005c20 0 39.002 -5.33203 57.002 -15.999c27.333 -15.333 47 -37.333 59 -66s18 -58 18 -88c0 -4.66699 -0.5 -13 -1.5 -25s-3.83301 -25.167 -8.5 -39.5s-11.334 -29 -20.001 -44s-21 -28.167 -37 -39.5c-14 -10 -27 -16.167 -39 -18.5
s-21.333 -3.5 -28 -3.5c-10.667 0 -21 1.5 -31 4.5s-19.667 7.16699 -29 12.5c-12.667 8 -23.667 17.667 -33 29s-17 23.833 -23 37.5s-10.5 28 -13.5 43s-4.5 29.833 -4.5 44.5c0 5.33301 0.5 14 1.5 26s3.83301 25.333 8.5 40c4.66699 14 10.834 27.167 18.501 39.5
s16.667 23.166 27 32.499s22.166 16.833 35.499 22.5s27.666 8.5 42.999 8.5zM545.004 706.006l-415 -706h-65l414 706h66z" />
    <glyph glyph-name="ampersand" unicode="&#x26;" horiz-adv-x="625" 
d="M230 338l-16.001 -11.498c-5.33301 -3.66699 -10.666 -7.83398 -15.999 -12.501l-18 -14.5c-8.66699 -7 -17.5 -16.333 -26.5 -28s-16.833 -25 -23.5 -40s-10 -31.833 -10 -50.5c0 -5.33301 0.666992 -12.833 2 -22.5s5 -20.167 11 -31.5
c8 -16.667 18.333 -29.667 31 -39s25.334 -16.333 38.001 -21s24.5 -7.66699 35.5 -9s18.833 -2 23.5 -2c20 0 39.167 3.33301 57.5 10s35.166 16 50.499 28l10.5 10c3.66699 3.33301 8.5 8.66602 14.5 15.999zM244.999 436.002c3.33301 2 6.32812 4 8.99512 6
s5.33398 4.33301 8.00098 7c2 2 6.83301 6.33301 14.5 13s15.667 15.167 24 25.5s15.833 22.333 22.5 36s10 28.167 10 43.5c0 16 -3 28.667 -9 38s-13.167 16.5 -21.5 21.5s-16.666 8.16699 -24.999 9.5s-14.833 2 -19.5 2c-21.333 0 -40.166 -6.5 -56.499 -19.5
s-24.5 -31.167 -24.5 -54.5c0.666992 -12.667 3.33398 -24.667 8.00098 -36s10.334 -22.333 17.001 -33l21.5 -30c7 -10 14.167 -19.667 21.5 -29zM524.994 325.002l0.000976562 -21c0 -9.33301 -0.333008 -20.166 -1 -32.499s-2.16699 -25.833 -4.5 -40.5
s-5.83301 -29.334 -10.5 -44.001c-4 -13.333 -8.33301 -24.666 -13 -33.999s-10.667 -19.666 -18 -30.999l91 -122h-86l-49 67c-6.66699 -8 -14 -15.333 -22 -22c-14.667 -12.667 -29.5 -22.334 -44.5 -29.001s-29.5 -11.667 -43.5 -15s-26.5 -5.33301 -37.5 -6
s-19.833 -1 -26.5 -1c-21.333 0 -39 1.33301 -53 4s-25.333 5.33398 -34 8.00098c-40 13.333 -71.333 35.666 -94 66.999s-34 68 -34 110c0 15.333 2.66699 34.333 8 57s19.333 47.334 42 74.001c13.333 16 27.833 30.5 43.5 43.5l48.5 39.5
c-4 5.33301 -7.83301 10.166 -11.5 14.499s-7.5 9.16602 -11.5 14.499c-23.333 30.667 -39 55.834 -47 75.501s-12 39.5 -12 59.5c0 9.33301 1 18.666 3 27.999s5 18 9 26c3.33301 8 8.5 16.833 15.5 26.5s16.333 18.667 28 27s25.667 15.333 42 21s35.5 8.5 57.5 8.5
c4.66699 0 12 -0.333008 22 -1s20.833 -2.83398 32.5 -6.50098s23.667 -9.5 36 -17.5s22.833 -19 31.5 -33c9.33301 -15.333 15 -30 17 -44s3 -24 3 -30c0 -5.33301 -0.5 -13.166 -1.5 -23.499s-3.83301 -21.833 -8.5 -34.5c-9.33301 -26.667 -23.833 -49.834 -43.5 -69.501
s-40.167 -38.167 -61.5 -55.5l148 -201c3.33301 6 5.66602 10.667 6.99902 14l4 10c6.66699 18.667 10.667 38.334 12 59.001s2.33301 40.667 3 60h64z" />
    <glyph glyph-name="quotesingle" unicode="'" horiz-adv-x="208" 
d="M94 445l-32.999 243c0 1.33301 -0.333008 4 -1 8s-0.666992 8.5 0 13.5s2.16699 10.167 4.5 15.5s6.16602 10 11.499 14c5.33301 4.66699 11.166 7.5 17.499 8.5s10.833 1.5 13.5 1.5c2 0 5.16699 -0.333008 9.5 -1s8.83301 -2.66699 13.5 -6
c10.667 -6.66699 16.334 -14.5 17.001 -23.5s1 -15.167 1 -18.5l-35 -255h-19z" />
    <glyph glyph-name="parenleft" unicode="(" horiz-adv-x="297" 
d="M262 712c-4 -5.33301 -9.66602 -13.8262 -16.999 -25.4932s-15 -25.834 -23 -42.501c-8.66699 -18.667 -17.5 -40.5 -26.5 -65.5s-16.833 -53.667 -23.5 -86s-12.167 -68.333 -16.5 -108s-6.5 -83.834 -6.5 -132.501c0 -91.333 6.66699 -167.333 20 -228
s27.666 -108.667 42.999 -144c3.33301 -9.33301 9 -21.833 17 -37.5s19 -33.834 33 -54.501h-57l-20 25.5c-8 10.333 -16.667 24.166 -26 41.499s-19 38.666 -29 63.999s-19 54.5 -27 87.5s-14.333 69.667 -19 110s-7 84.5 -7 132.5c0 10 0.333008 29 1 57
s3.5 60.333 8.5 97s12.833 75.667 23.5 117s25.667 80.666 45 117.999l18.5 31c7 11.333 17.5 25.666 31.5 42.999h57z" />
    <glyph glyph-name="parenright" unicode=")" horiz-adv-x="297" 
d="M35 -212c10.667 15.333 22.0029 33.499 34.0029 54.499s23.667 50.5 35 88.5c10.667 32.667 20.5 74.667 29.5 126s13.5 116.333 13.5 195c0 12 -0.166992 28.833 -0.5 50.5s-1.83301 46.334 -4.5 74.001s-6.83398 57.834 -12.501 90.501s-13.834 66 -24.501 100
c-2.66699 7.33301 -6.16699 17.833 -10.5 31.5s-10.833 29.167 -19.5 46.5s-16.334 31.166 -23.001 41.499s-12.667 18.833 -18 25.5h58l21 -27c8.66699 -11.333 17.667 -26 27 -44c20 -37.333 35.5 -77 46.5 -119s19 -81.5 24 -118.5s7.83301 -69.5 8.5 -97.5s1 -47 1 -57
s-0.333008 -28.667 -1 -56s-3.5 -59.333 -8.5 -96s-12.833 -75.5 -23.5 -116.5s-25.667 -79.833 -45 -116.5c-10 -19.333 -19.5 -35 -28.5 -47l-21.5 -29h-57z" />
    <glyph glyph-name="asterisk" unicode="*" horiz-adv-x="531" 
d="M240 689h51v-130l123 40l16 -48l-124 -40l77 -105l-41 -30l-76 106l-77 -106l-40 30l76 105l-123 40l15 48l123 -40v130z" />
    <glyph glyph-name="plus" unicode="+" horiz-adv-x="568" 
d="M510 383v-55h-197v-205h-58v205h-197v55h197v204h58v-204h197z" />
    <glyph glyph-name="comma" unicode="," horiz-adv-x="255" 
d="M38 -154l9.99707 10.501l10 10.5c10 12 20.5 27.333 31.5 46s19.167 35.334 24.5 50.001c2 5.33301 3.66699 10.333 5 15s2.66602 11.667 3.99902 21c-5.33301 0 -10.166 0.166992 -14.499 0.5s-9.16602 1.83301 -14.499 4.5c-11.333 4.66699 -20.166 11.667 -26.499 21
s-9.5 20 -9.5 32c0 3.33301 1 9.16602 3 17.499s6.66699 16.5 14 24.5c8 9.33301 17.167 15 27.5 17s17.166 3 20.499 3c7.33301 0 14.833 -1.33301 22.5 -4s14.834 -7.33398 21.501 -14.001s12.167 -15.167 16.5 -25.5s6.5 -23.5 6.5 -39.5
c0 -5.33301 -0.166992 -11.833 -0.5 -19.5s-2.16602 -17.167 -5.49902 -28.5c-4.66699 -18.667 -12.667 -39.167 -24 -61.5s-30 -49.5 -56 -81.5z" />
    <glyph glyph-name="hyphen" unicode="-" horiz-adv-x="292" 
d="M291 296v-58h-290v58h290z" />
    <glyph glyph-name="hyphen" unicode="&#xad;" horiz-adv-x="292" 
d="M291 296v-58h-290v58h290z" />
    <glyph glyph-name="period" unicode="." horiz-adv-x="271" 
d="M135 111c16.667 0 31.333 -5.83203 44 -17.499s18.667 -26.167 18 -43.5c0 -17.333 -6 -31.833 -18 -43.5s-26.667 -17.5 -44 -17.5c-16.667 0.666992 -31 6.66699 -43 18s-18 25.666 -18 42.999c0 16.667 5.83301 31 17.5 43s26.167 18 43.5 18z" />
    <glyph glyph-name="slash" unicode="/" horiz-adv-x="604" 
d="M473 706h74l-415 -863h-75z" />
    <glyph glyph-name="zero" unicode="0" horiz-adv-x="568" 
d="M283 634c-8 0 -16.8359 -1 -26.5029 -3s-19.334 -5.83301 -29.001 -11.5s-19.167 -13.667 -28.5 -24s-18 -23.833 -26 -40.5c-8 -17.333 -16 -44.333 -24 -81s-12 -79.667 -12 -129c0 -12 0.5 -28.833 1.5 -50.5s4.5 -47.5 10.5 -77.5c3.33301 -18 8 -36.5 14 -55.5
s14.167 -36.333 24.5 -52s23.333 -28.5 39 -38.5s34.834 -15 57.501 -15c28.667 0 51.667 7.66699 69 23s31.666 35 42.999 59c6 14 11.333 29.833 16 47.5s8.33398 36 11.001 55s4.66699 37.667 6 56s2 34.833 2 49.5s-0.666992 30.834 -2 48.501
s-3.16602 35.5 -5.49902 53.5s-5.66602 35.5 -9.99902 52.5s-9.5 32.5 -15.5 46.5c-8 18.667 -16.667 33.667 -26 45s-19 20.166 -29 26.499s-20.167 10.5 -30.5 12.5s-20.166 3 -29.499 3zM283.997 699c35.333 0 66.667 -7.66797 94 -23.001s50.666 -37.666 69.999 -66.999
c16 -24 28.167 -50.167 36.5 -78.5s14.333 -55.5 18 -81.5s5.83398 -48.5 6.50098 -67.5s1 -31.167 1 -36.5c0 -20 -0.833008 -41.167 -2.5 -63.5s-4.66699 -44.666 -9 -66.999s-10.166 -44 -17.499 -65s-16.333 -40.5 -27 -58.5c-4.66699 -8 -11.334 -17.667 -20.001 -29
s-19.834 -22.166 -33.501 -32.499s-30.167 -19.333 -49.5 -27s-41.666 -11.5 -66.999 -11.5c-26.667 0 -50 4.16699 -70 12.5s-37 18.166 -51 29.499s-25.333 23.166 -34 35.499s-15.334 22.5 -20.001 30.5c-12 22 -23.5 53.5 -34.5 94.5s-16.5 91.5 -16.5 151.5
c0 6 0.333008 17.167 1 33.5s2.33398 35.5 5.00098 57.5s7 45.333 13 70s14.333 48.334 25 71.001l14.5 26c6.33301 11.333 15.5 23.666 27.5 36.999c37.333 39.333 84 59 140 59z" />
    <glyph glyph-name="one" unicode="1" horiz-adv-x="562" 
d="M182 587c12 0.666992 24 1.83398 36 3.50098s23.667 4.5 35 8.5s21.833 9.66699 31.5 17s17.834 16.666 24.501 27.999c5.33301 8 9.16602 16 11.499 24l7.5 26h53v-694h-75v537h-125z" />
    <glyph glyph-name="two" unicode="2" horiz-adv-x="568" 
d="M85 490c0.666992 24 3.16699 46.9971 7.5 68.9971s13.833 43.333 28.5 64c6 8 13.5 16.5 22.5 25.5s20.333 17.333 34 25s29.5 13.834 47.5 18.501s39 7 63 7c6 0 16.167 -0.5 30.5 -1.5s29.833 -4.5 46.5 -10.5c8.66699 -2.66699 19.334 -7.5 32.001 -14.5
s24.834 -16.5 36.501 -28.5s21.667 -27.167 30 -45.5s12.5 -40.5 12.5 -66.5c0 -5.33301 -0.5 -14 -1.5 -26s-4.16699 -25 -9.5 -39c-8 -23.333 -21.333 -48.166 -40 -74.499l-75 -101.5l-40.5 -52.5l-41.5 -53.5l-44.5 -58l-44.5 -58h308v-69h-405v61l63.5 83l63.5 83
c17.333 21.333 34.166 43.166 50.499 65.499l50.5 66.5l21.5 29.5l21.5 30.5c12 17.333 22.333 34.833 31 52.5s13 37.167 13 58.5c0 16.667 -3 31.334 -9 44.001s-14.333 23.334 -25 32.001s-22.834 15 -36.501 19s-28.167 6 -43.5 6c-12 0 -23.667 -1.33301 -35 -4
s-22.333 -7.33398 -33 -14.001c-14 -8.66699 -25 -19.167 -33 -31.5s-13.833 -24.666 -17.5 -36.999s-6 -23.5 -7 -33.5s-1.83301 -17 -2.5 -21h-70z" />
    <glyph glyph-name="three" unicode="3" horiz-adv-x="568" 
d="M91 513c0.666992 18.667 2.17188 33.1621 4.50488 43.4951s5.16602 19.833 8.49902 28.5c15.333 40 40 69 74 87s71 27 111 27c4.66699 0 11.667 -0.166992 21 -0.5s20 -1.83301 32 -4.5s24.667 -6.66699 38 -12s26 -12.666 38 -21.999c20.667 -15.333 36 -35 46 -59
s15 -48.667 15 -74c0 -6 -0.5 -13.833 -1.5 -23.5s-3.5 -20.334 -7.5 -32.001s-9.83301 -23.667 -17.5 -36s-18.167 -23.833 -31.5 -34.5c-6 -5.33301 -11.833 -9.66602 -17.5 -12.999s-15.167 -7.66602 -28.5 -12.999l30 -12c13.333 -5.33301 26.666 -14.333 39.999 -27
c13.333 -12 23.833 -24.333 31.5 -37s13.334 -25 17.001 -37s5.83398 -23.167 6.50098 -33.5s1 -18.833 1 -25.5c0 -6 -0.333008 -13.833 -1 -23.5s-2.5 -20.5 -5.5 -32.5s-7.33301 -24.667 -13 -38s-13.5 -26.666 -23.5 -39.999c-6 -8 -14 -16.667 -24 -26
s-22 -17.833 -36 -25.5s-30.5 -14 -49.5 -19s-40.833 -7.5 -65.5 -7.5c-5.33301 0 -14.333 0.333008 -27 1s-27 2.83398 -43 6.50098s-32.5 9.5 -49.5 17.5s-32.5 19.667 -46.5 35c-7.33301 8 -16 19.833 -26 35.5s-17 36.834 -21 63.501
c-1.33301 6.66699 -2.16602 13 -2.49902 19s-0.5 15 -0.5 27h70c0 -2.66699 0.166992 -7.16699 0.5 -13.5s1.16602 -13.166 2.49902 -20.499c7.33301 -36.667 23.666 -63 48.999 -79s55.333 -24 90 -24c24.667 0 45.167 3.5 61.5 10.5s28.166 13.5 35.499 19.5
c16.667 13.333 28.5 30.166 35.5 50.499s10.5 40.833 10.5 61.5c0 21.333 -3.16699 39.333 -9.5 54s-14 26.834 -23 36.501s-18.5 17.167 -28.5 22.5s-18.667 9.33301 -26 12s-17 4.83398 -29 6.50098s-27 2.5 -45 2.5c-4.66699 0 -9.33398 -0.166992 -14.001 -0.5
s-9.33398 -0.833008 -14.001 -1.5v69c32.667 -3.33301 59.667 -1.66602 81 5.00098s38.333 16.167 51 28.5s21.667 26.333 27 42s8 31.167 8 46.5c0 3.33301 -0.333008 8.66602 -1 15.999s-2.66699 15.333 -6 24c-2.66699 7.33301 -6.5 14.833 -11.5 22.5
s-11.833 15 -20.5 22s-19.334 12.667 -32.001 17s-28 6.5 -46 6.5c-4 0 -11.167 -0.5 -21.5 -1.5s-21.166 -4.16699 -32.499 -9.5c-14.667 -6 -26.5 -14.333 -35.5 -25s-15.833 -21.334 -20.5 -32.001s-7.83398 -20.834 -9.50098 -30.501l-3.5 -20.5h-69z" />
    <glyph glyph-name="four" unicode="4" horiz-adv-x="568" 
d="M332 594l-213 -361h211zM523 233v-66h-118v-173h-78v173h-283v59l280 468h79v-461h120z" />
    <glyph glyph-name="five" unicode="5" horiz-adv-x="568" 
d="M455 689l-9.00195 -68.9961h-246l-28 -201l7.5 7.5c2.33301 2.33301 5.16602 4.83301 8.49902 7.5c8 6.66699 20.5 13.834 37.5 21.501s38.5 11.5 64.5 11.5c10 0 25.5 -1.5 46.5 -4.5s43.167 -12.167 66.5 -27.5c21.333 -14 38 -30.833 50 -50.5s21 -39.167 27 -58.5
s9.66699 -36.833 11 -52.5s2 -26.834 2 -33.501c0 -16 -1 -30 -3 -42s-3.66699 -20.667 -5 -26c-8.66699 -34.667 -24 -67.334 -46 -98.001s-50 -53.334 -84 -68.001c-8 -3.33301 -18.833 -6.66602 -32.5 -9.99902s-31.167 -5 -52.5 -5c-32 0 -59.167 4.66699 -81.5 14
s-40.833 20.833 -55.5 34.5s-26 28.167 -34 43.5s-13.667 28.666 -17 39.999c-2 6.66699 -3.33301 12.667 -4 18l-3 25h72c1.33301 -4 2.66602 -9.66699 3.99902 -17s4.33301 -15.666 9 -24.999c2.66699 -6 6.66699 -12.833 12 -20.5s12.333 -15 21 -22
s19.334 -12.833 32.001 -17.5s27.334 -7 44.001 -7c25.333 0 47 5.5 65 16.5s32.833 25 44.5 42s20.167 36.167 25.5 57.5s8 43 8 65c0 20 -2.5 39.667 -7.5 59s-12.667 36.666 -23 51.999s-23.666 27.666 -39.999 36.999s-36.166 14 -59.499 14
c-4.66699 0 -10.667 -0.333008 -18 -1s-15.5 -2.33398 -24.5 -5.00098s-18.167 -6.5 -27.5 -11.5s-18.333 -12.167 -27 -21.5c-4 -4 -7.83301 -8.5 -11.5 -13.5s-8.5 -12.5 -14.5 -22.5l-69 8l49 356h316z" />
    <glyph glyph-name="six" unicode="6" horiz-adv-x="562" 
d="M282 57c4.66699 -0.666992 12.334 -0.333008 23.001 1s21.667 5.33301 33 12c18 10 32 23.5 42 40.5s17.167 33.833 21.5 50.5s7 31.667 8 45s1.5 21.333 1.5 24c0 4 -0.5 12 -1.5 24s-3.5 25.5 -7.5 40.5s-10.333 30.333 -19 46s-20.667 28.834 -36 39.501
c-14 9.33301 -26.833 15.166 -38.5 17.499s-20.834 3.5 -27.501 3.5c-17.333 0 -33.333 -3.5 -48 -10.5s-27.667 -16.833 -39 -29.5c-14.667 -16.667 -25.5 -37.5 -32.5 -62.5s-10.5 -48.5 -10.5 -70.5c0 -19.333 2.5 -39 7.5 -59s12.667 -38.333 23 -55
s23.833 -30.167 40.5 -40.5s36.667 -15.833 60 -16.5zM414 704.001c-52.667 -58.667 -94 -109.327 -124 -151.994s-53.667 -78.334 -71 -107.001c2.66699 1.33301 5.16699 2.5 7.5 3.5s4.83301 2.16699 7.5 3.5c4.66699 2 12.834 4.5 24.501 7.5s24.834 4.5 39.501 4.5
c17.333 0 32 -1.83301 44 -5.5s21.333 -6.83398 28 -9.50098c13.333 -6 27 -14.5 41 -25.5s26.833 -25.333 38.5 -43s21.334 -38.834 29.001 -63.501s11.5 -53.667 11.5 -87c0 -8 -0.5 -19.167 -1.5 -33.5s-3.83301 -30.5 -8.5 -48.5s-12 -36.5 -22 -55.5
s-24.333 -36.833 -43 -53.5c-5.33301 -4.66699 -11.833 -9.83398 -19.5 -15.501s-16.667 -10.834 -27 -15.501s-22.333 -8.66699 -36 -12s-29.167 -5 -46.5 -5c-14.667 0 -29.334 1.33301 -44.001 4s-28.667 7 -42 13c-12.667 5.33301 -26.334 13.666 -41.001 24.999
s-28.5 26 -41.5 44s-23.833 39.667 -32.5 65s-13 55 -13 89c0 26.667 4.16699 58.5 12.5 95.5s26.833 80.833 55.5 131.5c16 28 38.667 62.333 68 103s69.666 88.667 120.999 144z" />
    <glyph glyph-name="seven" unicode="7" horiz-adv-x="568" 
d="M499 689v-64l-337 -625h-86l334 617h-341v72h430z" />
    <glyph glyph-name="eight" unicode="8" horiz-adv-x="568" 
d="M283 328c-4 0 -11.3301 -0.500977 -21.9971 -1.50098s-21.667 -4.16699 -33 -9.5c-7.33301 -3.33301 -15.5 -8 -24.5 -14s-17.333 -14 -25 -24s-14 -22.167 -19 -36.5s-7.5 -31.166 -7.5 -50.499c0 -14 1.16699 -25.5 3.5 -34.5s4.5 -16.167 6.5 -21.5
c9.33301 -26 25.166 -46 47.499 -60s47.166 -21 74.499 -21c11.333 0 21.833 1.16699 31.5 3.5s19.167 5.83301 28.5 10.5c7.33301 3.33301 15 8 23 14s15.667 13.833 23 23.5s13.333 21.5 18 35.5s7 30.667 7 50c0 4.66699 -0.5 12.667 -1.5 24s-3.83301 23 -8.5 35
c-10.667 24.667 -26.834 43.667 -48.501 57s-46.167 20 -73.5 20zM284.003 634.999c-4 0 -10.834 -0.666016 -20.501 -1.99902s-20.167 -4.66602 -31.5 -9.99902c-6 -2.66699 -12.667 -6.83398 -20 -12.501s-14 -13 -20 -22s-11.167 -19.667 -15.5 -32
s-6.5 -26.833 -6.5 -43.5c0.666992 -34 10.834 -62.833 30.501 -86.5s47.5 -35.5 83.5 -35.5c4 0 11 0.666992 21 2s20.667 5 32 11c6 3.33301 12.667 7.66602 20 12.999s14 12.5 20 21.5s11 19.667 15 32s6 26.833 6 43.5c0 4.66699 -0.333008 11.167 -1 19.5
s-3 17.833 -7 28.5c-6 16 -13.833 28.833 -23.5 38.5s-19.834 17 -30.501 22s-20.667 8.33301 -30 10s-16.666 2.5 -21.999 2.5zM174.002 363c-9.33301 4.66699 -16.3291 8.67285 -20.9961 12.0059s-9 6.66602 -13 9.99902c-4.66699 4 -9.83398 9.66699 -15.501 17
s-11 16.333 -16 27s-9.16699 22.667 -12.5 36s-5 28.333 -5 45c0 27.333 5 52.666 15 75.999s23.833 43.333 41.5 60s38.167 29.667 61.5 39s48.333 14 75 14s51.667 -4.66699 75 -14s43.833 -22.5 61.5 -39.5s31.5 -37 41.5 -60s15 -48.167 15 -75.5
c0 -4 -0.5 -10.833 -1.5 -20.5s-3.16699 -20.5 -6.5 -32.5s-8.33301 -24.333 -15 -37s-15.667 -24.334 -27 -35.001c-5.33301 -4.66699 -9.83301 -8.16699 -13.5 -10.5s-10.167 -6.16602 -19.5 -11.499c10 -5.33301 17.5 -9.83301 22.5 -13.5s9.5 -7.5 13.5 -11.5
c22 -18 38.167 -39.833 48.5 -65.5s15.5 -52.834 15.5 -81.501c0 -20.667 -1.83301 -38 -5.5 -52s-7.16699 -24.667 -10.5 -32c-4.66699 -10.667 -11.834 -22.667 -21.501 -36s-22.334 -26 -38.001 -38s-34.667 -22 -57 -30s-48.5 -12 -78.5 -12c-6 0 -17 0.666992 -33 2
s-32.667 5.33301 -50 12c-10 4 -22.167 10.167 -36.5 18.5s-28.333 19.833 -42 34.5s-25.167 33 -34.5 55s-14 48.333 -14 79c0 18.667 2 35.5 6 50.5s8.83301 28.167 14.5 39.5s11.834 21.166 18.501 29.499s12.667 14.833 18 19.5
c7.33301 7.33301 14.166 13.166 20.499 17.499s14.166 9.16602 23.499 14.499z" />
    <glyph glyph-name="nine" unicode="9" horiz-adv-x="562" 
d="M281 633c-22.667 0 -42.165 -5.50391 -58.498 -16.5039s-29.833 -24.833 -40.5 -41.5s-18.5 -35.167 -23.5 -55.5s-7.5 -40.166 -7.5 -59.499c0 -30 4.16699 -55.5 12.5 -76.5s15.833 -36.167 22.5 -45.5l11 -13.5c4.66699 -5.66699 11.667 -11.167 21 -16.5
c5.33301 -3.33301 13.166 -7.33301 23.499 -12s23.833 -7 40.5 -7c6 0 14.667 0.833008 26 2.5s23.666 7.16699 36.999 16.5c16 10.667 28.5 23.834 37.5 39.501s15.667 31.334 20 47.001s6.83301 29.667 7.5 42s1 20.5 1 24.5c0 3.33301 -0.333008 11.333 -1 24
s-3.16699 27 -7.5 43s-11 32 -20 48s-21.833 29.333 -38.5 40c-18.667 12.667 -39.667 18.334 -63 17.001zM148.002 -16.0039c20.667 22.667 39.999 45 57.999 67l48.5 61.5c14.333 19 26.666 36.167 36.999 51.5l24.5 36l14 22c4.66699 7.33301 9 15 13 23
c-2.66699 -1.33301 -5.16699 -2.66602 -7.5 -3.99902s-5.16602 -2.66602 -8.49902 -3.99902c-5.33301 -2.66699 -13.333 -5.33398 -24 -8.00098s-23.667 -4 -39 -4c-6.66699 0 -16.667 1 -30 3s-28 6.66699 -44 14c-11.333 5.33301 -23.833 13.5 -37.5 24.5
s-26.5 25.333 -38.5 43s-22 38.667 -30 63s-12 52.5 -12 84.5c0 9.33301 0.833008 22.166 2.5 38.499s6.16699 35.5 13.5 57.5c15.333 44 39.833 79.333 73.5 106s74.167 40 121.5 40c8.66699 0 21.5 -1 38.5 -3s35.5 -8 55.5 -18c27.333 -14 48.5 -31.833 63.5 -53.5
s26.167 -43.5 33.5 -65.5s11.833 -42.333 13.5 -61s2.5 -31.667 2.5 -39c0 -15.333 -1.66699 -36.166 -5 -62.499s-12.333 -57.5 -27 -93.5c-15.333 -36.667 -34.666 -72.834 -57.999 -108.501s-46.5 -68.167 -69.5 -97.5s-43.667 -54 -62 -74l-35.5 -39h-85z" />
    <glyph glyph-name="colon" unicode=":" horiz-adv-x="271" 
d="M135 501c5.33301 0 13.833 -1.66699 25.5 -5s21.167 -12 28.5 -26c1.33301 -2.66699 3 -6.33398 5 -11.001s3 -10.667 3 -18c0 -17.333 -6 -31.833 -18 -43.5s-26.667 -17.5 -44 -17.5c-16 0 -30.167 5.83301 -42.5 17.5s-18.5 26.167 -18.5 43.5
c0 16.667 5.83301 30.834 17.5 42.501s26.167 17.5 43.5 17.5zM135 111c16.667 0 31.333 -5.83203 44 -17.499s18.667 -26.167 18 -43.5c0 -17.333 -6 -31.833 -18 -43.5s-26.667 -17.5 -44 -17.5c-16.667 0.666992 -31 6.66699 -43 18s-18 25.666 -18 42.999
c0 16.667 5.83301 31 17.5 43s26.167 18 43.5 18z" />
    <glyph glyph-name="semicolon" unicode=";" horiz-adv-x="255" 
d="M38 -154l9.99707 10.501l10 10.5c10 12 20.5 27.333 31.5 46s19.167 35.334 24.5 50.001c2 5.33301 3.66699 10.333 5 15s2.66602 11.667 3.99902 21c-5.33301 0 -10.166 0.166992 -14.499 0.5s-9.16602 1.83301 -14.499 4.5c-11.333 4.66699 -20.166 11.667 -26.499 21
s-9.5 20 -9.5 32c0 3.33301 1 9.16602 3 17.499s6.66699 16.5 14 24.5c8 9.33301 17.167 15 27.5 17s17.166 3 20.499 3c7.33301 0 14.833 -1.33301 22.5 -4s14.834 -7.33398 21.501 -14.001s12.167 -15.167 16.5 -25.5s6.5 -23.5 6.5 -39.5
c0 -5.33301 -0.166992 -11.833 -0.5 -19.5s-2.16602 -17.167 -5.49902 -28.5c-4.66699 -18.667 -12.667 -39.167 -24 -61.5s-30 -49.5 -56 -81.5zM119.997 501.001c16.667 0 31.334 -5.83301 44.001 -17.5s18.667 -25.834 18 -42.501c0 -17.333 -6 -31.833 -18 -43.5
s-26.667 -17.5 -44 -17.5c-16.667 0 -31 5.83301 -43 17.5s-18 26.167 -18 43.5c0.666992 16.667 6.66699 30.834 18 42.501s25.666 17.5 42.999 17.5z" />
    <glyph glyph-name="semicolon" unicode="&#x37e;" horiz-adv-x="255" 
d="M38 -154l9.99707 10.501l10 10.5c10 12 20.5 27.333 31.5 46s19.167 35.334 24.5 50.001c2 5.33301 3.66699 10.333 5 15s2.66602 11.667 3.99902 21c-5.33301 0 -10.166 0.166992 -14.499 0.5s-9.16602 1.83301 -14.499 4.5c-11.333 4.66699 -20.166 11.667 -26.499 21
s-9.5 20 -9.5 32c0 3.33301 1 9.16602 3 17.499s6.66699 16.5 14 24.5c8 9.33301 17.167 15 27.5 17s17.166 3 20.499 3c7.33301 0 14.833 -1.33301 22.5 -4s14.834 -7.33398 21.501 -14.001s12.167 -15.167 16.5 -25.5s6.5 -23.5 6.5 -39.5
c0 -5.33301 -0.166992 -11.833 -0.5 -19.5s-2.16602 -17.167 -5.49902 -28.5c-4.66699 -18.667 -12.667 -39.167 -24 -61.5s-30 -49.5 -56 -81.5zM119.997 501.001c16.667 0 31.334 -5.83301 44.001 -17.5s18.667 -25.834 18 -42.501c0 -17.333 -6 -31.833 -18 -43.5
s-26.667 -17.5 -44 -17.5c-16.667 0 -31 5.83301 -43 17.5s-18 26.167 -18 43.5c0.666992 16.667 6.66699 30.834 18 42.501s25.666 17.5 42.999 17.5z" />
    <glyph glyph-name="less" unicode="&#x3c;" horiz-adv-x="500" 
d="M0 319v70l500 249v-64l-434 -220l434 -222v-64z" />
    <glyph glyph-name="equal" unicode="=" horiz-adv-x="568" 
d="M510 313v-57h-452v57h452zM510 455v-57h-452v57h452z" />
    <glyph glyph-name="greater" unicode="&#x3e;" horiz-adv-x="500" 
d="M0 132l434 222l-434 220v64l500 -249v-70l-500 -251v64z" />
    <glyph glyph-name="question" unicode="?" horiz-adv-x="437" 
d="M164 200c0 34 0.165039 61.833 0.498047 83.5s2.5 39.834 6.5 54.501c5.33301 18.667 14.166 35.167 26.499 49.5s25.166 28.166 38.499 41.499s24.333 25.166 33 35.499s15.834 20.166 21.501 29.499s9.66699 18.333 12 27s3.5 18 3.5 28
c0 7.33301 -1.16699 15.666 -3.5 24.999s-6.66602 18 -12.999 26s-15.166 14.667 -26.499 20s-26 8 -44 8c-12 0 -21.5 -0.833008 -28.5 -2.5s-13.167 -3.5 -18.5 -5.5c-12.667 -5.33301 -24.5 -14.666 -35.5 -27.999s-17.833 -35 -20.5 -65l-65 1
c0.666992 21.333 3.33398 41.166 8.00098 59.499s14 36.166 28 53.499c11.333 14 24 25 38 33s27.5 13.833 40.5 17.5s24.833 5.83398 35.5 6.50098s18.667 1 24 1c34 0 61.667 -5.33301 83 -16s38 -23.667 50 -39s20 -31.666 24 -48.999s6 -32.666 6 -45.999
c0 -22 -3 -39.833 -9 -53.5s-11.667 -24.167 -17 -31.5c-6.66699 -10.667 -14.667 -21.167 -24 -31.5s-22.666 -24.166 -39.999 -41.499c-10.667 -10.667 -20.5 -21 -29.5 -31s-16.5 -22 -22.5 -36c-4.66699 -11.333 -7.33398 -23.5 -8.00098 -36.5s-1 -31.167 -1 -54.5
v-16.5c0 -5.66699 0.333008 -11.167 1 -16.5h-74zM199.998 111c17.333 0 32 -6.00195 44 -18.002s18 -26.333 18 -43c0 -17.333 -6.16699 -31.833 -18.5 -43.5s-26.833 -17.5 -43.5 -17.5c-17.333 0.666992 -31.833 6.83398 -43.5 18.501s-17.5 26.167 -17.5 43.5
c0 16.667 6 30.834 18 42.501s26.333 17.5 43 17.5z" />
    <glyph glyph-name="at" unicode="@" horiz-adv-x="896" 
d="M548 347c0 11.333 -0.664062 20.9971 -1.99707 28.9971s-2.66602 14.333 -3.99902 19c-4 14 -9.83301 25.5 -17.5 34.5s-15.5 15.833 -23.5 20.5s-16 7.83398 -24 9.50098s-14.667 2.5 -20 2.5c-21.333 0 -40.5 -6.33301 -57.5 -19s-31.167 -27.334 -42.5 -44.001
c-4 -6 -8.66699 -14.167 -14 -24.5s-10.5 -22.5 -15.5 -36.5s-9.33301 -29.667 -13 -47s-5.5 -35.666 -5.5 -54.999c0 -20.667 2.66699 -38 8 -52s12.333 -25.333 21 -34s18 -14.667 28 -18s20 -5 30 -5c7.33301 0 17.666 1.83301 30.999 5.5s27.666 11.834 42.999 24.501
c17.333 15.333 31.166 32.833 41.499 52.5s18.166 38.834 23.499 57.501s8.83301 35.5 10.5 50.5s2.5 24.833 2.5 29.5zM585.003 491.997l59.0029 0.00585938l-32 -147c-2 -10.667 -4.83301 -23.5 -8.5 -38.5s-7 -30.667 -10 -47s-5.66699 -32.166 -8 -47.499
s-3.5 -28.333 -3.5 -39c0 -0.666992 0.166992 -3.83398 0.5 -9.50098s1.66602 -11.667 3.99902 -18s6 -12.166 11 -17.499s12.167 -8 21.5 -8c3.33301 0 7 0.666992 11 2s7.66699 2.66602 11 3.99902c8 3.33301 17.667 9.66602 29 18.999s23 22.333 35 39
c17.333 23.333 31 47.166 41 71.499s17.5 47.5 22.5 69.5s8.33301 41.667 10 59s2.5 30.333 2.5 39c0 9.33301 -1 23.666 -3 42.999s-7.66699 40.666 -17 63.999c-14 33.333 -32.333 59.166 -55 77.499s-45.667 32 -69 41s-45.333 14.5 -66 16.5s-35.667 3 -45 3
c-39.333 0 -72.833 -4.33301 -100.5 -13s-48.167 -16.334 -61.5 -23.001c-38 -18 -72.333 -41 -103 -69s-57 -59.5 -79 -94.5s-38.833 -72.5 -50.5 -112.5s-17.5 -81 -17.5 -123c0 -8.66699 0.5 -20.334 1.5 -35.001s3.66699 -30.834 8 -48.501s10.833 -36.334 19.5 -56.001
s21 -39.167 37 -58.5c9.33301 -12 21.833 -24.667 37.5 -38s34.667 -25.666 57 -36.999s48.166 -20.666 77.499 -27.999s62.333 -11 99 -11c11.333 0 24.833 0.5 40.5 1.5s33 3.5 52 7.5s39.667 10 62 18s45.5 18.667 69.5 32c30 16.667 54.333 32.834 73 48.501
s32.667 28.167 42 37.5l27 -32l-31 -28c-10 -8.66699 -20.667 -17.334 -32 -26.001c-10.667 -8 -25.334 -18 -44.001 -30s-40.667 -23.5 -66 -34.5s-54.166 -20.333 -86.499 -28s-67.5 -11.5 -105.5 -11.5c-44 0 -88.5 6.5 -133.5 19.5s-85.5 33.167 -121.5 60.5
c-12.667 9.33301 -26.334 21.833 -41.001 37.5s-28.5 34.667 -41.5 57s-23.833 48.666 -32.5 78.999s-13 64.833 -13 103.5c0 14 1 32.167 3 54.5s6.83301 47.166 14.5 74.499s18.5 56.166 32.5 86.499s33 60.5 57 90.5c11.333 14 26.833 30.833 46.5 50.5
s44.167 38.5 73.5 56.5s63.5 33.5 102.5 46.5s82.833 19.5 131.5 19.5c8 0 19.333 -0.333008 34 -1s31 -3 49 -7s37 -10.167 57 -18.5s39.333 -20.166 58 -35.499c10 -8 20.833 -18.5 32.5 -31.5s22.5 -28.667 32.5 -47s18.167 -39.666 24.5 -63.999
s9.5 -52.166 9.5 -83.499c0 -24 -2.16699 -49 -6.5 -75s-10.833 -51.667 -19.5 -77s-19.5 -49.5 -32.5 -72.5s-27.833 -43.5 -44.5 -61.5l-15 -15c-7.33301 -7.33301 -16.5 -14.666 -27.5 -21.999s-23.5 -14 -37.5 -20s-29 -9 -45 -9c-13.333 0 -24.666 2 -33.999 6
s-17 8.83301 -23 14.5s-10.5 11.667 -13.5 18s-5.16699 11.833 -6.5 16.5c-2 7.33301 -3.16699 13.666 -3.5 18.999s-0.166016 11.666 0.500977 18.999c-7.33301 -10 -14.666 -19.333 -21.999 -28c-2.66699 -3.33301 -7.83398 -8.5 -15.501 -15.5s-17 -14.167 -28 -21.5
s-23.667 -13.666 -38 -18.999s-29.833 -8 -46.5 -8c-18.667 0 -33.834 2.66699 -45.501 8s-20.5 10.333 -26.5 15c-21.333 15.333 -36 35.5 -44 60.5s-12 50.167 -12 75.5c0 17.333 1 31.666 3 42.999l5 28c10 46 24.333 82.333 43 109s35.334 46.334 50.001 59.001
c3.33301 2.66699 8.16602 6.33398 14.499 11.001s14.333 9.5 24 14.5s20.334 9.33301 32.001 13s24.167 5.5 37.5 5.5c14.667 0 27.5 -2 38.5 -6s20.5 -8.83301 28.5 -14.5s14.667 -11.667 20 -18s9.33301 -11.5 12 -15.5c5.33301 -7.33301 9.66602 -15.5 12.999 -24.5
s5.66602 -14.5 6.99902 -16.5z" />
    <glyph glyph-name="A" unicode="A" horiz-adv-x="599" 
d="M299 608l-111 -352h223zM334 711l243 -711h-82l-63 187h-265l-64 -187h-82l244 711h69z" />
    <glyph glyph-name="B" unicode="B" horiz-adv-x="583" 
d="M241 67c37.333 0.666992 68 2.00098 92 4.00098s43.667 6.33301 59 13c17.333 8 29.666 17.5 36.999 28.5s12.333 20.167 15 27.5c5.33301 13.333 8.5 25.5 9.5 36.5s1.5 19.167 1.5 24.5c0 6 -1 16.833 -3 32.5s-8.66699 31.5 -20 47.5c-10 14 -22.333 24.833 -37 32.5
s-30.5 13.167 -47.5 16.5s-34.667 5.16602 -53 5.49902s-36.166 0.5 -53.499 0.5h-71v-269h71zM237 402.001c15.333 0 31.835 0.5 49.502 1.5s34.667 3.66699 51 8s31.166 11.333 44.499 21s23.666 23.5 30.999 41.5l5.5 20c2.33301 8.66699 3.5 19 3.5 31
c0 4 -0.333008 10 -1 18s-2.66699 16.5 -6 25.5s-8.33301 18.167 -15 27.5s-16 17.333 -28 24c-15.333 8.66699 -33.333 14 -54 16s-49 3 -85 3h-63v-237h67zM220.002 706.001c22 0 41.332 -0.169922 57.999 -0.50293s31.667 -1 45 -2s25.333 -2.66699 36 -5
s21.334 -5.16602 32.001 -8.49902c36.667 -12.667 64.334 -33 83.001 -61s28 -61 28 -99c0 -4.66699 -0.5 -12.167 -1.5 -22.5s-3.33301 -21.5 -7 -33.5s-9.33398 -24.167 -17.001 -36.5s-18.5 -23.5 -32.5 -33.5c-6.66699 -5.33301 -14.167 -10 -22.5 -14
s-20.166 -8.66699 -35.499 -14c5.33301 -1.33301 14.166 -3.66602 26.499 -6.99902s25.166 -8.66602 38.499 -15.999c8.66699 -4.66699 18.167 -10.834 28.5 -18.501s20 -17.834 29 -30.501s16.5 -27.834 22.5 -45.501s9 -38.5 9 -62.5
c-0.666992 -13.333 -2 -26.166 -4 -38.499s-5.33301 -24.5 -10 -36.5c-22 -57.333 -63.333 -93.666 -124 -108.999c-21.333 -5.33301 -46.166 -8.66602 -74.499 -9.99902s-65.833 -2 -112.5 -2h-123v706h128z" />
    <glyph glyph-name="C" unicode="C" horiz-adv-x="635" 
d="M505 511c-1.33301 5.33301 -3.49805 13.4912 -6.49805 24.4912s-7.83301 22.5 -14.5 34.5s-15.5 24 -26.5 36s-25.5 21.667 -43.5 29c-6 2.66699 -15 5.66699 -27 9s-26.333 5 -43 5c-7.33301 0 -19.333 -1 -36 -3s-34 -8.33301 -52 -19
c-15.333 -8.66699 -30.166 -20.667 -44.499 -36s-27 -34.166 -38 -56.499s-19.667 -48.666 -26 -78.999s-9.5 -64.833 -9.5 -103.5c0 -42 4 -79.167 12 -111.5s18.5 -60.166 31.5 -83.499s28 -42.166 45 -56.499s34.5 -24.833 52.5 -31.5c7.33301 -3.33301 16 -6 26 -8
s23.333 -3 40 -3c23.333 0 43.5 3.16699 60.5 9.5s31.167 14 42.5 23s20.5 18.833 27.5 29.5s12.5 20 16.5 28c7.33301 15.333 12.833 30.333 16.5 45s6.16699 30.334 7.5 47.001h74c0 -4.66699 -0.5 -11.5 -1.5 -20.5s-2.66699 -19.333 -5 -31s-5.5 -24.167 -9.5 -37.5
s-9.66699 -26.666 -17 -39.999c-14 -28.667 -30.833 -51.167 -50.5 -67.5s-39.5 -28.666 -59.5 -36.999s-38.833 -13.5 -56.5 -15.5s-31.834 -3 -42.501 -3c-9.33301 0 -21 0.5 -35 1.5s-29.333 3.83301 -46 8.5s-34.167 11.667 -52.5 21s-36.5 22.333 -54.5 39
c-26.667 24.667 -47.167 52 -61.5 82s-24.833 59 -31.5 87s-10.5 53.167 -11.5 75.5s-1.5 38.5 -1.5 48.5c0 39.333 3 74.5 9 105.5s13.833 58.5 23.5 82.5s20.667 44.667 33 62s24.833 32 37.5 44c25.333 24 54.166 42.333 86.499 55s65.5 19 99.5 19
c9.33301 0 22.666 -1 39.999 -3s36 -6.66699 56 -14s40.167 -18.666 60.5 -33.999s37.5 -36.333 51.5 -63c6 -11.333 11.333 -23.666 16 -36.999s8.66699 -32.333 12 -57h-74z" />
    <glyph glyph-name="D" unicode="D" horiz-adv-x="661" 
d="M220 69c35.333 0 69.5 1.33008 102.5 3.99707s64.833 14 95.5 34c12.667 8.66699 25.334 19.834 38.001 33.501s24 30.5 34 50.5s18.167 43.333 24.5 70s9.5 57.334 9.5 92.001c0 50.667 -6 91.834 -18 123.501s-24.667 56.167 -38 73.5
c-16.667 22.667 -34 39.167 -52 49.5s-31.667 17.166 -41 20.499c-28 10.667 -56.833 16.334 -86.5 17.001s-58.834 1 -87.501 1h-32v-569h51zM200 705.997c23.333 0 46.835 -0.169922 70.502 -0.50293s47.167 -2.16602 70.5 -5.49902s46.166 -8.83301 68.499 -16.5
s43.5 -18.5 63.5 -32.5c14 -10 28.833 -23.333 44.5 -40s30.167 -37.167 43.5 -61.5s24.5 -52.666 33.5 -84.999s13.5 -69.5 13.5 -111.5c0 -24.667 -1.33301 -45.5 -4 -62.5s-5 -30.5 -7 -40.5c-2.66699 -12 -7.83398 -28.667 -15.501 -50s-19.167 -43.666 -34.5 -66.999
s-35.5 -45.5 -60.5 -66.5s-56.167 -37.167 -93.5 -48.5c-32.667 -10 -66 -15.5 -100 -16.5s-67.667 -1.5 -101 -1.5h-102v706h110z" />
    <glyph glyph-name="E" unicode="E" horiz-adv-x="531" 
d="M457 400v-69h-287v-262h316v-69h-395v706h388v-68h-309v-238h287z" />
    <glyph glyph-name="F" unicode="F" horiz-adv-x="516" 
d="M457 400v-69h-285v-331h-81v706h388v-68h-309v-238h287z" />
    <glyph glyph-name="G" unicode="G" horiz-adv-x="656" 
d="M591 351l-0.00585938 -290.996c-5.33301 -3.33301 -11.166 -7.33301 -17.499 -12s-15.166 -10 -26.499 -16c-7.33301 -4 -17 -8.5 -29 -13.5s-26.167 -9.83301 -42.5 -14.5s-34.333 -8.66699 -54 -12s-40.834 -5 -63.501 -5c-30 0 -56.667 3 -80 9s-44 13.667 -62 23
s-33.333 19.333 -46 30s-23 20.667 -31 30c-10 11.333 -20 25.333 -30 42s-19.167 36.5 -27.5 59.5s-15.166 49 -20.499 78s-8 61.5 -8 97.5c0 28 2 56.333 6 85s10.833 56.5 20.5 83.5s22.5 52.333 38.5 76s35.667 44.5 59 62.5
c6.66699 5.33301 15.334 11.166 26.001 17.499s23 12.333 37 18s30 10.5 48 14.5s38 6 60 6c47.333 0 90.5 -10.833 129.5 -32.5s68.167 -55.5 87.5 -101.5c4.66699 -12 8.33398 -24 11.001 -36s4.66699 -24.333 6 -37h-74l-7 27c-3.33301 12.667 -9 25.667 -17 39
c-11.333 19.333 -23.333 33 -36 41s-23 13.667 -31 17c-6 2.66699 -14.833 5.5 -26.5 8.5s-26.167 4.5 -43.5 4.5c-22.667 0 -42.667 -3 -60 -9s-32.5 -13.333 -45.5 -22s-23.667 -17.834 -32 -27.501s-14.833 -18.167 -19.5 -25.5
c-19.333 -30 -32.833 -64.167 -40.5 -102.5s-11.5 -74.833 -11.5 -109.5c0 -2.66699 0.166992 -10.167 0.5 -22.5s1.5 -27 3.5 -44s5.5 -35.667 10.5 -56s12.333 -40.333 22 -60s22.167 -37.834 37.5 -54.501s34 -30.334 56 -41.001
c8.66699 -4 20.334 -7.83301 35.001 -11.5s33 -5.5 55 -5.5c16 0 38.333 2.5 67 7.5s60.334 17.833 95.001 38.5v178h-144v69h215z" />
    <glyph glyph-name="H" unicode="H" horiz-adv-x="672" 
d="M502 402v304h79v-706h-79v337h-332v-337h-79v706h79v-304h332z" />
    <glyph glyph-name="I" unicode="I" horiz-adv-x="260" 
d="M89 0v706h82v-706h-82z" />
    <glyph glyph-name="J" unicode="J" horiz-adv-x="307" 
d="M217 706l-0.00390625 -622.002c-0.666992 -28 -4.16699 -53.5 -10.5 -76.5s-21.166 -43.5 -44.499 -61.5c-19.333 -15.333 -41.166 -25.666 -65.499 -30.999s-48.166 -8 -71.499 -8c-4.66699 0 -9 0.166992 -13 0.5s-8.33301 0.5 -13 0.5v68
c17.333 0 34.833 0.833008 52.5 2.5s33.834 7.83398 48.501 18.501c9.33301 6.66699 16.5 14.334 21.5 23.001s8.5 18.667 10.5 30s3.16699 24.666 3.5 39.999s0.5 33 0.5 53v563h81z" />
    <glyph glyph-name="K" unicode="K" horiz-adv-x="594" 
d="M171 706v-706h-79v706h79zM555 706l-288 -334l316 -372h-109l-301 370l286 336h96z" />
    <glyph glyph-name="L" unicode="L" horiz-adv-x="505" 
d="M174 706v-637h302v-69h-384v706h82z" />
    <glyph glyph-name="M" unicode="M" horiz-adv-x="818" 
d="M211 706l198 -619l199 619h119v-706h-75v627l-203 -627h-80l-203 627v-627h-76v706h121z" />
    <glyph glyph-name="N" unicode="N" horiz-adv-x="682" 
d="M178 706l339 -588v588h74v-706h-87l-337 586v-586h-75v706h86z" />
    <glyph glyph-name="O" unicode="O" horiz-adv-x="682" 
d="M138 353c0 -6 0.329102 -18.665 0.996094 -37.998s3.83398 -41.5 9.50098 -66.5s14.334 -50.667 26.001 -77s28.5 -49.5 50.5 -69.5c9.33301 -8.66699 23.333 -18.334 42 -29.001s43.334 -16 74.001 -16c6.66699 0 14.834 0.5 24.501 1.5s20 3.5 31 7.5
s22.667 9.66699 35 17s24.5 17.333 36.5 30c14.667 15.333 26.834 32.666 36.501 51.999s17.5 39.5 23.5 60.5s10.167 42.5 12.5 64.5s3.5 43 3.5 63c0 6 -0.166992 15.167 -0.5 27.5s-1.66602 26.5 -3.99902 42.5s-5.66602 33.167 -9.99902 51.5s-10.5 36.5 -18.5 54.5
c-3.33301 7.33301 -9.33301 18.333 -18 33s-21.334 29.334 -38.001 44.001c-9.33301 8 -23.166 17.167 -41.499 27.5s-42.5 15.5 -72.5 15.5c-8.66699 0 -18.834 -0.833008 -30.501 -2.5s-24 -5.33398 -37 -11.001s-26.333 -13.667 -40 -24s-26.834 -24.5 -39.501 -42.5
c-14 -19.333 -24.667 -40.5 -32 -63.5s-12.833 -45 -16.5 -66s-5.83398 -39.333 -6.50098 -55s-1 -26.167 -1 -31.5zM52.9961 353.002c0 10 0.832031 27.334 2.49902 52.001s6.66699 52.334 15 83.001s21.333 62 39 94s42.5 60 74.5 84c16 12 31.667 21.5 47 28.5
s30 12.333 44 16s26.667 6 38 7s20.666 1.5 27.999 1.5c31.333 0 59.166 -4.33301 83.499 -13s45.5 -19.167 63.5 -31.5s33 -25.166 45 -38.499s21 -24.333 27 -33c8 -10.667 16 -23.834 24 -39.501s15.333 -33.834 22 -54.501s12.167 -43.834 16.5 -69.501
s6.5 -54.5 6.5 -86.5c0 -29.333 -2.33301 -58.833 -7 -88.5s-12.167 -58.5 -22.5 -86.5s-24.166 -54.167 -41.499 -78.5s-38.666 -45.5 -63.999 -63.5c-6 -4 -13.667 -8.83301 -23 -14.5s-20.333 -11 -33 -16s-27.167 -9.16699 -43.5 -12.5s-34.166 -5 -53.499 -5
c-11.333 0 -28.5 1.66699 -51.5 5s-47.833 12 -74.5 26c-18.667 10 -37.5 24 -56.5 42s-36.333 40.5 -52 67.5s-28.5 59 -38.5 96s-15 79.833 -15 128.5z" />
    <glyph glyph-name="P" unicode="P" horiz-adv-x="557" 
d="M220 357c42.667 0 76.834 1.33398 102.501 4.00098s47.167 9.33398 64.5 20.001c5.33301 3.33301 11.166 7.66602 17.499 12.999s13.166 13.666 20.499 24.999c3.33301 6.66699 7.33301 16.167 12 28.5s7 27.833 7 46.5c0 4 -0.333008 10.5 -1 19.5s-2.5 19 -5.5 30
s-7.83301 22.167 -14.5 33.5s-16 21.333 -28 30c-18.667 14 -42.167 22.667 -70.5 26s-66.166 5 -113.499 5h-41v-281h50zM208 706.001c24.667 0 46.5039 -0.168945 65.5039 -0.501953s36 -1.16602 51 -2.49902s28.667 -3.16602 41 -5.49902s24.166 -5.5 35.499 -9.5
c43.333 -15.333 75.166 -40.5 95.499 -75.5s30.5 -74.5 30.5 -118.5c0 -6.66699 -0.666992 -17.167 -2 -31.5s-5 -30 -11 -47s-15 -34 -27 -51s-29 -31.5 -51 -43.5c-15.333 -8.66699 -32 -15.167 -50 -19.5s-36.333 -7.5 -55 -9.5s-37.334 -3.16699 -56.001 -3.5
s-36.334 -0.5 -53.001 -0.5h-49v-288h-82v706h117z" />
    <glyph glyph-name="Q" unicode="Q" horiz-adv-x="693" 
d="M138 353c0 -6.66699 0.50293 -19.501 1.50293 -38.501s4.16699 -40.667 9.5 -65s13.833 -49.5 25.5 -75.5s28.5 -49.333 50.5 -70c11.333 -10.667 22.666 -19.167 33.999 -25.5s22 -11.166 32 -14.499s19.333 -5.33301 28 -6s16 -1 22 -1
c27.333 0 51.666 5.16699 72.999 15.5s40.666 25.833 57.999 46.5c18 20.667 31.833 43.334 41.5 68.001s16.667 48.334 21 71.001s7 42.667 8 60s1.5 29 1.5 35s-0.5 18.667 -1.5 38s-4.33301 41.5 -10 66.5s-14.5 50.833 -26.5 77.5s-29 50 -51 70
c-9.33301 8 -23 17.333 -41 28s-42.333 16 -73 16c-47.333 0 -88.333 -17.667 -123 -53c-20 -20.667 -35.333 -43.834 -46 -69.501s-18.5 -50.334 -23.5 -74.001s-8 -44.667 -9 -63s-1.5 -30.5 -1.5 -36.5zM720.003 -9.00098l-95.0029 0.00195312l-85 88
c-2.66699 -3.33301 -5.16699 -6.16602 -7.5 -8.49902s-4.83301 -5.16602 -7.5 -8.49902c-6 -6 -14.5 -13.167 -25.5 -21.5s-24.167 -16.333 -39.5 -24s-33.166 -14.334 -53.499 -20.001s-42.5 -8.5 -66.5 -8.5c-28 0 -53 3.66699 -75 11s-41.333 16 -58 26
s-30.834 20.5 -42.501 31.5s-20.5 20.167 -26.5 27.5c-9.33301 11.333 -19 25.166 -29 41.499s-19.167 35.666 -27.5 57.999s-15.166 47.5 -20.499 75.5s-8 59.333 -8 94c0 6.66699 0.333008 17.167 1 31.5s2.33398 30.833 5.00098 49.5s7.16699 38.834 13.5 60.501
s14.833 43.5 25.5 65.5s24.334 43 41.001 63s37 38 61 54c11.333 7.33301 28.666 16.166 51.999 26.499s53 15.5 89 15.5c10.667 0 26.834 -1.33301 48.501 -4s45.167 -10.667 70.5 -24c30.667 -16 56.667 -36.5 78 -61.5s38.833 -52.5 52.5 -82.5s23.5 -61.5 29.5 -94.5
s9 -65.5 9 -97.5c0 -6 -0.333008 -15.5 -1 -28.5s-2 -28 -4 -45s-5.33301 -35.333 -10 -55s-11 -38.834 -19 -57.501c-4.66699 -10.667 -9 -20 -13 -28z" />
    <glyph glyph-name="R" unicode="R" horiz-adv-x="594" 
d="M268 371c14.667 0.666992 29.667 1.66699 45 3s30 4.33301 44 9s27 11.5 39 20.5s22 20.833 30 35.5c7.33301 15.333 11.833 29.333 13.5 42s2.5 21.667 2.5 27c-0.666992 23.333 -5.5 44.5 -14.5 63.5s-24.167 34.167 -45.5 45.5c-10.667 6 -23.167 10.5 -37.5 13.5
s-28.833 5 -43.5 6s-29.167 1.5 -43.5 1.5h-39.5h-48v-267h98zM215 706c30 0.666992 62 0.168945 96 -1.49805s65 -7.5 93 -17.5c40 -14.667 70.167 -38 90.5 -70s30.5 -69 30.5 -111c0 -26 -3.5 -48.667 -10.5 -68s-15.667 -35.833 -26 -49.5
s-21.166 -24.834 -32.499 -33.501s-21 -15.334 -29 -20.001c-6.66699 -4 -12.834 -7.16699 -18.501 -9.5s-15.167 -5.83301 -28.5 -10.5l186 -315h-96l-178 302h-122v-302h-80v706h125z" />
    <glyph glyph-name="S" unicode="S" horiz-adv-x="578" 
d="M422 524c-1.33301 12.667 -3.00098 22.668 -5.00098 30.001s-4 13.333 -6 18c-10.667 26.667 -27.5 46.167 -50.5 58.5s-48.5 18.5 -76.5 18.5c-16 0 -30.167 -1.83301 -42.5 -5.5s-23 -8.16699 -32 -13.5s-16.5 -11.166 -22.5 -17.499s-11 -12.166 -15 -17.499
c-7.33301 -11.333 -11.833 -21.666 -13.5 -30.999s-2.5 -16.666 -2.5 -21.999s1 -13 3 -23s7.33301 -20 16 -30c10.667 -13.333 24.5 -24.5 41.5 -33.5s40.833 -20.5 71.5 -34.5l66 -30c22 -10 43.667 -21 65 -33c8.66699 -4.66699 18.834 -11.334 30.501 -20.001
s22.667 -19.667 33 -33s19.166 -29.5 26.499 -48.5s11 -41.5 11 -67.5c0 -7.33301 -1 -19.333 -3 -36s-7.66699 -34.334 -17 -53.001c-6 -12 -14.5 -24.667 -25.5 -38s-25 -25.5 -42 -36.5s-37.333 -20 -61 -27s-51.5 -10.5 -83.5 -10.5h-11
c-8.66699 0 -21.834 1.16699 -39.501 3.5s-36.5 7.66602 -56.5 15.999s-39.667 20.666 -59 36.999s-35.333 38.5 -48 66.5l-7.5 19.5c-2.33301 6.33301 -4.33301 13.5 -6 21.5s-3.16699 17 -4.5 27s-2.33301 22 -3 36h78c0 -3.33301 0.333008 -9.16602 1 -17.499
s2 -17.166 4 -26.499c1.33301 -5.33301 3.66602 -12.333 6.99902 -21s8 -17.667 14 -27s13.667 -18.5 23 -27.5s21.333 -16.5 36 -22.5c6.66699 -2.66699 16.334 -5.83398 29.001 -9.50098s28.667 -5.5 48 -5.5c18 0 35.667 2.5 53 7.5s32.833 12.667 46.5 23
s24.667 23.166 33 38.499s12.5 33 12.5 53c0 18 -3.66699 33.833 -11 47.5s-16.666 25.667 -27.999 36s-24.166 19.333 -38.499 27s-28.5 14.5 -42.5 20.5l-119.5 57.5c-31 15 -55.5 31.167 -73.5 48.5c-4 4 -8.83301 9.5 -14.5 16.5s-11 15.333 -16 25
s-9.33301 20.834 -13 33.501s-5.5 27 -5.5 43s1.66699 30 5 42s6.33301 20.667 9 26c8 20 19.167 37.333 33.5 52s30.333 26.667 48 36s36.5 16.333 56.5 21s40.333 7 61 7c40 0 77.667 -8.83301 113 -26.5s61.666 -45.5 78.999 -83.5
c8.66699 -18.667 13.834 -35.834 15.501 -51.501s2.5 -26.834 2.5 -33.501h-77z" />
    <glyph glyph-name="T" unicode="T" horiz-adv-x="490" 
d="M468 706v-68h-184v-638h-79v638h-184v68h447z" />
    <glyph glyph-name="U" unicode="U" horiz-adv-x="661" 
d="M160 706l-0.00195312 -478.005c0.666992 -6.66699 1 -13 1 -19s0.666992 -12.333 2 -19c2 -18.667 6 -34.5 12 -47.5s12.667 -23.833 20 -32.5s15.166 -15.667 23.499 -21s15.833 -9.66602 22.5 -12.999c8 -3.33301 19.667 -7.16602 35 -11.499s33.666 -6.5 54.999 -6.5
c3.33301 0 9.83301 0.333008 19.5 1s20.834 2.33398 33.501 5.00098s25.834 7.16699 39.501 13.5s25.834 14.833 36.501 25.5c6.66699 7.33301 12.334 14.833 17.001 22.5s8.66699 15.834 12 24.501c3.33301 9.33301 5.83301 18.333 7.5 27s2.83398 18.334 3.50098 29.001
s1 22.834 1 36.501v48.5v415h79v-417c1.33301 -21.333 1.33301 -42.666 0 -63.999c-1.33301 -40 -5.5 -70.5 -12.5 -91.5s-16.167 -39.167 -27.5 -54.5c-7.33301 -10.667 -16.833 -21.334 -28.5 -32.001s-26 -20.334 -43 -29.001s-36.833 -15.834 -59.5 -21.501
s-49 -8.5 -79 -8.5c-36 0 -67.333 4.33301 -94 13s-49.334 19.5 -68.001 32.5s-33.667 27.333 -45 43s-20 30.5 -26 44.5c-4 10.667 -7 21.334 -9 32.001s-3.5 22.5 -4.5 35.5s-1.66699 27.667 -2 44s-0.5 35.5 -0.5 57.5v416h79z" />
    <glyph glyph-name="V" unicode="V" horiz-adv-x="594" 
d="M98 706l201 -614l198 614h83l-244 -710h-80l-242 710h84z" />
    <glyph glyph-name="W" unicode="W" horiz-adv-x="823" 
d="M94 706l137 -602l147 602h68l146 -602l139 602h74l-169 -710h-85l-140 551l-139 -551h-85l-168 710h75z" />
    <glyph glyph-name="X" unicode="X" horiz-adv-x="573" 
d="M124 706l164 -271l164 271h92l-211 -336l222 -370h-91l-176 296l-178 -296h-90l222 370l-210 336h92z" />
    <glyph glyph-name="Y" unicode="Y" horiz-adv-x="542" 
d="M103 706l169 -330l167 330h91l-220 -410v-296h-78v296l-220 410h91z" />
    <glyph glyph-name="Z" unicode="Z" horiz-adv-x="521" 
d="M489 706v-54l-364 -583h357v-69h-450v62l360 576h-337v68h434z" />
    <glyph glyph-name="bracketleft" unicode="[" horiz-adv-x="297" 
d="M255 706v-61h-88v-790h88v-61h-158v912h158z" />
    <glyph glyph-name="backslash" unicode="\" horiz-adv-x="354" 
d="M36 706h59l229 -724h-60z" />
    <glyph glyph-name="bracketright" unicode="]" horiz-adv-x="297" 
d="M41 -206v61h89v790h-89v61h159v-912h-159z" />
    <glyph glyph-name="asciicircum" unicode="^" horiz-adv-x="729" 
d="M497 350l-131 274l-134 -274h-76l180 356h63l174 -356h-76z" />
    <glyph glyph-name="underscore" unicode="_" horiz-adv-x="500" 
d="M-10 -206v59h520v-59h-520z" />
    <glyph glyph-name="grave" unicode="`" 
d="M56 580l-154 144h106l110 -144h-62z" />
    <glyph glyph-name="a" unicode="a" horiz-adv-x="505" 
d="M355 272c-39.333 -7.33301 -71.5 -14.335 -96.5 -21.002s-45.5 -13.667 -61.5 -21c-3.33301 -1.33301 -8.83301 -4.16602 -16.5 -8.49902s-15.5 -10.166 -23.5 -17.499s-15 -16.5 -21 -27.5s-9 -24.167 -9 -39.5c0 -28.667 9.5 -50.5 28.5 -65.5s41.833 -22.5 68.5 -22.5
c21.333 0 41.5 4.5 60.5 13.5s34.5 22.833 46.5 41.5c9.33301 14 15.5 29.333 18.5 46s4.83301 40.667 5.5 72v50zM68 370.998c0 3.33301 0.666992 9.50684 2 18.5068s4 18.5 8 28.5c4.66699 12 11.334 23.833 20.001 35.5s20 22.167 34 31.5s31.167 16.833 51.5 22.5
s44.5 8.5 72.5 8.5c4 0 13.333 -0.333008 28 -1s30.5 -3.66699 47.5 -9s33.5 -14 49.5 -26s28 -29 36 -51c5.33301 -12.667 8.33301 -26.834 9 -42.501s1.33398 -37.834 2.00098 -66.501v-188c0 -17.333 0.166992 -32.333 0.5 -45s1 -24.167 2 -34.5
s2.5 -19.666 4.5 -27.999s4.33301 -16.5 7 -24.5h-71c-2 7.33301 -3.66699 13.666 -5 18.999s-2.33301 10.166 -3 14.499s-1.33398 9.16602 -2.00098 14.499s-1.33398 11.666 -2.00098 18.999c-4.66699 -8.66699 -9.33398 -16 -14.001 -22s-10.667 -12.333 -18 -19
c-10 -9.33301 -24 -18.166 -42 -26.499s-42.333 -12.5 -73 -12.5c-26 0 -47.167 3 -63.5 9s-29.166 12 -38.499 18c-6 4 -12.5 9.16699 -19.5 15.5s-13.5 14.166 -19.5 23.499s-11 20.5 -15 33.5s-6 28.167 -6 45.5c0 7.33301 0.666992 16 2 26s4.33301 20.667 9 32
s11.5 23 20.5 35s21.167 23 36.5 33s33 18.667 53 26s40.833 13.666 62.5 18.999s43.167 10 64.5 14s40.333 7.33301 57 10v22c0 14.667 -0.333008 25.167 -1 31.5s-2.33398 13.166 -5.00098 20.499c-7.33301 20.667 -20.166 34.5 -38.499 41.5s-37.166 10.5 -56.499 10.5
c-6 0 -14.667 -0.5 -26 -1.5s-22.833 -4 -34.5 -9s-22.334 -13 -32.001 -24s-16.167 -26.833 -19.5 -47.5h-74z" />
    <glyph glyph-name="b" unicode="b" horiz-adv-x="536" 
d="M288 452c-5.33301 0 -12.668 -0.666992 -22.001 -2s-19.666 -5 -30.999 -11c-22.667 -11.333 -42.5 -32.333 -59.5 -63s-25.5 -73 -25.5 -127c0 -4.66699 0.166992 -12.667 0.5 -24s2 -24.333 5 -39s7.5 -30 13.5 -46s14.333 -31 25 -45c16 -20 32 -32.167 48 -36.5
s29 -6.5 39 -6.5c17.333 0 31.5 2.66699 42.5 8s19.167 10 24.5 14c16.667 13.333 29.5 29.5 38.5 48.5s15.5 37.5 19.5 55.5s6.16699 34.167 6.5 48.5s0.5 22.833 0.5 25.5c0 41.333 -4.5 74.833 -13.5 100.5s-19.167 45.5 -30.5 59.5c-20.667 26 -47.667 39.333 -81 40z
M150.998 710l0.00195312 -280.999c4 6.66699 9.5 15 16.5 25s16.333 19.5 28 28.5s25.5 16.833 41.5 23.5s35 10 57 10c7.33301 0 19 -1.16699 35 -3.5s32.667 -8.5 50 -18.5c13.333 -8 26.5 -18.5 39.5 -31.5s24.833 -29.333 35.5 -49s19.167 -42.834 25.5 -69.501
s9.5 -57.334 9.5 -92.001c0 -7.33301 -0.5 -20.833 -1.5 -40.5s-4.5 -40.167 -10.5 -61.5c-6 -22.667 -14.667 -44 -26 -64s-25 -37.333 -41 -52s-34.333 -26.167 -55 -34.5s-43.667 -12.5 -69 -12.5c-22 0 -40.833 3 -56.5 9s-28.834 13.5 -39.501 22.5
s-19.334 18.333 -26.001 28s-12 17.834 -16 24.501c0 -6 -0.333008 -15.5 -1 -28.5s-3.33398 -27.167 -8.00098 -42.5h-71c4.66699 17.333 7.33398 36.333 8.00098 57s1 49 1 85v568h74z" />
    <glyph glyph-name="c" unicode="c" horiz-adv-x="495" 
d="M368 339c-0.666992 5.33301 -1.66602 11.8232 -2.99902 19.4902s-4 17.167 -8 28.5c-2.66699 6.66699 -6 13.834 -10 21.501s-9.83301 14.834 -17.5 21.501s-17 12.167 -28 16.5s-24.833 6.5 -41.5 6.5c-15.333 0 -29.333 -2.16699 -42 -6.5s-24.667 -12.166 -36 -23.499
c-14.667 -13.333 -25.834 -29.166 -33.501 -47.499s-13.167 -36.166 -16.5 -53.499s-5.33301 -32.666 -6 -45.999s-1 -21.666 -1 -24.999c0 -8 0.666992 -21.5 2 -40.5s6 -40.167 14 -63.5c9.33301 -29.333 23.5 -52.833 42.5 -70.5s45.167 -26.5 78.5 -26.5
c12.667 0 22.834 1.16699 30.501 3.5s14.167 4.83301 19.5 7.5c16 7.33301 29 19.333 39 36s17 42 21 76l74 -1c0 -2.66699 -0.5 -8.66699 -1.5 -18s-2.83301 -19 -5.5 -29c-6.66699 -26.667 -15.667 -48 -27 -64s-21 -27.667 -29 -35
c-10.667 -8.66699 -21.167 -15.167 -31.5 -19.5s-17.5 -7.16602 -21.5 -8.49902c-5.33301 -2 -14.166 -4.33301 -26.499 -7s-26.5 -4 -42.5 -4c-6.66699 0 -15.5 0.5 -26.5 1.5s-23 3.5 -36 7.5s-26.5 10.167 -40.5 18.5s-27.667 19.5 -41 33.5c-8 8.66699 -16 19 -24 31
s-15.333 26.333 -22 43s-12 35.667 -16 57s-6 45.333 -6 72c0 7.33301 0.333008 19.333 1 36s3.66699 35.334 9 56.001c1.33301 6.66699 4.33301 17 9 31s11.834 29.167 21.501 45.5s22.334 32.333 38.001 48s35.167 27.834 58.5 36.501c8 3.33301 18 6.16602 30 8.49902
s27.667 3.5 47 3.5c13.333 0 24.166 -0.666992 32.499 -2s15.166 -2.66602 20.499 -3.99902c18.667 -4.66699 34.5 -11.667 47.5 -21s24 -19 33 -29s16 -20 21 -30s8.5 -18 10.5 -24c3.33301 -8 6.16602 -16.833 8.49902 -26.5s4.16602 -23.167 5.49902 -40.5h-74z" />
    <glyph glyph-name="d" unicode="d" horiz-adv-x="536" 
d="M255 452c-22.667 0 -41.667 -5.00195 -57 -15.002s-27.833 -22.5 -37.5 -37.5s-17.167 -31.167 -22.5 -48.5s-9 -33.333 -11 -48s-3.16699 -27.167 -3.5 -37.5l-0.5 -15.5c0 -19.333 1.33301 -36.166 4 -50.499s5 -25.166 7 -32.499c1.33301 -5.33301 4 -14.333 8 -27
s10.5 -25.5 19.5 -38.5s21 -24.5 36 -34.5s34.167 -15 57.5 -15c5.33301 0 12 0.5 20 1.5s16.333 3.5 25 7.5s17.5 9.5 26.5 16.5s17.5 16.5 25.5 28.5c7.33301 11.333 15 29.5 23 54.5s12 55.167 12 90.5c0 0.666992 -0.166992 6 -0.5 16s-1.5 22.333 -3.5 37
s-5.5 30.667 -10.5 48s-12.5 33.5 -22.5 48.5s-22.667 27.333 -38 37s-34.333 14.5 -57 14.5zM459 147.998c0.666992 -13.333 1.00391 -26.998 1.00391 -40.998s0.333008 -27.667 1 -41c0 -7.33301 0.333008 -16.166 1 -26.499s3 -23.5 7 -39.5h-73
c-1.33301 5.33301 -2.83301 12.333 -4.5 21s-2.5 19.667 -2.5 33v17c-4 -7.33301 -9.5 -15.833 -16.5 -25.5s-16 -18.834 -27 -27.501s-24.333 -16 -40 -22s-34.834 -9 -57.501 -9c-21.333 0 -39.333 2.5 -54 7.5s-25.667 9.5 -33 13.5
c-28.667 15.333 -50.834 35.166 -66.501 59.499s-27 48.666 -34 72.999s-11 46.5 -12 66.5s-1.5 33 -1.5 39s0.5 18 1.5 36s4.16699 38.333 9.5 61s13.833 46.167 25.5 70.5s28.167 45.5 49.5 63.5c9.33301 7.33301 22.833 15.666 40.5 24.999s41.167 14 70.5 14
c23.333 0 42.666 -3.16699 57.999 -9.5s26.666 -12.166 33.999 -17.499c14 -9.33301 25.167 -20.333 33.5 -33l16.5 -25v279h73v-562z" />
    <glyph glyph-name="e" unicode="e" horiz-adv-x="516" 
d="M390 297c-2 21.333 -5.83301 42.1689 -11.5 62.502s-15.834 38.833 -30.501 55.5c-6 7.33301 -15.833 15.666 -29.5 24.999s-32.834 14 -57.501 14c-29.333 0 -52.666 -7.5 -69.999 -22.5s-30.666 -31.833 -39.999 -50.5s-15.5 -36.334 -18.5 -53.001
s-4.83301 -27 -5.5 -31h263zM124 238.003c0 -3.33301 0.500977 -11.999 1.50098 -25.999s3.66699 -29.833 8 -47.5s11.5 -35.334 21.5 -53.001s24.333 -31.834 43 -42.501c14.667 -8.66699 29 -13.834 43 -15.501s23.667 -2.5 29 -2.5s13 0.5 23 1.5s21 4.16699 33 9.5
c19.333 9.33301 33.5 21 42.5 35s14.833 24 17.5 30l69 -9c-2 -6 -5.16699 -14.167 -9.5 -24.5s-10.5 -21.166 -18.5 -32.499s-18.333 -22.166 -31 -32.499s-28 -19.166 -46 -26.499c-7.33301 -3.33301 -17.833 -6.66602 -31.5 -9.99902s-30.5 -5 -50.5 -5
c-7.33301 0 -17.333 0.666992 -30 2s-26.5 4.33301 -41.5 9s-30.5 12 -46.5 22s-31 23.333 -45 40c-6.66699 8 -13.334 17.667 -20.001 29s-12.834 24.5 -18.501 39.5s-10.167 32.167 -13.5 51.5s-5 41 -5 65c0 6.66699 0.5 19.667 1.5 39s4.83301 41.166 11.5 65.499
s17.334 49 32.001 74s35.334 45.833 62.001 62.5c22.667 14.667 44.167 23.334 64.5 26.001s35.166 4 44.499 4c26 0 48.667 -3.83301 68 -11.5s35.833 -16.834 49.5 -27.501s24.667 -21.834 33 -33.501s14.833 -21.5 19.5 -29.5c12 -23.333 20.5 -48.833 25.5 -76.5
s7.5 -54.167 7.5 -79.5v-20h-343z" />
    <glyph glyph-name="f" unicode="f" horiz-adv-x="302" 
d="M289 502l0.00195312 -60h-122v-442h-78v442h-71v60h71v33c0 14.667 0.166992 29.667 0.5 45s2.16602 30 5.49902 44s8.66602 27.333 15.999 40s18 24 32 34c16 10.667 31.5 17.167 46.5 19.5s26.167 3.5 33.5 3.5s17.833 -1 31.5 -3s29.5 -6.33301 47.5 -13v-68
c-4 2 -12.667 5.5 -26 10.5s-27.666 7.5 -42.999 7.5c-3.33301 0 -9.33301 -0.5 -18 -1.5s-17 -4.83301 -25 -11.5c-11.333 -10 -18.333 -23 -21 -39s-4.33398 -38.333 -5.00098 -67v-34h125z" />
    <glyph glyph-name="g" unicode="g" horiz-adv-x="510" 
d="M254 20c-49.333 1.33301 -87.6699 -5.83398 -115.003 -21.501s-41 -37.5 -41 -65.5c0 -16.667 5.33301 -30.667 16 -42s23.834 -20.333 39.501 -27s32.834 -11.5 51.501 -14.5s36.334 -4.5 53.001 -4.5c6 0 15.667 0.5 29 1.5s27.666 3.16699 42.999 6.5
c10 2.66699 19.833 6.16699 29.5 10.5s18.334 9.83301 26.001 16.5s14 14.334 19 23.001s7.5 18.667 7.5 30c0 7.33301 -1.83301 17 -5.5 29s-13.167 22.667 -28.5 32c-10 6.66699 -22 11.834 -36 15.501s-27.333 6.16699 -40 7.5s-23.667 2.16602 -33 2.49902
s-14.333 0.5 -15 0.5zM247.996 449c-30.667 -1.33301 -55.832 -12 -75.499 -32s-29.5 -46 -29.5 -78c0 -4 0.666992 -11 2 -21s4.66602 -20.333 9.99902 -31c6.66699 -12 14.667 -21.5 24 -28.5s18.833 -12.167 28.5 -15.5s18.5 -5.5 26.5 -6.5s14 -1.5 18 -1.5
c18 0.666992 33 3.66699 45 9s20.667 10 26 14c8 6.66699 14.5 14 19.5 22s8.66699 15.833 11 23.5s3.83301 14.667 4.5 21s1 10.833 1 13.5c0 4 -0.5 10 -1.5 18s-3.16699 16.667 -6.5 26c-2 6 -5.33301 13 -10 21s-11 15.5 -19 22.5s-18 12.833 -30 17.5
s-26.667 6.66699 -44 6zM487.998 446l-101.999 1.99707c0.666992 -1.33301 2.16699 -3.16602 4.5 -5.49902s4.83301 -5.16602 7.5 -8.49902c7.33301 -10 13 -20.167 17 -30.5s7 -20.166 9 -29.499s3.33301 -17.666 4 -24.999s1 -13 1 -17s-0.333008 -10 -1 -18
s-2.33398 -17 -5.00098 -27s-6.83398 -20.333 -12.501 -31s-13.5 -20.667 -23.5 -30c-12 -11.333 -27.5 -20.666 -46.5 -27.999s-45.167 -14.666 -78.5 -21.999l-38.5 -8.5c-13 -3 -25.167 -7.16699 -36.5 -12.5c-0.666992 0 -2.5 -0.833008 -5.5 -2.5
s-6.16699 -3.83398 -9.5 -6.50098s-6.5 -6 -9.5 -10s-4.5 -8.66699 -4.5 -14c0.666992 -13.333 8.33398 -21.333 23.001 -24s32 -5 52 -7c23.333 -2.66699 46.5 -5 69.5 -7s45.833 -6 68.5 -12c20 -5.33301 38 -12.333 54 -21s29.667 -22.334 41 -41.001
c3.33301 -5.33301 7.16602 -14.166 11.499 -26.499s6.5 -27.166 6.5 -44.499c0 -6 -0.833008 -15.333 -2.5 -28s-6.5 -26 -14.5 -40c-10 -17.333 -23.333 -31.666 -40 -42.999s-34.667 -20.333 -54 -27s-39.166 -11.167 -59.499 -13.5s-39.5 -3.5 -57.5 -3.5
c-4 0 -12.5 0.333008 -25.5 1s-28.167 2.5 -45.5 5.5s-35.5 7.83301 -54.5 14.5s-36.5 16 -52.5 28c-21.333 16.667 -34.666 34.167 -39.999 52.5s-8 32.833 -8 43.5c0 22.667 4.5 41.5 13.5 56.5s19.5 27.167 31.5 36.5s23.833 16.333 35.5 21l25.5 10
c-3.33301 1.33301 -6.33301 2.66602 -9 3.99902s-5.66699 2.66602 -9 3.99902c-2 1.33301 -5 3.16602 -9 5.49902s-8 5.5 -12 9.5s-7.5 9 -10.5 15s-4.5 13 -4.5 21c0.666992 8.66699 2.33398 15.834 5.00098 21.501s5 9.5 7 11.5c8 11.333 20.167 20.833 36.5 28.5
s30.166 13.834 41.499 18.501l-18 8c-6 2.66699 -11.667 5.66699 -17 9c-6.66699 4 -13.667 9.5 -21 16.5s-14.333 15.667 -21 26s-12.167 22.5 -16.5 36.5s-6.5 30.333 -6.5 49c0 13.333 1.16699 26.166 3.5 38.499s6.16602 24.833 11.499 37.5
c4.66699 10 11.334 20.667 20.001 32s19.667 21.666 33 30.999s29.666 17.166 48.999 23.499s42 9.5 68 9.5c18.667 0 34.5 -1.5 47.5 -4.5s23.167 -5.5 30.5 -7.5l153 5v-56z" />
    <glyph glyph-name="h" unicode="h" horiz-adv-x="531" 
d="M151 710l0.000976562 -266.003l9.5 12c3.66699 4.66699 8.5 10 14.5 16c9.33301 8 23.666 17.333 42.999 28s45.333 16 78 16c4.66699 0 12.5 -0.5 23.5 -1.5s23.167 -3.66699 36.5 -8s26.833 -10.833 40.5 -19.5s25.5 -20.667 35.5 -36
c6 -8.66699 10.667 -18.167 14 -28.5s5.83301 -21.833 7.5 -34.5s2.66699 -27.167 3 -43.5s0.5 -35.166 0.5 -56.499v-288h-74v321c-0.666992 32.667 -4.5 57.334 -11.5 74.001s-17.833 29.667 -32.5 39c-12 8 -23.5 12.667 -34.5 14s-18.833 2 -23.5 2
c-14.667 0 -27.834 -2 -39.501 -6s-21.667 -8.66699 -30 -14s-15.166 -11.166 -20.499 -17.499s-9.66602 -11.833 -12.999 -16.5c-12 -18.667 -19.333 -38 -22 -58s-4.33398 -40.667 -5.00098 -62v-276h-74v710h74z" />
    <glyph glyph-name="i" unicode="i" horiz-adv-x="234" 
d="M115 716c5.33301 0.666992 10.334 0.333008 15.001 -1s7.66699 -2.33301 9 -3c7.33301 -2.66699 13.166 -6.5 17.499 -11.5s7.5 -10 9.5 -15s3.33301 -9.83301 4 -14.5s1 -8 1 -10c0 -15.333 -5.16699 -28 -15.5 -38s-23.166 -15 -38.499 -15
c-7.33301 0 -14.5 1.33301 -21.5 4s-12.833 6.66699 -17.5 12c-6.66699 6.66699 -10.834 13.834 -12.501 21.501s-2.5 13.167 -2.5 16.5c0 6.66699 0.833008 12.167 2.5 16.5s3.16699 7.83301 4.5 10.5c6.66699 11.333 15 18.666 25 21.999s16.667 5 20 5zM156.001 501.999
v-502h-78v502h78z" />
    <glyph glyph-name="j" unicode="j" horiz-adv-x="266" 
d="M148 716c16 0.666992 29.165 -4.16699 39.498 -14.5s15.5 -23.833 15.5 -40.5c0 -15.333 -5 -28 -15 -38s-22.667 -15 -38 -15c-5.33301 0 -10.333 0.666992 -15 2s-7.66699 2.33301 -9 3c-13.333 6 -21.666 14.333 -24.999 25s-5 18.667 -5 24
c0 3.33301 0.666992 7.83301 2 13.5s3.83301 11.5 7.5 17.5s8.83398 11.167 15.501 15.5s15.667 6.83301 27 7.5zM188.998 501.999l-0.00390625 -457.999c0 -19.333 -0.166992 -36.333 -0.5 -51s-1 -27.667 -2 -39s-2.5 -21.833 -4.5 -31.5s-5 -19.167 -9 -28.5
c-10 -24.667 -23.667 -43.334 -41 -56.001s-35.166 -21.667 -53.499 -27s-35.166 -8.16602 -50.499 -8.49902s-26 -0.5 -32 -0.5h-25v66c9.33301 -0.666992 19.333 -0.833984 30 -0.500977s21.334 1.5 32.001 3.5s20.667 5.16699 30 9.5s17.333 10.5 24 18.5
c12 14 18.833 32.5 20.5 55.5s2.83398 52.833 3.50098 89.5v458h78z" />
    <glyph glyph-name="k" unicode="k" horiz-adv-x="510" 
d="M152 710v-710h-74v710h74zM455 502l-209 -226l225 -276h-102l-215 273l211 229h90z" />
    <glyph glyph-name="l" unicode="l" horiz-adv-x="234" 
d="M156 710v-710h-78v710h78z" />
    <glyph glyph-name="m" unicode="m" horiz-adv-x="812" 
d="M139 502c4 -11.333 6.66797 -22.498 8.00098 -33.498s2 -22.833 2 -35.5c1.33301 2.66699 4.16602 7.5 8.49902 14.5s9.5 13.833 15.5 20.5c15.333 17.333 33.833 29.666 55.5 36.999s43.834 11 66.501 11c3.33301 0 8.33301 -0.166992 15 -0.5s14 -1.16602 22 -2.49902
s16.667 -3.66602 26 -6.99902s18.333 -8 27 -14c5.33301 -3.33301 10.166 -7.16602 14.499 -11.499l8.5 -8.5c7.33301 -9.33301 13 -18 17 -26s6.66699 -13.667 8 -17c5.33301 8 11.833 17.167 19.5 27.5s17.5 19.833 29.5 28.5s26.667 16 44 22s38.333 9 63 9
c5.33301 0 12.833 -0.333008 22.5 -1s20.834 -3 33.501 -7c21.333 -6.66699 37.666 -15.667 48.999 -27s19 -21 23 -29c6 -10 10.333 -21 13 -33s4.5 -24.5 5.5 -37.5s1.5 -25.667 1.5 -38v-35.5v-308h-74v345c-1.33301 26 -5.16602 45.667 -11.499 59
s-15.166 23.666 -26.499 30.999c-12 7.33301 -23.833 11.666 -35.5 12.999s-19.834 2 -24.501 2c-20 0 -38.333 -3.66699 -55 -11s-30.667 -19.666 -42 -36.999c-10.667 -16 -17.167 -32.833 -19.5 -50.5s-3.5 -35.834 -3.5 -54.501v-297h-74v335
c0 20.667 -2.33301 40.167 -7 58.5s-17 33.166 -37 44.499c-5.33301 3.33301 -12 6.16602 -20 8.49902s-18.667 3.5 -32 3.5c-4 0 -10.333 -0.5 -19 -1.5s-17.834 -3.33301 -27.501 -7s-19.334 -9.16699 -29.001 -16.5s-18.167 -17.333 -25.5 -30
c-11.333 -20.667 -17.666 -41 -18.999 -61s-2 -33.667 -2 -41v-293h-74v347v54c0 14.667 -0.333008 27.5 -1 38.5s-2 21.333 -4 31s-4.66699 20.167 -8 31.5h73z" />
    <glyph glyph-name="n" unicode="n" horiz-adv-x="531" 
d="M134 502c3.33301 -9.33301 5.99902 -18.834 7.99902 -28.501s3 -24.167 3 -43.5c4.66699 8 10.834 16.833 18.501 26.5s17.5 19 29.5 28s26.667 16.5 44 22.5s37.666 9 60.999 9c8 0 19.333 -0.833008 34 -2.5s29.834 -6.16699 45.501 -13.5s30.334 -18.333 44.001 -33
s23.5 -35 29.5 -61c3.33301 -14 5.33301 -29.667 6 -47s1 -41 1 -71v-288h-74v284c0 32.667 -1 58.667 -3 78s-7.33301 35.666 -16 48.999c-5.33301 8.66699 -14.333 17.334 -27 26.001s-31 13 -55 13c-21.333 0 -40.833 -4.16699 -58.5 -12.5
s-32.834 -21.166 -45.501 -38.499c-13.333 -18 -21.5 -36.833 -24.5 -56.5s-4.83301 -40.167 -5.5 -61.5v-281h-74v331v59.5c0 15.667 -0.166992 29.5 -0.5 41.5s-1.33301 23.333 -3 34s-4.16699 22.667 -7.5 36h70z" />
    <glyph glyph-name="o" unicode="o" horiz-adv-x="536" 
d="M125 251c0 -4 0.333984 -12.8369 1.00098 -26.5039s3.16699 -29.167 7.5 -46.5s11 -35.166 20 -53.499s21.833 -34.166 38.5 -47.499c5.33301 -4.66699 14.5 -10.334 27.5 -17.001s29.167 -10 48.5 -10c7.33301 0 17 1 29 3s25 7.66699 39 17
c9.33301 6 18.333 14.167 27 24.5s16.667 23 24 38s13.166 32.333 17.499 52s6.5 42.167 6.5 67.5c0 4.66699 -0.333008 13.834 -1 27.501s-3.16699 29.334 -7.5 47.001s-11 35.5 -20 53.5s-22.167 33.667 -39.5 47c-6 5.33301 -15 11 -27 17s-28 9 -48 9
c-19.333 0 -35.333 -3.16699 -48 -9.5s-22 -11.833 -28 -16.5c-16.667 -13.333 -29.5 -29.166 -38.5 -47.499s-15.667 -36.333 -20 -54s-6.83301 -33.5 -7.5 -47.5s-1 -23 -1 -27zM49.001 251.996c0 22 1.99609 43.9951 5.99609 65.9951s10.167 43 18.5 63
s19.333 38.833 33 56.5s29.834 32.834 48.501 45.501c9.33301 6 23.5 13 42.5 21s42.5 12 70.5 12c25.333 0 46.833 -3.16699 64.5 -9.5s30.5 -12.166 38.5 -17.499c28 -16 49.833 -35.833 65.5 -59.5s27.334 -47.5 35.001 -71.5s12.167 -45.833 13.5 -65.5s2 -33.5 2 -41.5
c0 -21.333 -2 -43.166 -6 -65.499s-10.167 -43.666 -18.5 -63.999s-19.166 -39.333 -32.499 -57s-29.666 -32.5 -48.999 -44.5c-11.333 -7.33301 -22.833 -13.166 -34.5 -17.499s-22.5 -7.66602 -32.5 -9.99902s-19 -3.83301 -27 -4.5s-14.333 -1 -19 -1
c-8 0 -21.167 1.16699 -39.5 3.5s-37.833 9.16602 -58.5 20.499c-22 12 -40.667 26.833 -56 44.5s-27.833 37.167 -37.5 58.5s-16.667 43.833 -21 67.5s-6.5 47.167 -6.5 70.5z" />
    <glyph glyph-name="p" unicode="p" horiz-adv-x="536" 
d="M288 52c14.667 0 26.502 1.8291 35.502 5.49609s16.167 7.16699 21.5 10.5c18 12 33.833 32.833 47.5 62.5s20.5 69.167 20.5 118.5c0 2.66699 -0.166992 10.167 -0.5 22.5s-2 26.833 -5 43.5s-7.83301 34 -14.5 52s-16 34 -28 48
c-14.667 17.333 -29.334 27.833 -44.001 31.5s-26.667 5.5 -36 5.5c-23.333 0 -44 -6 -62 -18c-18.667 -12 -35.5 -32.833 -50.5 -62.5s-22.5 -69.5 -22.5 -119.5c0 -4 0.166992 -12.833 0.5 -26.5s2.5 -29.167 6.5 -46.5s10.333 -35.166 19 -53.499s21 -34.166 37 -47.499
c6 -5.33301 15.167 -11.166 27.5 -17.499s28.166 -9.16602 47.499 -8.49902zM77.002 352.996l0.00292969 51.4971c0 14.333 -0.333008 27 -1 38s-1.66699 21.167 -3 30.5s-3.33301 19 -6 29h73c2 -6 3.5 -11.333 4.5 -16s1.83301 -9.5 2.5 -14.5s1 -10.667 1 -17
s0.333008 -14.833 1 -25.5c4 7.33301 9.5 15.833 16.5 25.5s16.167 19.167 27.5 28.5s25 17.166 41 23.499s35 9.5 57 9.5c15.333 0 30.166 -1.66699 44.499 -5s28.166 -8.66602 41.499 -15.999s26.666 -17.666 39.999 -30.999s25.333 -30 36 -50s19.334 -43.5 26.001 -70.5
s10 -58.167 10 -93.5c0 -18 -1 -36 -3 -54s-5.33301 -35.667 -10 -53c-2 -8 -6.5 -20.667 -13.5 -38s-17.5 -34.666 -31.5 -51.999s-32 -32.666 -54 -45.999s-49 -20 -81 -20c-6 0 -13.333 0.333008 -22 1s-18.334 2.5 -29.001 5.5s-21.667 7.66699 -33 14
s-22.333 14.833 -33 25.5c-7.33301 7.33301 -13.333 14.5 -18 21.5s-8 12.167 -10 15.5v-279h-74v562z" />
    <glyph glyph-name="q" unicode="q" horiz-adv-x="536" 
d="M250 52c4.66699 -0.666992 11.834 -0.328125 21.501 1.00488s20.167 5 31.5 11c10.667 5.33301 21 13.166 31 23.499s19 23.166 27 38.499s14.333 33.333 19 54s7 44.334 7 71.001c0 4 -0.333008 12.167 -1 24.5s-2.5 26.666 -5.5 42.999s-8 33.166 -15 50.499
s-17.167 33 -30.5 47c-22 24 -49 36 -81 36c-6.66699 0 -16 -1.16699 -28 -3.5s-24.667 -8.83301 -38 -19.5c-16.667 -12.667 -29.334 -28.834 -38.001 -48.501s-15 -39 -19 -58s-6.33301 -35.667 -7 -50s-1 -22.833 -1 -25.5c0 -14 0.833008 -28.667 2.5 -44
s4.5 -30.333 8.5 -45s9.5 -28.667 16.5 -42s15.833 -25 26.5 -35c5.33301 -5.33301 14 -11.333 26 -18s27.667 -10.334 47 -11.001zM386 69.0059c-4 -6 -9.66602 -13.666 -16.999 -22.999s-16.5 -18.333 -27.5 -27s-24.167 -16.167 -39.5 -22.5s-33.666 -9.5 -54.999 -9.5
c-9.33301 0 -23 1.5 -41 4.5s-37.333 11.167 -58 24.5c-25.333 16 -44.833 36 -58.5 60s-23.667 47.667 -30 71s-10 44.333 -11 63s-1.5 31 -1.5 37c0 20.667 1.66699 42.167 5 64.5s8.66602 44 15.999 65s17.166 40.833 29.499 59.5s27.5 34.334 45.5 47.001
c21.333 15.333 42 24.666 62 27.999s34.667 5 44 5c16 0 30.333 -1.66699 43 -5s23.834 -7.66602 33.501 -12.999s17.667 -10.833 24 -16.5s11.5 -11.167 15.5 -16.5c5.33301 -6.66699 9.5 -12.334 12.5 -17.001s6.16699 -10.667 9.5 -18c0 13.333 0.666992 25.666 2 36.999
s3.66602 23 6.99902 35h73c-1.33301 -4 -2.33301 -7.83301 -3 -11.5l-2 -11.5c-2 -13.333 -3.16699 -30 -3.5 -50s-0.833008 -45.333 -1.5 -76v-562h-73v278z" />
    <glyph glyph-name="r" unicode="r" horiz-adv-x="349" 
d="M142 502c6 -26 9 -51.3311 9 -75.998v-15.5c0 -5 -0.333008 -10.167 -1 -15.5c19.333 44.667 39.5 76 60.5 94s44.5 27 70.5 27c11.333 0 21.666 -1.33301 30.999 -4s19 -6.66699 29 -12v-74c-3.33301 1.33301 -11.666 5 -24.999 11s-27.666 9 -42.999 9
c-14 0 -26.5 -3.16699 -37.5 -9.5s-20.333 -13.5 -28 -21.5s-13.834 -15.833 -18.501 -23.5s-7.66699 -12.834 -9 -15.501c-12 -24 -19 -48.667 -21 -74s-3.33301 -51 -4 -77v-225h-75v329v61.5c0 15 -0.333008 28.167 -1 39.5s-1.5 22.166 -2.5 32.499s-2.5 23.5 -4.5 39.5
h70z" />
    <glyph glyph-name="s" unicode="s" horiz-adv-x="464" 
d="M338 365c-0.666992 2 -1.33203 6.50293 -1.99902 13.5029s-2.33398 13.833 -5.00098 20.5c-5.33301 15.333 -13.5 26.833 -24.5 34.5s-23.833 13.167 -38.5 16.5c-6.66699 1.33301 -12.167 2.33301 -16.5 3s-10.166 1 -17.499 1c-2 0 -6.5 -0.166992 -13.5 -0.5
s-14.667 -1.66602 -23 -3.99902s-16.833 -6 -25.5 -11s-16 -12.167 -22 -21.5c-5.33301 -8 -8.5 -15.5 -9.5 -22.5s-1.5 -12.5 -1.5 -16.5c0 -10.667 2 -19.5 6 -26.5s8.83301 -12.833 14.5 -17.5s11.167 -8.33398 16.5 -11.001l12 -6
c25.333 -10.667 51.166 -19.334 77.499 -26.001s52.166 -15.667 77.499 -27c7.33301 -3.33301 15.333 -7.83301 24 -13.5s16.667 -13 24 -22s13.666 -20.333 18.999 -34s8 -30.167 8 -49.5c0 -26.667 -4.83301 -50 -14.5 -70s-22.667 -36.5 -39 -49.5
s-35.333 -22.667 -57 -29s-44.834 -9.5 -69.501 -9.5c-3.33301 0 -9.66602 0.166992 -18.999 0.5s-20.166 1.5 -32.499 3.5s-25.166 5.16699 -38.499 9.5s-26 10.5 -38 18.5c-18 12 -32.167 27.667 -42.5 47s-16.833 39.333 -19.5 60
c-0.666992 5.33301 -1.16699 9.66602 -1.5 12.999s-0.166016 9 0.500977 17h71c0 -2 0.666992 -7.66699 2 -17s3.66602 -18.333 6.99902 -27c6 -15.333 14.333 -27.333 25 -36s21.5 -15 32.5 -19s21.333 -6.33301 31 -7s16.5 -1 20.5 -1c3.33301 0 8.5 0.166992 15.5 0.5
s14.833 1.66602 23.5 3.99902s17.667 6.16602 27 11.499s17.333 12.666 24 21.999c3.33301 4 6.83301 10.167 10.5 18.5s5.5 18.833 5.5 31.5c0 12 -2.33301 23 -7 33c-6 11.333 -15.167 20.5 -27.5 27.5s-30.166 14.167 -53.499 21.5
c-11.333 4 -23.666 7.83301 -36.999 11.5s-26.5 7.83398 -39.5 12.501s-25.667 9.83398 -38 15.501s-23.166 12.167 -32.499 19.5c-10 8 -18 16.833 -24 26.5s-10.333 19 -13 28s-4.33398 17.333 -5.00098 25s-1 13.5 -1 17.5c0 14.667 1.66699 27 5 37s6 17.667 8 23
c4.66699 9.33301 11.167 18.666 19.5 27.999s19 18 32 26s28.333 14.5 46 19.5s38.167 7.5 61.5 7.5c5.33301 0 14.666 -0.5 27.999 -1.5s28.166 -4.16699 44.499 -9.5s32.5 -13.666 48.5 -24.999s28.667 -27.333 38 -48c6.66699 -14 10.667 -27.5 12 -40.5
s2 -22.167 2 -27.5z" />
    <glyph glyph-name="t" unicode="t" horiz-adv-x="333" 
d="M299 502l-1.00098 -59.999h-120l-4 -255c-0.666992 -12 -1 -24 -1 -36v-37c0.666992 -16.667 2.66699 -27.667 6 -33c3.33301 -6.66699 7.33301 -11.667 12 -15s9.5 -5.83301 14.5 -7.5s9.66699 -2.66699 14 -3s7.5 -0.5 9.5 -0.5c6 0 15.833 1 29.5 3
s28.167 6.66699 43.5 14l-1 -66c-16 -5.33301 -30.5 -9.33301 -43.5 -12s-28.167 -4 -45.5 -4c-33.333 0 -58.166 5.83301 -74.499 17.5s-27.5 24.5 -33.5 38.5c-2.66699 6.66699 -4.66699 15 -6 25s-2 22.667 -2 38c0 13.333 0.333008 26.666 1 39.999l2 40l6 253h-76l1 60
h76l3 145h73l-3 -145h120z" />
    <glyph glyph-name="u" unicode="u" horiz-adv-x="526" 
d="M148 502l-0.00585938 -307c0 -12 0.333008 -24.5 1 -37.5s2.5 -25.167 5.5 -36.5s8 -22 15 -32s16.833 -18 29.5 -24c11.333 -5.33301 22 -8.66602 32 -9.99902s17.333 -2 22 -2c6 0 16 1.33301 30 4s28.333 9.66699 43 21c3.33301 2.66699 7.33301 6.5 12 11.5
s9.66699 11.5 15 19.5c10.667 16.667 16.834 34.167 18.501 52.5s2.83398 36.833 3.50098 55.5v285h74v-350v-53c0 -14 0.166992 -26.333 0.5 -37s1.33301 -20.667 3 -30s4.16699 -20 7.5 -32h-72c-4 12.667 -6.66699 23.667 -8 33s-2.33301 20.666 -3 33.999
c-4 -8 -9.16699 -16.667 -15.5 -26s-14.666 -18 -24.999 -26s-23.166 -14.667 -38.499 -20s-33.666 -8 -54.999 -8c-15.333 0 -28.666 1.33301 -39.999 4l-25 6c-15.333 5.33301 -28.5 12.166 -39.5 20.499s-20.167 16.833 -27.5 25.5s-13 17 -17 25s-7 15 -9 21
c-2 6.66699 -3.66699 13.334 -5 20.001s-2.5 14 -3.5 22s-1.66699 17.167 -2 27.5s-0.5 22.5 -0.5 36.5v307h74z" />
    <glyph glyph-name="v" unicode="v" horiz-adv-x="458" 
d="M89 502l141 -421l140 421h76l-178 -508h-79l-178 508h78z" />
    <glyph glyph-name="w" unicode="w" horiz-adv-x="698" 
d="M92 502l107 -398l118 398h64l117 -398l108 398h77l-146 -508h-73l-116 394l-115 -394h-73l-145 508h77z" />
    <glyph glyph-name="x" unicode="x" horiz-adv-x="469" 
d="M120 502l115 -179l116 179h91l-161 -235l181 -267h-90l-137 208l-139 -208h-89l183 267l-157 235h87z" />
    <glyph glyph-name="y" unicode="y" horiz-adv-x="464" 
d="M96 502l137 -418l141 418h77l-165 -467l-21 -59.5c-6 -17 -11.833 -32.333 -17.5 -46s-11.5 -25.667 -17.5 -36s-12.667 -20.5 -20 -30.5c-15.333 -20 -31.833 -35.167 -49.5 -45.5s-35 -17.666 -52 -21.999s-32.667 -6.5 -47 -6.5h-33.5l1 66h21
c12 0 23.333 1.33301 34 4c14 2.66699 26 7.16699 36 13.5s19 14.666 27 24.999s15.333 23.5 22 39.5s14 35.333 22 58l-174 507h79z" />
    <glyph glyph-name="z" unicode="z" horiz-adv-x="422" 
d="M400 502v-54l-289 -386h283v-62h-370v58l284 383h-262v61h354z" />
    <glyph glyph-name="braceleft" unicode="{" horiz-adv-x="354" 
d="M152 583c0.666992 24 3.66016 47.3262 8.99316 69.9932s17.333 42.667 36 60c8.66699 7.33301 17.334 13 26.001 17s14.667 6.66699 18 8c9.33301 3.33301 21.333 5.5 36 6.5s26.667 2.16699 36 3.5v-6c-15.333 -4 -29.166 -8.83301 -41.499 -14.5
s-23.166 -15.5 -32.499 -29.5c-12.667 -18 -19.5 -37.833 -20.5 -59.5s-1.5 -42.5 -1.5 -62.5v-99v-52.5c0 -17.667 -0.666992 -35.167 -2 -52.5c0 -1.33301 -0.166992 -5.16602 -0.5 -11.499s-1.16602 -13.833 -2.49902 -22.5s-3.5 -17.667 -6.5 -27
s-7.16699 -17.666 -12.5 -24.999c-7.33301 -10.667 -15.5 -18.667 -24.5 -24s-19.167 -10 -30.5 -14c4.66699 -1.33301 11.334 -3.83301 20.001 -7.5s17.667 -10.167 27 -19.5s16.166 -19.833 20.499 -31.5s7.33301 -25.167 9 -40.5s2.66699 -32.5 3 -51.5
s0.5 -40.833 0.5 -65.5v-111c0 -28.667 0.833008 -50.5 2.5 -65.5s5.83398 -29.167 12.501 -42.5c9.33301 -18.667 20.5 -31.667 33.5 -39s28.5 -13.666 46.5 -18.999v-5c-5.33301 0.666992 -10.666 1.16699 -15.999 1.5s-10.666 0.833008 -15.999 1.5
c-4 0 -9.33301 0.333008 -16 1s-14.167 2.33398 -22.5 5.00098s-17.166 6.33398 -26.499 11.001s-18 11.334 -26 20.001c-10 10 -17.5 21.333 -22.5 34s-8.66699 25.834 -11 39.501s-3.66602 27.334 -3.99902 41.001s-0.5 26.834 -0.5 39.501v163c0 18.667 -1 37.667 -3 57
s-9 37 -21 53c-8 10.667 -16 18 -24 22s-14.667 6.66699 -20 8v5c4 1.33301 10.333 3.66602 19 6.99902s16.667 9.66602 24 18.999c6.66699 8 11.667 17.833 15 29.5s5.66602 24 6.99902 37s2.16602 25.667 2.49902 38s0.5 22.833 0.5 31.5v169z" />
    <glyph glyph-name="bar" unicode="|" horiz-adv-x="229" 
d="M85 -250v998h59v-998h-59z" />
    <glyph glyph-name="braceright" unicode="}" horiz-adv-x="354" 
d="M203 -43c-0.666992 -7.33301 -0.99707 -14.498 -0.99707 -21.498v-21.5c-0.666992 -23.333 -3.66699 -46.333 -9 -69s-17.333 -42.667 -36 -60c-8.66699 -8 -17.334 -14 -26.001 -18s-14.667 -6.66699 -18 -8c-9.33301 -3.33301 -21.333 -5.5 -36 -6.5l-36 -2.5v5
c15.333 4 29.166 9 41.499 15s23.166 15.667 32.499 29c12.667 18 19.5 38 20.5 60s1.5 42.667 1.5 62v100v52.5c0 17.667 0.666992 35.167 2 52.5c0.666992 14.667 2.33398 29.5 5.00098 44.5s8.33398 28.833 17.001 41.5c9.33301 13.333 19.666 22.5 30.999 27.5
s19.333 8.16699 24 9.5c-4.66699 1.33301 -11.334 4 -20.001 8s-17.334 10.667 -26.001 20c-9.33301 9.33301 -16.333 19.833 -21 31.5s-7.83398 25 -9.50098 40s-2.66699 32.167 -3 51.5s-0.5 41 -0.5 65v152c0 3.33301 -0.333008 9.16602 -1 17.499
s-2.5 17.666 -5.5 27.999s-7.5 20.666 -13.5 30.999s-14.667 19.5 -26 27.5c-7.33301 5.33301 -15.166 9.5 -23.499 12.5s-16.833 5.83301 -25.5 8.5v6c5.33301 -0.666992 10.5 -1.16699 15.5 -1.5s10.167 -0.833008 15.5 -1.5c4 -0.666992 9.5 -1.33398 16.5 -2.00098
s15 -2.33398 24 -5.00098s18.167 -6.66699 27.5 -12s18.333 -12.666 27 -21.999c9.33301 -10 16.333 -21.167 21 -33.5s8 -25.166 10 -38.499s3.16699 -26.666 3.5 -39.999s0.5 -26.333 0.5 -39v-162c0 -18.667 1 -37.667 3 -57s9 -37 21 -53c8 -10.667 16 -18 24 -22
s14.667 -7 20 -9v-5c-3.33301 -1.33301 -9.5 -3.5 -18.5 -6.5s-17.167 -9.16699 -24.5 -18.5c-6.66699 -8 -11.667 -18 -15 -30s-5.66602 -24.333 -6.99902 -37s-2 -25.167 -2 -37.5v-32.5v-126z" />
    <glyph glyph-name="asciitilde" unicode="~" horiz-adv-x="729" 
d="M341 269l-10.4961 4.99902c-5.66699 2.66699 -12.334 5.5 -20.001 8.5s-16 5.66699 -25 8s-18.167 3.5 -27.5 3.5c-11.333 0 -21.333 -1.83301 -30 -5.5s-16.5 -8.66699 -23.5 -15s-13.5 -13.333 -19.5 -21l-18 -23.5l-33 55c2.66699 4 7.16699 10.333 13.5 19
s14.666 17.5 24.999 26.5s22.666 16.833 36.999 23.5s30.5 10 48.5 10c15.333 0 31.166 -2.66699 47.499 -8s38.166 -14.666 65.499 -27.999l32 -14c16.667 -7.33301 29.167 -12.5 37.5 -15.5s17.5 -4.5 27.5 -4.5c12.667 0.666992 23.834 3.16699 33.501 7.5
s19.5 10.833 29.5 19.5c4 3.33301 7.83301 6.83301 11.5 10.5l10.5 10.5l5.5 7.5l5.5 7.5l31 -55c-24.667 -31.333 -47.334 -52 -68.001 -62s-40.667 -15 -60 -15c-7.33301 0 -14.333 0.5 -21 1.5s-13.667 2.83301 -21 5.5s-15.666 6.16699 -24.999 10.5l-33 15.5z" />
    <glyph glyph-name="exclamdown" unicode="&#xa1;" horiz-adv-x="266" 
d="M133 380c-1.33301 0 -4.33301 0.168945 -9 0.501953s-9.66699 1.83301 -15 4.5c-11.333 4.66699 -20.5 12.167 -27.5 22.5s-10.5 21.166 -10.5 32.499c0 17.333 6 32 18 44s26.667 17.667 44 17c16.667 0 31 -5.83301 43 -17.5s18 -25.834 18 -42.501
c0 -17.333 -5.83301 -31.833 -17.5 -43.5s-26.167 -17.5 -43.5 -17.5zM92 -202.998l13 495h60l8 -495h-81z" />
    <glyph glyph-name="sterling" unicode="&#xa3;" horiz-adv-x="568" 
d="M401 392l0.00292969 -62h-169c-0.666992 -5.33301 -2.33398 -15.666 -5.00098 -30.999s-6.16699 -33.166 -10.5 -53.499s-9.5 -42.333 -15.5 -66s-13 -46.167 -21 -67.5c-5.33301 -14 -9.5 -24 -12.5 -30l-9.5 -20c12 2.66699 25.333 5 40 7s35 3 61 3
c18 0 35.833 -0.333008 53.5 -1s35.5 -1 53.5 -1c17.333 0.666992 30.5 2.16699 39.5 4.5s16.5 6.83301 22.5 13.5c5.33301 5.33301 10 13.5 14 24.5s6.33301 25.167 7 42.5h68c0 -3.33301 -0.166992 -8.33301 -0.5 -15s-1.16602 -14.334 -2.49902 -23.001
c-2 -16.667 -5.83301 -31.334 -11.5 -44.001s-12.167 -23.167 -19.5 -31.5s-14.833 -15.166 -22.5 -20.499s-14.834 -9 -21.501 -11c-13.333 -5.33301 -28 -8.33301 -44 -9s-31 -1 -45 -1h-292c1.33301 2.66699 2.83301 5.16699 4.5 7.5l4.5 6.5
c6.66699 12 12.834 24.667 18.501 38s11 28.166 16 44.499s10 35 15 56l16.5 72.5l10 52.5c3.33301 17.667 6.33301 35.167 9 52.5h-101v62h113c4 26.667 8.33301 52.667 13 78s9.66699 50.666 15 75.999c6.66699 28.667 13.334 52 20.001 70s13.667 32.333 21 43
c4 6 9.16699 12.333 15.5 19s14.333 13 24 19s21 11 34 15s28.167 6 45.5 6c4.66699 0 12 -0.333008 22 -1s21.333 -3.33398 34 -8.00098c32 -11.333 53.167 -29.333 63.5 -54s16.166 -52 17.499 -82h-70c-0.666992 4.66699 -1.33398 11.334 -2.00098 20.001
s-3.16699 17.334 -7.5 26.001s-10.833 16.167 -19.5 22.5s-21.334 9.5 -38.001 9.5c-18.667 0 -33.334 -4.83301 -44.001 -14.5s-19 -22.834 -25 -39.501c-7.33301 -19.333 -14 -46.166 -20 -80.499l-21 -124.5h159z" />
    <glyph glyph-name="currency" unicode="&#xa4;" horiz-adv-x="667" 
d="M529 340c0 5.33301 -0.332031 12.332 -0.999023 20.999s-2.16699 18.334 -4.5 29.001s-6.16602 22.167 -11.499 34.5s-12.666 24.5 -21.999 36.5c-4.66699 6 -11.334 13.333 -20.001 22s-19.5 17 -32.5 25s-28 14.833 -45 20.5s-36.5 8.5 -58.5 8.5c-28 0 -54 -5 -78 -15
s-44.833 -23.833 -62.5 -41.5s-31.5 -38.5 -41.5 -62.5s-15 -50 -15 -78s5.16699 -54.167 15.5 -78.5s24.5 -45.333 42.5 -63s39 -31.5 63 -41.5s50 -15 78 -15c11.333 0 27.666 2 48.999 6s43.666 14.667 66.999 32c6.66699 5.33301 14.5 12.5 23.5 21.5s17.5 20 25.5 33
s14.667 28.167 20 45.5s8 37.333 8 60zM609.001 106.999l-46.002 -45.0029l-74 75l-13 -9.5c-4 -3 -8.66699 -6.16699 -14 -9.5c-18.667 -11.333 -39 -20 -61 -26s-44.333 -9 -67 -9c-6 0 -13.667 0.333008 -23 1s-19.666 2.16699 -30.999 4.5s-23.5 5.83301 -36.5 10.5
s-26.167 11 -39.5 19c-5.33301 3.33301 -10 6.5 -14 9.5l-13 9.5l-75 -73l-45 45l75 73l-16.5 24c-6.33301 9.33301 -12.333 20.5 -18 33.5s-10.5 28 -14.5 45s-6 35.833 -6 56.5s2 39.167 6 55.5s8.83301 30.833 14.5 43.5s11.667 23.667 18 33s11.833 17 16.5 23l-73 73
l45 45l73 -72c6 4.66699 13.667 10 23 16s20.5 11.833 33.5 17.5s27.833 10.5 44.5 14.5s35.334 6 56.001 6c11.333 0 29 -1.83301 53 -5.5s49 -13.167 75 -28.5c5.33301 -3.33301 10.166 -6.66602 14.499 -9.99902l13.5 -10l74 73l46 -46l-74 -74
c5.33301 -6 11 -13.667 17 -23s11.833 -20.333 17.5 -33s10.334 -27.167 14.001 -43.5s5.5 -34.833 5.5 -55.5c0 -31.333 -4 -57.666 -12 -78.999s-15 -36.666 -21 -45.999c-3.33301 -6 -6.83301 -11.667 -10.5 -17l-11.5 -16z" />
    <glyph glyph-name="section" unicode="&#xa7;" horiz-adv-x="531" 
d="M218 388c-18 -8 -32.332 -16.833 -42.999 -26.5s-18.334 -17.5 -23.001 -23.5c-2 -3.33301 -4.83301 -8.66602 -8.5 -15.999s-5.5 -16.666 -5.5 -27.999c0 -2.66699 0.5 -7.33398 1.5 -14.001s4.16699 -13.667 9.5 -21c8 -12.667 19.667 -24 35 -34
s36.333 -22.667 63 -38l65 -37l16 9c6 3.33301 13 8.66602 21 15.999c2.66699 2 6.16699 5.16699 10.5 9.5s8.5 9.5 12.5 15.5s7.5 13 10.5 21s4.5 17 4.5 27c0 7.33301 -0.833008 13.166 -2.5 17.499l-4.5 11.5c-7.33301 14.667 -18.5 26.834 -33.5 36.501
s-35.833 22.167 -62.5 37.5l-33 19zM381.001 524c-2 21.333 -7.00781 41.4941 -15.0078 60.4941s-23 33.167 -45 42.5l-20.5 6c-9 2.66699 -20.167 4 -33.5 4c-4 0 -10.167 -0.333008 -18.5 -1s-17.833 -3 -28.5 -7c-12.667 -4.66699 -22.834 -10.667 -30.501 -18
s-13.667 -15 -18 -23s-7.16602 -15.833 -8.49902 -23.5s-2 -13.834 -2 -18.501c0 -7.33301 1.5 -16.333 4.5 -27s10.833 -21.667 23.5 -33c13.333 -11.333 35.333 -25.166 66 -41.499s65.334 -36.166 104.001 -59.499c10.667 -5.33301 21.334 -12 32.001 -20
c4.66699 -2.66699 10.834 -7 18.501 -13s15 -13.5 22 -22.5s13.167 -19.667 18.5 -32s8 -26.833 8 -43.5c0 -9.33301 -1.5 -22 -4.5 -38s-12.167 -32.667 -27.5 -50c-10 -13.333 -22.333 -24.666 -37 -33.999c-3.33301 -2.66699 -7 -5 -11 -7s-8 -4.33301 -12 -7
c5.33301 -4 12 -9.5 20 -16.5s15.667 -15.667 23 -26s13.833 -22.666 19.5 -36.999s8.5 -30.833 8.5 -49.5c0 -16 -2.16699 -32.167 -6.5 -48.5s-11.166 -31.166 -20.499 -44.499c-18.667 -28 -42 -46.833 -70 -56.5s-58 -14.5 -90 -14.5c-8 0 -20.5 0.666992 -37.5 2
s-34.833 5.66602 -53.5 12.999s-36.5 18.833 -53.5 34.5s-29.5 37.834 -37.5 66.501c-3.33301 11.333 -5.5 22.166 -6.5 32.499s-1.5 21.166 -1.5 32.499h68c0.666992 -4 1.33398 -9.83301 2.00098 -17.5s2.33398 -16.167 5.00098 -25.5
c5.33301 -18.667 13.333 -33.167 24 -43.5s21.834 -17.833 33.501 -22.5s22.834 -7.5 33.501 -8.5s18.667 -1.5 24 -1.5c28.667 0 50.5 4.5 65.5 13.5s26.167 19.167 33.5 30.5s12 22.5 14 33.5s3 19.167 3 24.5c0 9.33301 -1.33301 17.666 -4 24.999s-4.66699 12.333 -6 15
c-9.33301 15.333 -23.166 29 -41.499 41s-34.833 22.333 -49.5 31c-15.333 9.33301 -31.166 18.5 -47.499 27.5s-32.166 18.167 -47.499 27.5l-38 25c-12.667 8.66699 -23.667 18.334 -33 29.001s-17 22.834 -23 36.501s-9 28.834 -9 45.501c0 20 3.5 37.167 10.5 51.5
s17.833 28.166 32.5 41.499c11.333 11.333 21.666 19.5 30.999 24.5s16.666 9.16699 21.999 12.5l-19.5 14.5c-8.33301 6.33301 -16.5 14.5 -24.5 24.5s-14.833 21.833 -20.5 35.5s-8.5 29.5 -8.5 47.5c0 26 6.33301 50 19 72c4.66699 8 11.167 16.833 19.5 26.5
s18.833 18.667 31.5 27s28 15.333 46 21s38.667 8.5 62 8.5c7.33301 0 18.666 -0.833008 33.999 -2.5s31.5 -6 48.5 -13s33.5 -17.667 49.5 -32s28.333 -34.166 37 -59.499c2.66699 -7.33301 5 -16.166 7 -26.499s3.66699 -24.166 5 -41.499h-68z" />
    <glyph glyph-name="dieresis" unicode="&#xa8;" 
d="M160 723c15.333 0 28.5 -5.49902 39.5 -16.499s16.5 -24.167 16.5 -39.5s-5.5 -28.5 -16.5 -39.5s-24.167 -16.5 -39.5 -16.5s-28.5 5.66699 -39.5 17s-16.5 24.666 -16.5 39.999s5.5 28.333 16.5 39s24.167 16 39.5 16zM-56 723.001
c15.333 0 28.5 -5.49902 39.5 -16.499s16.5 -24.167 16.5 -39.5s-5.5 -28.5 -16.5 -39.5s-24.167 -16.5 -39.5 -16.5s-28.5 5.66699 -39.5 17s-16.5 24.666 -16.5 39.999c0.666992 15.333 6.5 28.333 17.5 39s23.833 16 38.5 16z" />
    <glyph glyph-name="copyright" unicode="&#xa9;" horiz-adv-x="833" 
d="M567 455l-18.4961 21.0029c-7.66699 8.66699 -17.334 17 -29.001 25s-25.334 14.833 -41.001 20.5s-33.834 8.5 -54.501 8.5c-22.667 0 -44.834 -4.33301 -66.501 -13s-40.5 -21.334 -56.5 -38.001c-4 -4 -9 -9.66699 -15 -17s-11.5 -16.166 -16.5 -26.499
s-9.33301 -22.333 -13 -36s-5.5 -28.5 -5.5 -44.5c0 -22.667 4 -44 12 -64c12.667 -34 33.667 -61 63 -81s62 -30 98 -30c28 0 51.333 4.83301 70 14.5s31.667 17.5 39 23.5c6 4.66699 11 9.16699 15 13.5l19 21.5l42 -36l-6 -8c-2 -2.66699 -4.33301 -5.33398 -7 -8.00098
c-5.33301 -6 -13 -13.5 -23 -22.5s-22.333 -17.5 -37 -25.5s-31.5 -15 -50.5 -21s-40.5 -9 -64.5 -9c-8.66699 0 -21.334 1 -38.001 3s-35.667 7.66699 -57 17c-42.667 19.333 -75.5 47.666 -98.5 84.999s-34.5 79 -34.5 125c0 33.333 5.83301 64.166 17.5 92.499
s27.834 53 48.501 74s45.167 37.5 73.5 49.5s58.833 18 91.5 18c8 0 18.333 -0.666992 31 -2s26.167 -4.33301 40.5 -9s29.5 -11.5 45.5 -20.5s31.667 -21.167 47 -36.5c4 -4 7.83301 -8.16699 11.5 -12.5l10.5 -12.5zM740.004 352.003
c0 10 -0.666016 23.166 -1.99902 39.499s-4.83301 34.333 -10.5 54s-13.834 40.334 -24.501 62.001s-25.667 43.167 -45 64.5c-8.66699 9.33301 -19.834 20 -33.501 32s-30.5 23.333 -50.5 34s-42.833 19.834 -68.5 27.501s-54.834 11.5 -87.501 11.5
c-8.66699 0 -19.834 -0.5 -33.501 -1.5s-29 -3.66699 -46 -8s-35.167 -10.666 -54.5 -18.999s-38.666 -19.5 -57.999 -33.5c-10.667 -8 -23.667 -19.167 -39 -33.5s-30 -32.333 -44 -54s-25.833 -47 -35.5 -76s-14.5 -61.833 -14.5 -98.5c0 -42.667 8 -83.667 24 -123
c12 -30.667 28.333 -58.334 49 -83.001s44.167 -45.667 70.5 -63s55 -30.833 86 -40.5s62.833 -14.5 95.5 -14.5c23.333 0 43.333 1.83301 60 5.5s29.334 7.16699 38.001 10.5c34 10.667 64.667 26 92 46s50.833 43.5 70.5 70.5s34.834 56.667 45.501 89
s16 66.166 16 101.499zM773.005 351.002c0 -10.667 -0.830078 -24.1709 -2.49707 -40.5039s-5.33398 -34.5 -11.001 -54.5s-13.834 -41.167 -24.501 -63.5s-25 -44.5 -43 -66.5c-24 -28.667 -49.333 -51.5 -76 -68.5s-52.5 -30 -77.5 -39s-48.167 -14.833 -69.5 -17.5
s-38.666 -4 -51.999 -4c-47.333 0 -93.666 9.33301 -138.999 28c-34 14 -64.333 32.167 -91 54.5s-49.334 47.833 -68.001 76.5s-33 59.834 -43 93.501s-15 68.5 -15 104.5c0 29.333 2.83301 56.166 8.5 80.499s12.667 46 21 65s17.166 35.333 26.499 49
s17.666 24.834 24.999 33.501c9.33301 10.667 21.833 23.334 37.5 38.001s34.834 28.5 57.501 41.5s49 24.167 79 33.5s64 14 102 14c9.33301 0 21.666 -0.666992 36.999 -2s32.5 -4.16602 51.5 -8.49902s39 -11.166 60 -20.499s42.167 -22 63.5 -38
c12 -8.66699 26.167 -21 42.5 -37s32 -36 47 -60s27.667 -52 38 -84s15.5 -68 15.5 -108z" />
    <glyph glyph-name="guillemotleft" unicode="&#xab;" horiz-adv-x="406" 
d="M142 0l-95 247l95 255h54l-81 -255l81 -247h-54zM279 0l-96 247l96 255h54l-81 -255l81 -247h-54z" />
    <glyph glyph-name="logicalnot" unicode="&#xac;" horiz-adv-x="667" 
d="M0 262v59h667v-321h-60v262h-607z" />
    <glyph glyph-name="registered" unicode="&#xae;" horiz-adv-x="833" 
d="M741 352c0 9.33301 -0.667969 21.4971 -2.00098 36.4971s-4.33301 31.5 -9 49.5s-11.834 37.167 -21.501 57.5s-22.5 40.5 -38.5 60.5c-8 10 -19 22 -33 36s-31.5 27.333 -52.5 40s-45.167 23.334 -72.5 32.001s-58.666 13 -93.999 13
c-8.66699 0 -19.834 -0.5 -33.501 -1.5s-29 -3.66699 -46 -8s-35.167 -10.666 -54.5 -18.999s-38.666 -19.5 -57.999 -33.5c-10.667 -8 -23.667 -19.167 -39 -33.5s-30 -32.333 -44 -54s-25.833 -47 -35.5 -76s-14.5 -61.833 -14.5 -98.5c0 -42.667 8 -83.667 24 -123
c12 -30.667 28.333 -58.334 49 -83.001s44.167 -45.667 70.5 -63s55 -30.833 86 -40.5s62.833 -14.5 95.5 -14.5c10 0 26.167 1.33301 48.5 4s46.833 9.33398 73.5 20.001c30.667 12 58.334 28.333 83.001 49s45.667 44 63 70s30.833 54.333 40.5 85
s14.5 62.334 14.5 95.001zM772.999 350.997c-0.666992 -40 -7.50098 -79.002 -20.501 -117.002s-32.167 -73 -57.5 -105c-24 -29.333 -49.5 -52.833 -76.5 -70.5s-53.167 -31 -78.5 -40s-48.833 -14.833 -70.5 -17.5s-39.167 -4 -52.5 -4
c-47.333 0 -93.666 9.33301 -138.999 28c-34 14 -64.333 32.167 -91 54.5s-49.334 47.833 -68.001 76.5s-33 59.834 -43 93.501s-15 68.5 -15 104.5c0 29.333 2.83301 56.166 8.5 80.499s12.667 46 21 65s17.166 35.333 26.499 49s17.666 24.834 24.999 33.501
c9.33301 10.667 21.833 23.334 37.5 38.001s34.834 28.5 57.501 41.5s49 24.167 79 33.5s64 14 102 14c56.667 0 109.834 -12.167 159.501 -36.5s91.834 -59.833 126.501 -106.5c23.333 -32 40.833 -66 52.5 -102s17.167 -73.667 16.5 -113zM414.998 390.995
l9.5 -0.000976562c5.66699 0 12.167 0.333008 19.5 1s15.166 2.16699 23.499 4.5s15.833 5.5 22.5 9.5c5.33301 3.33301 11 9.5 17 18.5s9 21.167 9 36.5c0 17.333 -3.83301 30.333 -11.5 39s-14.5 14.334 -20.5 17.001c-9.33301 5.33301 -20.166 8.33301 -32.499 9
s-29.5 1 -51.5 1h-60v-136h75zM511.998 132.994c-6.66699 14 -11.4961 28.8359 -14.4961 44.5029s-6.5 37.834 -10.5 66.501c-4 26.667 -9.33301 45.667 -16 57s-16.667 20.333 -30 27c-12 5.33301 -23.333 8.5 -34 9.5s-22.667 1.5 -36 1.5h-32v-207h-65v445h137h39
c13.333 0 26.333 -1.16699 39 -3.5s24.834 -6.33301 36.501 -12s22.167 -13.834 31.5 -24.501c4 -5.33301 9.16699 -14 15.5 -26s9.5 -27 9.5 -45c0 -14.667 -2.16699 -27.334 -6.5 -38.001s-9.5 -19.667 -15.5 -27s-12.167 -13.333 -18.5 -18
s-11.833 -8.33398 -16.5 -11.001c-4.66699 -2 -10.334 -4.16699 -17.001 -6.5s-15 -4.5 -25 -6.5c5.33301 -2 10.666 -4.16699 15.999 -6.5s10.666 -5.5 15.999 -9.5c17.333 -13.333 28.166 -30.166 32.499 -50.499s8.16602 -40.5 11.499 -60.5
c1.33301 -6.66699 3.83301 -19.834 7.5 -39.501s10.5 -39.834 20.5 -60.501z" />
    <glyph glyph-name="degree" unicode="&#xb0;" horiz-adv-x="354" 
d="M176 688c-23.333 -0.666992 -43.501 -9.33203 -60.501 -25.999s-25.5 -37.334 -25.5 -62.001c0 -12 2.33301 -23.167 7 -33.5s10.834 -19.333 18.501 -27s16.834 -13.834 27.501 -18.501s22 -7 34 -7c24.667 0 45.167 8.5 61.5 25.5s24.5 37.5 24.5 61.5
c0 24.667 -8.33301 45.334 -25 62.001s-37.334 25 -62.001 25zM176.999 748.002c20.667 0 39.833 -3.83398 57.5 -11.501s33.167 -18.167 46.5 -31.5s23.833 -29 31.5 -47s11.5 -37 11.5 -57c0 -5.33301 -0.666992 -13.166 -2 -23.499s-4.66602 -21.833 -9.99902 -34.5
c-11.333 -27.333 -29.333 -49 -54 -65s-51.667 -24 -81 -24c-20.667 0 -39.834 3.83301 -57.501 11.5s-33.167 18.167 -46.5 31.5s-23.833 29 -31.5 47s-11.5 37 -11.5 57s3.83301 39 11.5 57s18.167 33.667 31.5 47s29 23.833 47 31.5s37 11.5 57 11.5z" />
    <glyph glyph-name="plusminus" unicode="&#xb1;" horiz-adv-x="500" 
d="M31 0v59h438v-59h-438zM222 152v190h-191v59h191v190h59v-190h188v-59h-188v-190h-59z" />
    <glyph glyph-name="acute" unicode="&#xb4;" 
d="M120 724h106l-154 -144h-62z" />
    <glyph glyph-name="mu" unicode="&#xb5;" horiz-adv-x="562" 
d="M531 138c1.33301 -4 3.83398 -12.3291 7.50098 -24.9961s5.5 -26.334 5.5 -41.001c0 -16 -2 -29.333 -6 -40s-9.16699 -19.334 -15.5 -26.001s-13.333 -11.167 -21 -13.5s-15.167 -3.5 -22.5 -3.5c-8 0 -16.333 1.5 -25 4.5s-17 7.83301 -25 14.5s-15.5 15.667 -22.5 27
s-12.833 25 -17.5 41c-1.33301 -2.66699 -5.5 -8.5 -12.5 -17.5s-14.5 -17.5 -22.5 -25.5c-14.667 -14.667 -31.667 -26.334 -51 -35.001s-39.666 -13 -60.999 -13c-14.667 0 -27.834 2.16699 -39.501 6.5s-21.834 9.5 -30.501 15.5s-16 12 -22 18s-10.333 10.667 -13 14
c-3.33301 3.33301 -5.66602 6 -6.99902 8s-3.66602 6 -6.99902 12c-0.666992 -10.667 -1.16699 -27.167 -1.5 -49.5s3.16699 -48.5 10.5 -78.5c0.666992 -2 2.16699 -7.66699 4.5 -17s5.16602 -18 8.49902 -26l6.5 -14.5c1.66699 -3.66699 5.16699 -10.167 10.5 -19.5
c10.667 -18.667 19.5 -33.334 26.5 -44.001s10.5 -21.334 10.5 -32.001c0 -11.333 -3.5 -20.666 -10.5 -27.999s-16.167 -11 -27.5 -11c-15.333 0 -28 5.83301 -38 17.5s-18.667 30.167 -26 55.5c-6.66699 24 -11 47.167 -13 69.5s-3 45.833 -3 70.5
c0 14 0.666992 36.667 2 68s4.66602 66 9.99902 104l-6 41.5c-2 13.667 -3.66699 27.167 -5 40.5c-1.33301 15.333 -2.5 30.833 -3.5 46.5s-2.16699 31.167 -3.5 46.5c-0.666992 11.333 -1.16699 22.833 -1.5 34.5s-0.5 23.167 -0.5 34.5c0 26 2 45 6 57
c4 14.667 9.83301 24.5 17.5 29.5s15.167 7.5 22.5 7.5c2 0 5 -0.5 9 -1.5s7.66699 -3.16699 11 -6.5c5.33301 -4.66699 9.33301 -10.334 12 -17.001s4.5 -13.167 5.5 -19.5s1.5 -11.833 1.5 -16.5v-8c0 -14 -0.666992 -27.833 -2 -41.5l-4 -40.5
c-1.33301 -17.333 -3.16602 -34.166 -5.49902 -50.499s-4.5 -33.166 -6.5 -50.499c-1.33301 -14 -2.83301 -28 -4.5 -42s-3.83398 -28 -6.50098 -42c3.33301 -7.33301 6.33301 -14.333 9 -21s6.66699 -13.667 12 -21c9.33301 -13.333 21 -24.333 35 -33s29.667 -13 47 -13
c11.333 0 20.833 1.33301 28.5 4s13.167 5 16.5 7c13.333 7.33301 24.5 16.333 33.5 27s16.333 21.5 22 32.5s10 21 13 30s4.83301 15.167 5.5 18.5c4 15.333 7.5 37.333 10.5 66s4.16699 63 3.5 103c0 8 -0.166992 16 -0.5 24s-0.5 16 -0.5 24
c0 0.666992 0.166992 6.66699 0.5 18s1.16602 21.333 2.49902 30c0 1.33301 0.666992 4.16602 2 8.49902s3.33301 8.83301 6 13.5s6.5 8.83398 11.5 12.501s11.5 5.5 19.5 5.5c18.667 -0.666992 31.334 -8.83398 38.001 -24.501s10 -38.5 10 -68.5
c0 -6 -0.166992 -18.167 -0.5 -36.5s-2 -39.833 -5 -64.5s-7.83301 -51 -14.5 -79s-16 -54.333 -28 -79c4 -12.667 9.83301 -23 17.5 -31s13.167 -13 16.5 -15c2 -1.33301 4.83301 -2.66602 8.5 -3.99902s8.5 -2 14.5 -2c15.333 0 27 6 35 18c1.33301 2 2.5 4.33301 3.5 7
s2.16699 6.66699 3.5 12c0.666992 3.33301 1.16699 6.5 1.5 9.5s0.5 7.16699 0.5 12.5v8.5c0 2.33301 -0.666992 6.16602 -2 11.499z" />
    <glyph glyph-name="mu" unicode="&#x3bc;" horiz-adv-x="562" 
d="M531 138c1.33301 -4 3.83398 -12.3291 7.50098 -24.9961s5.5 -26.334 5.5 -41.001c0 -16 -2 -29.333 -6 -40s-9.16699 -19.334 -15.5 -26.001s-13.333 -11.167 -21 -13.5s-15.167 -3.5 -22.5 -3.5c-8 0 -16.333 1.5 -25 4.5s-17 7.83301 -25 14.5s-15.5 15.667 -22.5 27
s-12.833 25 -17.5 41c-1.33301 -2.66699 -5.5 -8.5 -12.5 -17.5s-14.5 -17.5 -22.5 -25.5c-14.667 -14.667 -31.667 -26.334 -51 -35.001s-39.666 -13 -60.999 -13c-14.667 0 -27.834 2.16699 -39.501 6.5s-21.834 9.5 -30.501 15.5s-16 12 -22 18s-10.333 10.667 -13 14
c-3.33301 3.33301 -5.66602 6 -6.99902 8s-3.66602 6 -6.99902 12c-0.666992 -10.667 -1.16699 -27.167 -1.5 -49.5s3.16699 -48.5 10.5 -78.5c0.666992 -2 2.16699 -7.66699 4.5 -17s5.16602 -18 8.49902 -26l6.5 -14.5c1.66699 -3.66699 5.16699 -10.167 10.5 -19.5
c10.667 -18.667 19.5 -33.334 26.5 -44.001s10.5 -21.334 10.5 -32.001c0 -11.333 -3.5 -20.666 -10.5 -27.999s-16.167 -11 -27.5 -11c-15.333 0 -28 5.83301 -38 17.5s-18.667 30.167 -26 55.5c-6.66699 24 -11 47.167 -13 69.5s-3 45.833 -3 70.5
c0 14 0.666992 36.667 2 68s4.66602 66 9.99902 104l-6 41.5c-2 13.667 -3.66699 27.167 -5 40.5c-1.33301 15.333 -2.5 30.833 -3.5 46.5s-2.16699 31.167 -3.5 46.5c-0.666992 11.333 -1.16699 22.833 -1.5 34.5s-0.5 23.167 -0.5 34.5c0 26 2 45 6 57
c4 14.667 9.83301 24.5 17.5 29.5s15.167 7.5 22.5 7.5c2 0 5 -0.5 9 -1.5s7.66699 -3.16699 11 -6.5c5.33301 -4.66699 9.33301 -10.334 12 -17.001s4.5 -13.167 5.5 -19.5s1.5 -11.833 1.5 -16.5v-8c0 -14 -0.666992 -27.833 -2 -41.5l-4 -40.5
c-1.33301 -17.333 -3.16602 -34.166 -5.49902 -50.499s-4.5 -33.166 -6.5 -50.499c-1.33301 -14 -2.83301 -28 -4.5 -42s-3.83398 -28 -6.50098 -42c3.33301 -7.33301 6.33301 -14.333 9 -21s6.66699 -13.667 12 -21c9.33301 -13.333 21 -24.333 35 -33s29.667 -13 47 -13
c11.333 0 20.833 1.33301 28.5 4s13.167 5 16.5 7c13.333 7.33301 24.5 16.333 33.5 27s16.333 21.5 22 32.5s10 21 13 30s4.83301 15.167 5.5 18.5c4 15.333 7.5 37.333 10.5 66s4.16699 63 3.5 103c0 8 -0.166992 16 -0.5 24s-0.5 16 -0.5 24
c0 0.666992 0.166992 6.66699 0.5 18s1.16602 21.333 2.49902 30c0 1.33301 0.666992 4.16602 2 8.49902s3.33301 8.83301 6 13.5s6.5 8.83398 11.5 12.501s11.5 5.5 19.5 5.5c18.667 -0.666992 31.334 -8.83398 38.001 -24.501s10 -38.5 10 -68.5
c0 -6 -0.166992 -18.167 -0.5 -36.5s-2 -39.833 -5 -64.5s-7.83301 -51 -14.5 -79s-16 -54.333 -28 -79c4 -12.667 9.83301 -23 17.5 -31s13.167 -13 16.5 -15c2 -1.33301 4.83301 -2.66602 8.5 -3.99902s8.5 -2 14.5 -2c15.333 0 27 6 35 18c1.33301 2 2.5 4.33301 3.5 7
s2.16699 6.66699 3.5 12c0.666992 3.33301 1.16699 6.5 1.5 9.5s0.5 7.16699 0.5 12.5v8.5c0 2.33301 -0.666992 6.16602 -2 11.499z" />
    <glyph glyph-name="paragraph" unicode="&#xb6;" horiz-adv-x="667" 
d="M531 662l-33 0.000976562v-829h-46v829h-157v-829h-46v498c-4 0.666992 -10.5 1.66699 -19.5 3s-18.5 3.66602 -28.5 6.99902c-38 14 -66 36.667 -84 68s-27 66 -27 104c0 6 0.333008 14.667 1 26s3.66699 24.333 9 39c9.33301 28.667 24.5 53 45.5 73
s45.833 34.667 74.5 44c14.667 4.66699 29.5 7.66699 44.5 9s30.167 2 45.5 2h221v-44z" />
    <glyph glyph-name="periodcentered" unicode="&#xb7;" horiz-adv-x="281" 
d="M140 411c16 0 29.8311 -5.66895 41.498 -17.002s17.167 -24.666 16.5 -39.999c0 -15.333 -5.5 -28.666 -16.5 -39.999s-24.833 -17 -41.5 -17c-15.333 0 -28.666 5.33301 -39.999 16s-17 24.334 -17 41.001c0.666992 15.333 6.33398 28.666 17.001 39.999s24 17 40 17z
" />
    <glyph glyph-name="periodcentered" unicode="&#x2219;" horiz-adv-x="281" 
d="M140 411c16 0 29.8311 -5.66895 41.498 -17.002s17.167 -24.666 16.5 -39.999c0 -15.333 -5.5 -28.666 -16.5 -39.999s-24.833 -17 -41.5 -17c-15.333 0 -28.666 5.33301 -39.999 16s-17 24.334 -17 41.001c0.666992 15.333 6.33398 28.666 17.001 39.999s24 17 40 17z
" />
    <glyph glyph-name="cedilla" unicode="&#xb8;" 
d="M117 0l-27.999 -69.001c7.33301 -1.33301 14.5 -2.5 21.5 -3.5s14.167 -3.16699 21.5 -6.5c17.333 -7.33301 31.333 -18 42 -32s15.667 -30.333 15 -49c0 -11.333 -1.16699 -20.666 -3.5 -27.999s-4.5 -12.666 -6.5 -15.999c-2.66699 -5.33301 -6.66699 -11 -12 -17
s-12 -11.667 -20 -17s-17.667 -9.83301 -29 -13.5s-24.333 -5.5 -39 -5.5c-12.667 0 -24.667 1.16699 -36 3.5s-27.666 7.5 -48.999 15.5v45l20 -6.5c5.33301 -1.66699 10 -3 14 -4s7.83301 -1.66699 11.5 -2s8.16699 -0.5 13.5 -0.5c12 0 22.167 1.83301 30.5 5.5
s14.833 8.16699 19.5 13.5s8 11 10 17s3 11.667 3 17c0 3.33301 -0.5 7.5 -1.5 12.5s-3.5 10.167 -7.5 15.5c-4.66699 6.66699 -10.334 11.667 -17.001 15s-13.834 5.66602 -21.501 6.99902s-15.5 2 -23.5 2h-22l39 101h55z" />
    <glyph glyph-name="guillemotright" unicode="&#xbb;" horiz-adv-x="406" 
d="M264 502l96 -247l-96 -255h-54l81 255l-81 247h54zM127 502l96 -247l-96 -255h-54l81 255l-81 247h54z" />
    <glyph glyph-name="questiondown" unicode="&#xbf;" horiz-adv-x="437" 
d="M278 290l0.000976562 -74.0029c0 -19.333 -1.16699 -36 -3.5 -50s-6.66602 -26.833 -12.999 -38.5s-15.833 -24.5 -28.5 -38.5c-11.333 -13.333 -24.5 -27.166 -39.5 -41.499s-27.167 -29.166 -36.5 -44.499c-9.33301 -13.333 -15 -25.166 -17 -35.499
s-3 -19.166 -3 -26.499c0 -6.66699 1.16699 -14.5 3.5 -23.5s6.66602 -17.667 12.999 -26s15.166 -15.333 26.499 -21s26 -8.5 44 -8.5c22.667 0 40.667 3.83301 54 11.5s23.5 16.834 30.5 27.501s11.5 21.834 13.5 33.501s3.33301 21.167 4 28.5h66
c0 -5.33301 -0.666992 -14.666 -2 -27.999s-4.66602 -27.333 -9.99902 -42c-4 -10.667 -9.83301 -21.834 -17.5 -33.501s-18 -22.5 -31 -32.5s-28.833 -18.333 -47.5 -25s-41 -10 -67 -10c-34 0 -61.667 5.33301 -83 16s-37.833 23.667 -49.5 39s-19.5 31.666 -23.5 48.999
s-6 32.666 -6 45.999c0 31.333 7.16699 57.666 21.5 78.999s31.833 42.333 52.5 63l29 29c10 10 18.667 20.333 26 31c5.33301 8 9.5 15.333 12.5 22s5.16699 14 6.5 22s2.16602 17.5 2.49902 28.5s0.5 24.833 0.5 41.5c0 5.33301 -0.166992 10.833 -0.5 16.5
s-0.5 11.167 -0.5 16.5zM243.001 379.997c-17.333 0 -32 5.83203 -44 17.499s-18 26.167 -18 43.5s6 31.833 18 43.5s26.667 17.167 44 16.5c16.667 0 31 -5.66699 43 -17s18 -25.666 18 -42.999s-6 -31.833 -18 -43.5s-26.333 -17.5 -43 -17.5z" />
    <glyph glyph-name="Agrave" unicode="&#xc0;" horiz-adv-x="599" 
d="M279 757l-176 145h106l146 -145h-76zM299 608l-111 -352h223zM334 711l243 -711h-82l-63 187h-265l-64 -187h-82l244 711h69z" />
    <glyph glyph-name="Aacute" unicode="&#xc1;" horiz-adv-x="599" 
d="M398 902h106l-176 -145h-76zM299 608l-111 -352h223zM334 711l243 -711h-82l-63 187h-265l-64 -187h-82l244 711h69z" />
    <glyph glyph-name="Acircumflex" unicode="&#xc2;" horiz-adv-x="599" 
d="M267 899h86l137 -139h-73l-107 93l-107 -93h-73zM299 608l-111 -352h223zM334 711l243 -711h-82l-63 187h-265l-64 -187h-82l244 711h69z" />
    <glyph glyph-name="Atilde" unicode="&#xc3;" horiz-adv-x="599" 
d="M133 796c1.33301 4 2.49805 8.16504 3.49805 12.498s2.16699 8.5 3.5 12.5s3.83301 10.333 7.5 19s9 17.334 16 26.001s16 16.334 27 23.001s24.833 10 41.5 10c17.333 0 33.5 -3.83301 48.5 -11.5s29.5 -15.5 43.5 -23.5c7.33301 -4.66699 16.333 -9.66699 27 -15
s20.667 -7.66602 30 -6.99902c11.333 0 20.5 3 27.5 9s12.333 12.667 16 20s6.33398 14.166 8.00098 20.499s2.5 10.166 2.5 11.499l43 -17c-0.666992 -3.33301 -1.5 -8.66602 -2.5 -15.999s-3.33301 -15.333 -7 -24s-8.5 -17.5 -14.5 -26.5s-14.333 -17.167 -25 -24.5
c-3.33301 -2.66699 -9.16602 -5.83398 -17.499 -9.50098s-18.5 -5.5 -30.5 -5.5c-18 0 -35.167 4.66699 -51.5 14s-32.5 18 -48.5 26c-5.33301 2.66699 -11 5.33398 -17 8.00098l-16 6c-5.33301 2 -10.666 2.66699 -15.999 2c-10.667 0 -19.334 -2.66699 -26.001 -8
s-12 -11.5 -16 -18.5s-6.83301 -13.5 -8.5 -19.5s-2.5 -9.66699 -2.5 -11zM298.998 607.998l-111 -352h223zM333.998 710.998l243 -711h-82l-63 187h-265l-64 -187h-82l244 711h69z" />
    <glyph glyph-name="Adieresis" unicode="&#xc4;" horiz-adv-x="599" 
d="M394 889c17.333 0 31.667 -5.66602 43 -16.999s17 -25.666 17 -42.999c0 -16.667 -6 -30.834 -18 -42.501s-26 -17.5 -42 -17.5c-16.667 0.666992 -30.834 6.66699 -42.501 18s-17.5 25.666 -17.5 42.999c0 16.667 5.83301 30.667 17.5 42s25.834 17 42.501 17z
M205.001 889.001c17.333 0 31.667 -5.83008 43 -17.4971s17 -25.834 17 -42.501s-6 -30.834 -18 -42.501s-26 -17.5 -42 -17.5c-17.333 0.666992 -31.666 6.66699 -42.999 18s-17 25.666 -17 42.999c0 16.667 5.66699 30.667 17 42s25.666 17 42.999 17zM299.002 608.004
l-111 -352h223zM334.002 711.004l243 -711h-82l-63 187h-265l-64 -187h-82l244 711h69z" />
    <glyph glyph-name="Aring" unicode="&#xc5;" horiz-adv-x="599" 
d="M299 890c-14.667 0 -27.001 -5.00195 -37.001 -15.002s-15 -22.333 -15 -37s5.16699 -27 15.5 -37s22.833 -15 37.5 -15c5.33301 0 10 0.666992 14 2s6.66699 2.33301 8 3c4.66699 2 10.834 6.83301 18.501 14.5s11.5 18.834 11.5 33.501s-5.16699 26.834 -15.5 36.501
s-22.833 14.5 -37.5 14.5zM299.999 935.998c27.333 0 50.334 -9.50098 69.001 -28.501s28 -42.167 28 -69.5c0 -13.333 -2.5 -26 -7.5 -38s-12 -22.333 -21 -31s-19.333 -15.5 -31 -20.5s-24.167 -7.5 -37.5 -7.5c-14 0 -26.833 2.66699 -38.5 8s-22 12.5 -31 21.5
s-16 19.333 -21 31s-7.5 24.167 -7.5 37.5c0 3.33301 0.5 8.5 1.5 15.5s3.16699 14.833 6.5 23.5c6 12.667 13.167 22.834 21.5 30.501s16.666 13.5 24.999 17.5s16.5 6.66699 24.5 8s14.333 2 19 2zM299 607.997l-111 -352h223zM334 710.997l243 -711h-82l-63 187h-265
l-64 -187h-82l244 711h69z" />
    <glyph glyph-name="AE" unicode="&#xc6;" horiz-adv-x="901" 
d="M467 637l-213 -380h213v380zM854 706v-68h-305v-238h280v-69h-280v-262h307v-69h-389v188h-252l-106 -188h-88l405 706h428z" />
    <glyph glyph-name="Ccedilla" unicode="&#xc7;" horiz-adv-x="635" 
d="M361 -69c2.66699 -0.666992 7.66211 -1.50684 14.9951 -2.50684s15.333 -3.16699 24 -6.5c4 -1.33301 9.5 -3.83301 16.5 -7.5s13.833 -8.66699 20.5 -15s12.334 -14.333 17.001 -24s7 -21.5 7 -35.5c0 -3.33301 -0.5 -9 -1.5 -17s-3.83301 -16.333 -8.5 -25
c-2.66699 -6 -6.66699 -12.167 -12 -18.5s-12 -12.166 -20 -17.499s-17.667 -9.83301 -29 -13.5s-24.666 -5.5 -39.999 -5.5c-20 0 -37.333 2.5 -52 7.5l-33 11.5v45l29.5 -9c8.33301 -2.66699 18.166 -4 29.499 -4c12.667 0 23.167 1.83301 31.5 5.5
s14.833 8.33398 19.5 14.001s7.83398 11.5 9.50098 17.5s2.5 11.667 2.5 17c0 3.33301 -0.5 7.83301 -1.5 13.5s-4.16699 11.167 -9.5 16.5c-9.33301 11.333 -22 17.833 -38 19.5s-30.667 2.16699 -44 1.5l35 89c-30.667 2 -56 6.66699 -76 14s-35.667 14.666 -47 21.999
c-18 10.667 -36 24.834 -54 42.501s-34.333 39.667 -49 66s-26.5 57.5 -35.5 93.5s-13.5 77.667 -13.5 125c0 8 0.333008 19.833 1 35.5s2.5 33.667 5.5 54s7.83301 42.166 14.5 65.499s16.334 46.333 29.001 69c4 8 11.167 19.667 21.5 35s24.833 30.666 43.5 45.999
c6 5.33301 14.333 11.666 25 18.999s23.5 14.166 38.5 20.499s31.833 11.833 50.5 16.5s39 7 61 7c8.66699 0 21.667 -1 39 -3s36 -6.66699 56 -14s40.167 -18.666 60.5 -33.999s37.5 -36.333 51.5 -63c6 -11.333 11.333 -23.666 16 -36.999s8.66699 -32.333 12 -57h-74
c-6.66699 28 -16.667 52.833 -30 74.5s-33.666 38.167 -60.999 49.5c-6 2.66699 -15 5.66699 -27 9s-26.333 5 -43 5c-7.33301 0 -19.333 -1 -36 -3s-34 -8.33301 -52 -19c-15.333 -8.66699 -30.166 -20.667 -44.499 -36s-27 -34.166 -38 -56.499
s-19.667 -48.666 -26 -78.999s-9.5 -64.833 -9.5 -103.5c0 -42 4 -79.167 12 -111.5s18.5 -60.166 31.5 -83.499s28 -42.166 45 -56.499s34.5 -24.833 52.5 -31.5c7.33301 -3.33301 16 -6 26 -8s23.333 -3 40 -3c23.333 0 43.5 3.16699 60.5 9.5s31.167 14 42.5 23
s20.5 18.833 27.5 29.5s12.5 20 16.5 28c7.33301 15.333 12.833 30.333 16.5 45s6.16699 30.334 7.5 47.001h74c0 -6.66699 -1 -18.167 -3 -34.5s-6.33301 -34.5 -13 -54.5s-16 -40.5 -28 -61.5s-28.667 -39.5 -50 -55.5c-23.333 -17.333 -45 -28.666 -65 -33.999
s-35.667 -8.66602 -47 -9.99902z" />
    <glyph glyph-name="Egrave" unicode="&#xc8;" horiz-adv-x="531" 
d="M245 757l-176 145h106l147 -145h-77zM457 400v-69h-287v-262h316v-69h-395v706h388v-68h-309v-238h287z" />
    <glyph glyph-name="Eacute" unicode="&#xc9;" horiz-adv-x="531" 
d="M364 902h107l-176 -145h-77zM457 400v-69h-287v-262h316v-69h-395v706h388v-68h-309v-238h287z" />
    <glyph glyph-name="Ecircumflex" unicode="&#xca;" horiz-adv-x="531" 
d="M223 899h85l138 -139h-73l-107 93l-107 -93h-73zM457 400v-69h-287v-262h316v-69h-395v706h388v-68h-309v-238h287z" />
    <glyph glyph-name="Edieresis" unicode="&#xcb;" horiz-adv-x="531" 
d="M360 889c17.333 0 31.667 -5.66602 43 -16.999s17 -25.666 17 -42.999c0 -16.667 -6 -30.834 -18 -42.501s-26 -17.5 -42 -17.5c-16.667 0.666992 -30.834 6.66699 -42.501 18s-17.5 25.666 -17.5 42.999c0 16.667 5.83301 30.667 17.5 42s25.834 17 42.501 17z
M171.001 889.001c17.333 0 31.667 -5.66602 43 -16.999s17 -25.666 17 -42.999c0 -16.667 -6 -30.834 -18 -42.501s-26 -17.5 -42 -17.5c-16.667 0.666992 -30.834 6.66699 -42.501 18s-17.5 25.666 -17.5 42.999c0 16.667 5.83301 30.667 17.5 42s25.834 17 42.501 17z
M457.002 400.002v-69h-287v-262h316v-69h-395v706h388v-68h-309v-238h287z" />
    <glyph glyph-name="Igrave" unicode="&#xcc;" horiz-adv-x="260" 
d="M110 757l-176 145h106l146 -145h-76zM89 0v706h82v-706h-82z" />
    <glyph glyph-name="Iacute" unicode="&#xcd;" horiz-adv-x="260" 
d="M229 902h106l-176 -145h-77zM89 0v706h82v-706h-82z" />
    <glyph glyph-name="Icircumflex" unicode="&#xce;" horiz-adv-x="260" 
d="M88 899h85l137 -139h-73l-107 93l-106 -93h-74zM89 0v706h82v-706h-82z" />
    <glyph glyph-name="Idieresis" unicode="&#xcf;" horiz-adv-x="260" 
d="M225 889c16.667 0 30.832 -5.66602 42.499 -16.999s17.5 -25.666 17.5 -42.999c0 -16.667 -6 -30.834 -18 -42.501s-26.333 -17.5 -43 -17.5c-16 0.666992 -29.833 6.66699 -41.5 18s-17.5 25.666 -17.5 42.999c0 16.667 5.83301 30.667 17.5 42s25.834 17 42.501 17z
M35.998 889.001c16.667 0 30.832 -5.66602 42.499 -16.999s17.5 -25.666 17.5 -42.999c0 -16.667 -6 -30.834 -18 -42.501s-26.333 -17.5 -43 -17.5c-16 0.666992 -29.833 6.66699 -41.5 18s-17.5 25.666 -17.5 42.999c0 16.667 5.83301 30.667 17.5 42s25.834 17 42.501 17
zM88.9961 0.00195312v706h82v-706h-82z" />
    <glyph glyph-name="Ntilde" unicode="&#xd1;" horiz-adv-x="682" 
d="M165 796c1.33301 4 2.50195 8.16602 3.50195 12.499s2.16699 8.5 3.5 12.5s3.66602 10.333 6.99902 19s8.5 17.334 15.5 26.001s16 16.334 27 23.001s24.833 10 41.5 10c17.333 0 33.5 -3.83301 48.5 -11.5l44.5 -23.5c7.33301 -4.66699 16.333 -9.66699 27 -15
s20.334 -7.66602 29.001 -6.99902c11.333 0 20.5 3 27.5 9s12.333 12.667 16 20s6.33398 14.166 8.00098 20.499s2.5 10.166 2.5 11.499l43 -17c-0.666992 -3.33301 -1.5 -8.66602 -2.5 -15.999s-3.33301 -15.333 -7 -24s-8.5 -17.5 -14.5 -26.5s-14.333 -17.167 -25 -24.5
c-3.33301 -2.66699 -9.16602 -5.83398 -17.499 -9.50098s-18.166 -5.5 -29.499 -5.5c-18.667 0 -36.167 4.66699 -52.5 14l-47.5 26l-5.5 2.5c-3.66699 1.66699 -8 3.5 -13 5.5s-10.333 3.83301 -16 5.5s-10.834 2.5 -15.501 2.5c-10.667 0 -19.334 -2.66699 -26.001 -8
s-11.834 -11.5 -15.501 -18.5s-6.33398 -13.5 -8.00098 -19.5s-2.83398 -9.66699 -3.50098 -11zM178.002 705.999l339 -588v588h74v-706h-87l-337 586v-586h-75v706h86z" />
    <glyph glyph-name="Ograve" unicode="&#xd2;" horiz-adv-x="682" 
d="M321 757l-176 145h106l146 -145h-76zM138 353c0 -6 0.329102 -18.665 0.996094 -37.998s3.83398 -41.5 9.50098 -66.5s14.334 -50.667 26.001 -77s28.5 -49.5 50.5 -69.5c9.33301 -8.66699 23.333 -18.334 42 -29.001s43.334 -16 74.001 -16
c6.66699 0 14.834 0.5 24.501 1.5s20 3.5 31 7.5s22.667 9.66699 35 17s24.5 17.333 36.5 30c14.667 15.333 26.834 32.666 36.501 51.999s17.5 39.5 23.5 60.5s10.167 42.5 12.5 64.5s3.5 43 3.5 63c0 6 -0.166992 15.167 -0.5 27.5s-1.66602 26.5 -3.99902 42.5
s-5.66602 33.167 -9.99902 51.5s-10.5 36.5 -18.5 54.5c-3.33301 7.33301 -9.33301 18.333 -18 33s-21.334 29.334 -38.001 44.001c-9.33301 8 -23.166 17.167 -41.499 27.5s-42.5 15.5 -72.5 15.5c-8.66699 0 -18.834 -0.833008 -30.501 -2.5s-24 -5.33398 -37 -11.001
s-26.333 -13.667 -40 -24s-26.834 -24.5 -39.501 -42.5c-14 -19.333 -24.667 -40.5 -32 -63.5s-12.833 -45 -16.5 -66s-5.83398 -39.333 -6.50098 -55s-1 -26.167 -1 -31.5zM52.9961 353.002c0 10 0.832031 27.334 2.49902 52.001s6.66699 52.334 15 83.001s21.333 62 39 94
s42.5 60 74.5 84c16 12 31.667 21.5 47 28.5s30 12.333 44 16s26.667 6 38 7s20.666 1.5 27.999 1.5c31.333 0 59.166 -4.33301 83.499 -13s45.5 -19.167 63.5 -31.5s33 -25.166 45 -38.499s21 -24.333 27 -33c8 -10.667 16 -23.834 24 -39.501s15.333 -33.834 22 -54.501
s12.167 -43.834 16.5 -69.501s6.5 -54.5 6.5 -86.5c0 -29.333 -2.33301 -58.833 -7 -88.5s-12.167 -58.5 -22.5 -86.5s-24.166 -54.167 -41.499 -78.5s-38.666 -45.5 -63.999 -63.5c-6 -4 -13.667 -8.83301 -23 -14.5s-20.333 -11 -33 -16s-27.167 -9.16699 -43.5 -12.5
s-34.166 -5 -53.499 -5c-11.333 0 -28.5 1.66699 -51.5 5s-47.833 12 -74.5 26c-18.667 10 -37.5 24 -56.5 42s-36.333 40.5 -52 67.5s-28.5 59 -38.5 96s-15 79.833 -15 128.5z" />
    <glyph glyph-name="Oacute" unicode="&#xd3;" horiz-adv-x="682" 
d="M440 902h106l-176 -145h-77zM138 353c0 -6 0.329102 -18.665 0.996094 -37.998s3.83398 -41.5 9.50098 -66.5s14.334 -50.667 26.001 -77s28.5 -49.5 50.5 -69.5c9.33301 -8.66699 23.333 -18.334 42 -29.001s43.334 -16 74.001 -16c6.66699 0 14.834 0.5 24.501 1.5
s20 3.5 31 7.5s22.667 9.66699 35 17s24.5 17.333 36.5 30c14.667 15.333 26.834 32.666 36.501 51.999s17.5 39.5 23.5 60.5s10.167 42.5 12.5 64.5s3.5 43 3.5 63c0 6 -0.166992 15.167 -0.5 27.5s-1.66602 26.5 -3.99902 42.5s-5.66602 33.167 -9.99902 51.5
s-10.5 36.5 -18.5 54.5c-3.33301 7.33301 -9.33301 18.333 -18 33s-21.334 29.334 -38.001 44.001c-9.33301 8 -23.166 17.167 -41.499 27.5s-42.5 15.5 -72.5 15.5c-8.66699 0 -18.834 -0.833008 -30.501 -2.5s-24 -5.33398 -37 -11.001s-26.333 -13.667 -40 -24
s-26.834 -24.5 -39.501 -42.5c-14 -19.333 -24.667 -40.5 -32 -63.5s-12.833 -45 -16.5 -66s-5.83398 -39.333 -6.50098 -55s-1 -26.167 -1 -31.5zM52.9961 353.002c0 10 0.832031 27.334 2.49902 52.001s6.66699 52.334 15 83.001s21.333 62 39 94s42.5 60 74.5 84
c16 12 31.667 21.5 47 28.5s30 12.333 44 16s26.667 6 38 7s20.666 1.5 27.999 1.5c31.333 0 59.166 -4.33301 83.499 -13s45.5 -19.167 63.5 -31.5s33 -25.166 45 -38.499s21 -24.333 27 -33c8 -10.667 16 -23.834 24 -39.501s15.333 -33.834 22 -54.501
s12.167 -43.834 16.5 -69.501s6.5 -54.5 6.5 -86.5c0 -29.333 -2.33301 -58.833 -7 -88.5s-12.167 -58.5 -22.5 -86.5s-24.166 -54.167 -41.499 -78.5s-38.666 -45.5 -63.999 -63.5c-6 -4 -13.667 -8.83301 -23 -14.5s-20.333 -11 -33 -16s-27.167 -9.16699 -43.5 -12.5
s-34.166 -5 -53.499 -5c-11.333 0 -28.5 1.66699 -51.5 5s-47.833 12 -74.5 26c-18.667 10 -37.5 24 -56.5 42s-36.333 40.5 -52 67.5s-28.5 59 -38.5 96s-15 79.833 -15 128.5z" />
    <glyph glyph-name="Ocircumflex" unicode="&#xd4;" horiz-adv-x="682" 
d="M298 899h86l137 -139h-73l-107 93l-106 -93h-74zM138 353c0 -6 0.329102 -18.665 0.996094 -37.998s3.83398 -41.5 9.50098 -66.5s14.334 -50.667 26.001 -77s28.5 -49.5 50.5 -69.5c9.33301 -8.66699 23.333 -18.334 42 -29.001s43.334 -16 74.001 -16
c6.66699 0 14.834 0.5 24.501 1.5s20 3.5 31 7.5s22.667 9.66699 35 17s24.5 17.333 36.5 30c14.667 15.333 26.834 32.666 36.501 51.999s17.5 39.5 23.5 60.5s10.167 42.5 12.5 64.5s3.5 43 3.5 63c0 6 -0.166992 15.167 -0.5 27.5s-1.66602 26.5 -3.99902 42.5
s-5.66602 33.167 -9.99902 51.5s-10.5 36.5 -18.5 54.5c-3.33301 7.33301 -9.33301 18.333 -18 33s-21.334 29.334 -38.001 44.001c-9.33301 8 -23.166 17.167 -41.499 27.5s-42.5 15.5 -72.5 15.5c-8.66699 0 -18.834 -0.833008 -30.501 -2.5s-24 -5.33398 -37 -11.001
s-26.333 -13.667 -40 -24s-26.834 -24.5 -39.501 -42.5c-14 -19.333 -24.667 -40.5 -32 -63.5s-12.833 -45 -16.5 -66s-5.83398 -39.333 -6.50098 -55s-1 -26.167 -1 -31.5zM52.9961 353.002c0 10 0.832031 27.334 2.49902 52.001s6.66699 52.334 15 83.001s21.333 62 39 94
s42.5 60 74.5 84c16 12 31.667 21.5 47 28.5s30 12.333 44 16s26.667 6 38 7s20.666 1.5 27.999 1.5c31.333 0 59.166 -4.33301 83.499 -13s45.5 -19.167 63.5 -31.5s33 -25.166 45 -38.499s21 -24.333 27 -33c8 -10.667 16 -23.834 24 -39.501s15.333 -33.834 22 -54.501
s12.167 -43.834 16.5 -69.501s6.5 -54.5 6.5 -86.5c0 -29.333 -2.33301 -58.833 -7 -88.5s-12.167 -58.5 -22.5 -86.5s-24.166 -54.167 -41.499 -78.5s-38.666 -45.5 -63.999 -63.5c-6 -4 -13.667 -8.83301 -23 -14.5s-20.333 -11 -33 -16s-27.167 -9.16699 -43.5 -12.5
s-34.166 -5 -53.499 -5c-11.333 0 -28.5 1.66699 -51.5 5s-47.833 12 -74.5 26c-18.667 10 -37.5 24 -56.5 42s-36.333 40.5 -52 67.5s-28.5 59 -38.5 96s-15 79.833 -15 128.5z" />
    <glyph glyph-name="Otilde" unicode="&#xd5;" horiz-adv-x="682" 
d="M165 796c1.33301 4 2.50195 8.16602 3.50195 12.499s2.16699 8.5 3.5 12.5s3.66602 10.333 6.99902 19s8.5 17.334 15.5 26.001s16 16.334 27 23.001s24.833 10 41.5 10c17.333 0 33.5 -3.83301 48.5 -11.5l44.5 -23.5c7.33301 -4.66699 16.333 -9.66699 27 -15
s20.334 -7.66602 29.001 -6.99902c11.333 0 20.5 3 27.5 9s12.333 12.667 16 20s6.33398 14.166 8.00098 20.499s2.5 10.166 2.5 11.499l43 -17c-0.666992 -3.33301 -1.5 -8.66602 -2.5 -15.999s-3.33301 -15.333 -7 -24s-8.5 -17.5 -14.5 -26.5s-14.333 -17.167 -25 -24.5
c-3.33301 -2.66699 -9.16602 -5.83398 -17.499 -9.50098s-18.166 -5.5 -29.499 -5.5c-18.667 0 -36.167 4.66699 -52.5 14l-47.5 26l-5.5 2.5c-3.66699 1.66699 -8 3.5 -13 5.5s-10.333 3.83301 -16 5.5s-10.834 2.5 -15.501 2.5c-10.667 0 -19.334 -2.66699 -26.001 -8
s-11.834 -11.5 -15.501 -18.5s-6.33398 -13.5 -8.00098 -19.5s-2.83398 -9.66699 -3.50098 -11zM138.002 352.999c0 -6 0.329102 -18.665 0.996094 -37.998s3.83398 -41.5 9.50098 -66.5s14.334 -50.667 26.001 -77s28.5 -49.5 50.5 -69.5
c9.33301 -8.66699 23.333 -18.334 42 -29.001s43.334 -16 74.001 -16c6.66699 0 14.834 0.5 24.501 1.5s20 3.5 31 7.5s22.667 9.66699 35 17s24.5 17.333 36.5 30c14.667 15.333 26.834 32.666 36.501 51.999s17.5 39.5 23.5 60.5s10.167 42.5 12.5 64.5s3.5 43 3.5 63
c0 6 -0.166992 15.167 -0.5 27.5s-1.66602 26.5 -3.99902 42.5s-5.66602 33.167 -9.99902 51.5s-10.5 36.5 -18.5 54.5c-3.33301 7.33301 -9.33301 18.333 -18 33s-21.334 29.334 -38.001 44.001c-9.33301 8 -23.166 17.167 -41.499 27.5s-42.5 15.5 -72.5 15.5
c-8.66699 0 -18.834 -0.833008 -30.501 -2.5s-24 -5.33398 -37 -11.001s-26.333 -13.667 -40 -24s-26.834 -24.5 -39.501 -42.5c-14 -19.333 -24.667 -40.5 -32 -63.5s-12.833 -45 -16.5 -66s-5.83398 -39.333 -6.50098 -55s-1 -26.167 -1 -31.5zM52.998 353.001
c0 10 0.832031 27.334 2.49902 52.001s6.66699 52.334 15 83.001s21.333 62 39 94s42.5 60 74.5 84c16 12 31.667 21.5 47 28.5s30 12.333 44 16s26.667 6 38 7s20.666 1.5 27.999 1.5c31.333 0 59.166 -4.33301 83.499 -13s45.5 -19.167 63.5 -31.5s33 -25.166 45 -38.499
s21 -24.333 27 -33c8 -10.667 16 -23.834 24 -39.501s15.333 -33.834 22 -54.501s12.167 -43.834 16.5 -69.501s6.5 -54.5 6.5 -86.5c0 -29.333 -2.33301 -58.833 -7 -88.5s-12.167 -58.5 -22.5 -86.5s-24.166 -54.167 -41.499 -78.5s-38.666 -45.5 -63.999 -63.5
c-6 -4 -13.667 -8.83301 -23 -14.5s-20.333 -11 -33 -16s-27.167 -9.16699 -43.5 -12.5s-34.166 -5 -53.499 -5c-11.333 0 -28.5 1.66699 -51.5 5s-47.833 12 -74.5 26c-18.667 10 -37.5 24 -56.5 42s-36.333 40.5 -52 67.5s-28.5 59 -38.5 96s-15 79.833 -15 128.5z" />
    <glyph glyph-name="Odieresis" unicode="&#xd6;" horiz-adv-x="682" 
d="M341 57c9.33301 0 20.8311 1.16699 34.498 3.5s27.834 7.16602 42.501 14.499s29.334 17.5 44.001 30.5s28 30.5 40 52.5c9.33301 17.333 18.666 42.166 27.999 74.499s14 72.5 14 120.5c0 9.33301 -0.5 24.333 -1.5 45s-4.5 43.667 -10.5 69
c-8.66699 36 -20.334 65.833 -35.001 89.5s-30.834 42.334 -48.501 56.001s-36 23.167 -55 28.5s-36.5 8 -52.5 8c-8.66699 0 -19.5 -1 -32.5 -3s-26.5 -6.33301 -40.5 -13s-28.333 -16 -43 -28s-28 -28 -40 -48c-17.333 -30 -29.5 -63.167 -36.5 -99.5
s-10.5 -71.166 -10.5 -104.499c0 -27.333 1.33301 -50.5 4 -69.5s5.33398 -33.833 8.00098 -44.5c8.66699 -36 20.334 -65.667 35.001 -89s30.834 -42 48.501 -56s36 -23.667 55 -29s36.5 -8 52.5 -8zM340.998 -12c-8 0 -17.833 0.499023 -29.5 1.49902
s-24.5 3.33301 -38.5 7s-29 9.16699 -45 16.5s-32 17.333 -48 30c-9.33301 8 -18.5 16.5 -27.5 25.5s-17.167 18.5 -24.5 28.5c-8.66699 11.333 -17.334 24.833 -26.001 40.5s-16.667 34 -24 55s-13.333 44.667 -18 71s-7 56.166 -7 89.499c0 35.333 2 64.166 6 86.499
s8.33301 40.833 13 55.5c9.33301 31.333 22 60.666 38 87.999s35.5 51 58.5 71s49 35.833 78 47.5s60.5 17.5 94.5 17.5c10.667 0 23.5 -0.833008 38.5 -2.5s31.333 -5.66699 49 -12s35.834 -15.5 54.501 -27.5s37 -28 55 -48c22.667 -25.333 40.167 -52.166 52.5 -80.499
s21.333 -55.166 27 -80.499s9 -48.333 10 -69s1.5 -36 1.5 -46c0 -9.33301 -0.333008 -22.5 -1 -39.5s-3 -36.333 -7 -58s-10.167 -44.667 -18.5 -69s-20.5 -48.5 -36.5 -72.5c-6 -9.33301 -15 -21.166 -27 -35.499s-27.167 -28.166 -45.5 -41.499s-40 -24.833 -65 -34.5
s-54.167 -14.5 -87.5 -14.5zM435.998 888.999c16.667 0 30.8359 -5.83105 42.5029 -17.498s17.5 -25.834 17.5 -42.501c0 -16 -5.83301 -30 -17.5 -42s-25.834 -18 -42.501 -18c-16.667 0.666992 -30.834 6.66699 -42.501 18s-17.5 25.666 -17.5 42.999
c0 16.667 5.66699 30.667 17 42s25.666 17 42.999 17zM247 889.001c17.333 0 31.666 -5.66602 42.999 -16.999s17 -25.666 17 -42.999c0 -16.667 -5.83301 -30.834 -17.5 -42.501s-26.167 -17.5 -43.5 -17.5c-16 0.666992 -29.833 6.66699 -41.5 18
s-17.5 25.666 -17.5 42.999c0 16.667 5.83301 30.667 17.5 42s25.834 17 42.501 17z" />
    <glyph glyph-name="Oslash" unicode="&#xd8;" horiz-adv-x="682" 
d="M201 116c4 -5.33301 8.66602 -10.002 13.999 -14.002c4 -3.33301 9.5 -7.5 16.5 -12.5s15.5 -9.83301 25.5 -14.5s21.5 -8.66699 34.5 -12s26.833 -5 41.5 -5c10.667 0 25.834 1.83301 45.501 5.5s40.167 13.834 61.5 30.501c25.333 20 44.833 44.5 58.5 73.5
s23.5 57.333 29.5 85s9.5 52.334 10.5 74.001s1.5 34.834 1.5 39.501c0 37.333 -2.83301 68.166 -8.5 92.499s-11.167 43.5 -16.5 57.5c-4 12 -9 22.667 -15 32zM469.999 591.998c-5.33301 6 -9.16602 9.99902 -11.499 11.999s-5.5 4.33301 -9.5 7
c-7.33301 6 -20.5 13.833 -39.5 23.5s-42.5 14.5 -70.5 14.5c-6 0 -13.5 -0.5 -22.5 -1.5s-18.833 -3.16699 -29.5 -6.5s-22 -8.5 -34 -15.5s-23.667 -16.167 -35 -27.5c-16 -16 -29.5 -34.333 -40.5 -55s-19.833 -42.334 -26.5 -65.001s-11.334 -45.667 -14.001 -69
s-4 -45.666 -4 -66.999c0 -4.66699 0.166992 -12 0.5 -22s1.16602 -21.333 2.49902 -34s3.5 -26.5 6.5 -41.5s7.16699 -29.833 12.5 -44.5c2.66699 -7.33301 5.33398 -14.166 8.00098 -20.499s5.66699 -12.833 9 -19.5zM555.999 705.997l62.001 -0.00292969l-66 -92
c1.33301 -2 4.5 -6.33301 9.5 -13s9.5 -13.667 13.5 -21c11.333 -20 22.5 -47.833 33.5 -83.5s16.5 -80.167 16.5 -133.5c0 -11.333 -1.16699 -31.166 -3.5 -59.499s-8.16602 -58.833 -17.499 -91.5c-9.33301 -30.667 -22.333 -59.5 -39 -86.5s-36.334 -50.667 -59.001 -71
s-48.5 -36.5 -77.5 -48.5s-60.5 -18 -94.5 -18c-8 0 -18.5 0.666992 -31.5 2s-27.667 4.16602 -44 8.49902s-33.333 11 -51 20s-35.167 21.167 -52.5 36.5l-40 -55h-60l66 92c-7.33301 9.33301 -12.333 16.333 -15 21l-9 15c-10 19.333 -20.5 46.5 -31.5 81.5
s-16.5 79.5 -16.5 133.5c0 10 0.5 25.5 1.5 46.5s4.33301 44.5 10 70.5s14.667 53.333 27 82s29.833 56.334 52.5 83.001c6.66699 7.33301 15.5 16.333 26.5 27s24.833 21 41.5 31s35.834 18.5 57.501 25.5s46.167 10.5 73.5 10.5c7.33301 0 16.5 -0.5 27.5 -1.5
s23.167 -3 36.5 -6s27.666 -7.66699 42.999 -14s30.666 -14.833 45.999 -25.5c4.66699 -3.33301 9 -6.66602 13 -9.99902s8.33301 -6.66602 13 -9.99902z" />
    <glyph glyph-name="Ugrave" unicode="&#xd9;" horiz-adv-x="661" 
d="M310 757l-176 145h106l147 -145h-77zM160 706l-0.00195312 -478.005c0.666992 -6.66699 1 -13 1 -19s0.666992 -12.333 2 -19c2 -18.667 6 -34.5 12 -47.5s12.667 -23.833 20 -32.5s15.166 -15.667 23.499 -21s15.833 -9.66602 22.5 -12.999
c8 -3.33301 19.667 -7.16602 35 -11.499s33.666 -6.5 54.999 -6.5c3.33301 0 9.83301 0.333008 19.5 1s20.834 2.33398 33.501 5.00098s25.834 7.16699 39.501 13.5s25.834 14.833 36.501 25.5c6.66699 7.33301 12.334 14.833 17.001 22.5s8.66699 15.834 12 24.501
c3.33301 9.33301 5.83301 18.333 7.5 27s2.83398 18.334 3.50098 29.001s1 22.834 1 36.501v48.5v415h79v-417c1.33301 -21.333 1.33301 -42.666 0 -63.999c-1.33301 -40 -5.5 -70.5 -12.5 -91.5s-16.167 -39.167 -27.5 -54.5
c-7.33301 -10.667 -16.833 -21.334 -28.5 -32.001s-26 -20.334 -43 -29.001s-36.833 -15.834 -59.5 -21.501s-49 -8.5 -79 -8.5c-36 0 -67.333 4.33301 -94 13s-49.334 19.5 -68.001 32.5s-33.667 27.333 -45 43s-20 30.5 -26 44.5c-4 10.667 -7 21.334 -9 32.001
s-3.5 22.5 -4.5 35.5s-1.66699 27.667 -2 44s-0.5 35.5 -0.5 57.5v416h79z" />
    <glyph glyph-name="Uacute" unicode="&#xda;" horiz-adv-x="661" 
d="M429 902h107l-176 -145h-77zM160 706l-0.00195312 -478.005c0.666992 -6.66699 1 -13 1 -19s0.666992 -12.333 2 -19c2 -18.667 6 -34.5 12 -47.5s12.667 -23.833 20 -32.5s15.166 -15.667 23.499 -21s15.833 -9.66602 22.5 -12.999
c8 -3.33301 19.667 -7.16602 35 -11.499s33.666 -6.5 54.999 -6.5c3.33301 0 9.83301 0.333008 19.5 1s20.834 2.33398 33.501 5.00098s25.834 7.16699 39.501 13.5s25.834 14.833 36.501 25.5c6.66699 7.33301 12.334 14.833 17.001 22.5s8.66699 15.834 12 24.501
c3.33301 9.33301 5.83301 18.333 7.5 27s2.83398 18.334 3.50098 29.001s1 22.834 1 36.501v48.5v415h79v-417c1.33301 -21.333 1.33301 -42.666 0 -63.999c-1.33301 -40 -5.5 -70.5 -12.5 -91.5s-16.167 -39.167 -27.5 -54.5
c-7.33301 -10.667 -16.833 -21.334 -28.5 -32.001s-26 -20.334 -43 -29.001s-36.833 -15.834 -59.5 -21.501s-49 -8.5 -79 -8.5c-36 0 -67.333 4.33301 -94 13s-49.334 19.5 -68.001 32.5s-33.667 27.333 -45 43s-20 30.5 -26 44.5c-4 10.667 -7 21.334 -9 32.001
s-3.5 22.5 -4.5 35.5s-1.66699 27.667 -2 44s-0.5 35.5 -0.5 57.5v416h79z" />
    <glyph glyph-name="Ucircumflex" unicode="&#xdb;" horiz-adv-x="661" 
d="M288 899h85l138 -139h-73l-107 93l-107 -93h-73zM160 706l-0.00195312 -478.005c0.666992 -6.66699 1 -13 1 -19s0.666992 -12.333 2 -19c2 -18.667 6 -34.5 12 -47.5s12.667 -23.833 20 -32.5s15.166 -15.667 23.499 -21s15.833 -9.66602 22.5 -12.999
c8 -3.33301 19.667 -7.16602 35 -11.499s33.666 -6.5 54.999 -6.5c3.33301 0 9.83301 0.333008 19.5 1s20.834 2.33398 33.501 5.00098s25.834 7.16699 39.501 13.5s25.834 14.833 36.501 25.5c6.66699 7.33301 12.334 14.833 17.001 22.5s8.66699 15.834 12 24.501
c3.33301 9.33301 5.83301 18.333 7.5 27s2.83398 18.334 3.50098 29.001s1 22.834 1 36.501v48.5v415h79v-417c1.33301 -21.333 1.33301 -42.666 0 -63.999c-1.33301 -40 -5.5 -70.5 -12.5 -91.5s-16.167 -39.167 -27.5 -54.5
c-7.33301 -10.667 -16.833 -21.334 -28.5 -32.001s-26 -20.334 -43 -29.001s-36.833 -15.834 -59.5 -21.501s-49 -8.5 -79 -8.5c-36 0 -67.333 4.33301 -94 13s-49.334 19.5 -68.001 32.5s-33.667 27.333 -45 43s-20 30.5 -26 44.5c-4 10.667 -7 21.334 -9 32.001
s-3.5 22.5 -4.5 35.5s-1.66699 27.667 -2 44s-0.5 35.5 -0.5 57.5v416h79z" />
    <glyph glyph-name="Udieresis" unicode="&#xdc;" horiz-adv-x="661" 
d="M160 706l-0.00195312 -478.005c0.666992 -6.66699 1 -13 1 -19s0.666992 -12.333 2 -19c2 -18.667 6 -34.5 12 -47.5s12.667 -23.833 20 -32.5s15.166 -15.667 23.499 -21s15.833 -9.66602 22.5 -12.999c8 -3.33301 19.667 -7.16602 35 -11.499s33.666 -6.5 54.999 -6.5
c3.33301 0 9.83301 0.333008 19.5 1s20.834 2.33398 33.501 5.00098s25.834 7.16699 39.501 13.5s25.834 14.833 36.501 25.5c6.66699 7.33301 12.334 14.833 17.001 22.5s8.66699 15.834 12 24.501c3.33301 9.33301 5.83301 18.333 7.5 27s2.83398 18.334 3.50098 29.001
s1 22.834 1 36.501v48.5v415h79v-417c1.33301 -21.333 1.33301 -42.666 0 -63.999c-1.33301 -40 -5.5 -70.5 -12.5 -91.5s-16.167 -39.167 -27.5 -54.5c-7.33301 -10.667 -16.833 -21.334 -28.5 -32.001s-26 -20.334 -43 -29.001s-36.833 -15.834 -59.5 -21.501
s-49 -8.5 -79 -8.5c-36 0 -67.333 4.33301 -94 13s-49.334 19.5 -68.001 32.5s-33.667 27.333 -45 43s-20 30.5 -26 44.5c-4 10.667 -7 21.334 -9 32.001s-3.5 22.5 -4.5 35.5s-1.66699 27.667 -2 44s-0.5 35.5 -0.5 57.5v416h79zM424.998 888.995
c17.333 0 31.666 -5.83105 42.999 -17.498s17 -25.834 17 -42.501s-5.83301 -30.834 -17.5 -42.501s-25.834 -17.5 -42.501 -17.5c-17.333 0 -31.666 6 -42.999 18s-17 26.333 -17 43s5.83301 30.667 17.5 42s25.834 17 42.501 17zM235.998 888.997
c17.333 0 31.666 -5.66992 42.999 -17.0029s17 -25.666 17 -42.999c0 -16.667 -5.83301 -30.834 -17.5 -42.501s-25.834 -17.5 -42.501 -17.5c-17.333 0.666992 -31.666 6.83398 -42.999 18.501s-17 25.834 -17 42.501s5.83301 30.834 17.5 42.501
s25.834 17.167 42.501 16.5z" />
    <glyph glyph-name="germandbls" unicode="&#xdf;" horiz-adv-x="536" 
d="M73 450l-0.00195312 41.999c0 14.667 0.5 29.667 1.5 45s2.83301 30.166 5.5 44.499s6.66699 27.5 12 39.5c7.33301 16.667 17 30.834 29 42.501s25.333 21.334 40 29.001s30.334 13.167 47.001 16.5s33.334 5 50.001 5c22.667 0 44.834 -3.16699 66.501 -9.5
s41.167 -16.833 58.5 -31.5c5.33301 -4 11.333 -9.66699 18 -17s13 -16.166 19 -26.499s11 -22.5 15 -36.5s6 -29.667 6 -47c0 -6 -0.666992 -14.167 -2 -24.5s-4.33301 -21.5 -9 -33.5s-11.667 -24 -21 -36s-22 -22.667 -38 -32c-8 -5.33301 -16 -9.33301 -24 -12
s-16.667 -5.33398 -26 -8.00098c8 -1.33301 20 -4.16602 36 -8.49902s33.333 -12.833 52 -25.5c8.66699 -6 17.667 -13.333 27 -22s17.833 -19.667 25.5 -33s14 -29 19 -47s7.5 -39 7.5 -63c0 -8 -0.5 -19 -1.5 -33s-4.83301 -30.667 -11.5 -50
c-13.333 -37.333 -34.666 -67.5 -63.999 -90.5s-64.333 -34.5 -105 -34.5c-19.333 0 -35.333 2.16699 -48 6.5s-22.667 8.16602 -30 11.499l1 67c2.66699 -1.33301 5.16699 -2.66602 7.5 -3.99902s4.83301 -2.66602 7.5 -3.99902c3.33301 -1.33301 10.333 -3.5 21 -6.5
s22.667 -4.5 36 -4.5c3.33301 0 9.33301 0.5 18 1.5s17.667 3.83301 27 8.5c16 7.33301 31 21.5 45 42.5s21 51.167 21 90.5c0 5.33301 -0.333008 12.666 -1 21.999s-2.83398 19.666 -6.50098 30.999s-9 23 -16 35s-16.833 23 -29.5 33
c-5.33301 4.66699 -12.5 9.5 -21.5 14.5s-21.167 9.83301 -36.5 14.5c-11.333 3.33301 -23.833 6.5 -37.5 9.5s-32.167 4.5 -55.5 4.5v64c4.66699 -0.666992 12.334 -1.16699 23.001 -1.5s22.667 0.833984 36 3.50098c6 1.33301 14.5 3.66602 25.5 6.99902
s21.833 9.16602 32.5 17.499s20 19.333 28 33s12 30.834 12 51.501c0 34 -9.83301 60.667 -29.5 80s-46.5 29 -80.5 29c-4 0 -11.167 -0.5 -21.5 -1.5s-21.166 -4.5 -32.499 -10.5c-12.667 -6.66699 -22.834 -15.167 -30.501 -25.5s-13.334 -23 -17.001 -38
s-5.83398 -32.5 -6.50098 -52.5s-0.666992 -42.667 0 -68v-454h-74v450z" />
    <glyph glyph-name="agrave" unicode="&#xe0;" horiz-adv-x="505" 
d="M256 580l-154 144h107l109 -144h-62zM355 272c-39.333 -7.33301 -71.5 -14.335 -96.5 -21.002s-45.5 -13.667 -61.5 -21c-3.33301 -1.33301 -8.83301 -4.16602 -16.5 -8.49902s-15.5 -10.166 -23.5 -17.499s-15 -16.5 -21 -27.5s-9 -24.167 -9 -39.5
c0 -28.667 9.5 -50.5 28.5 -65.5s41.833 -22.5 68.5 -22.5c21.333 0 41.5 4.5 60.5 13.5s34.5 22.833 46.5 41.5c9.33301 14 15.5 29.333 18.5 46s4.83301 40.667 5.5 72v50zM68 370.998c0 3.33301 0.666992 9.50684 2 18.5068s4 18.5 8 28.5
c4.66699 12 11.334 23.833 20.001 35.5s20 22.167 34 31.5s31.167 16.833 51.5 22.5s44.5 8.5 72.5 8.5c4 0 13.333 -0.333008 28 -1s30.5 -3.66699 47.5 -9s33.5 -14 49.5 -26s28 -29 36 -51c5.33301 -12.667 8.33301 -26.834 9 -42.501s1.33398 -37.834 2.00098 -66.501
v-188c0 -17.333 0.166992 -32.333 0.5 -45s1 -24.167 2 -34.5s2.5 -19.666 4.5 -27.999s4.33301 -16.5 7 -24.5h-71c-2 7.33301 -3.66699 13.666 -5 18.999s-2.33301 10.166 -3 14.499s-1.33398 9.16602 -2.00098 14.499s-1.33398 11.666 -2.00098 18.999
c-4.66699 -8.66699 -9.33398 -16 -14.001 -22s-10.667 -12.333 -18 -19c-10 -9.33301 -24 -18.166 -42 -26.499s-42.333 -12.5 -73 -12.5c-26 0 -47.167 3 -63.5 9s-29.166 12 -38.499 18c-6 4 -12.5 9.16699 -19.5 15.5s-13.5 14.166 -19.5 23.499s-11 20.5 -15 33.5
s-6 28.167 -6 45.5c0 7.33301 0.666992 16 2 26s4.33301 20.667 9 32s11.5 23 20.5 35s21.167 23 36.5 33s33 18.667 53 26s40.833 13.666 62.5 18.999s43.167 10 64.5 14s40.333 7.33301 57 10v22c0 14.667 -0.333008 25.167 -1 31.5s-2.33398 13.166 -5.00098 20.499
c-7.33301 20.667 -20.166 34.5 -38.499 41.5s-37.166 10.5 -56.499 10.5c-6 0 -14.667 -0.5 -26 -1.5s-22.833 -4 -34.5 -9s-22.334 -13 -32.001 -24s-16.167 -26.833 -19.5 -47.5h-74z" />
    <glyph glyph-name="aacute" unicode="&#xe1;" horiz-adv-x="505" 
d="M320 724h107l-155 -144h-61zM355 272c-39.333 -7.33301 -71.5 -14.335 -96.5 -21.002s-45.5 -13.667 -61.5 -21c-3.33301 -1.33301 -8.83301 -4.16602 -16.5 -8.49902s-15.5 -10.166 -23.5 -17.499s-15 -16.5 -21 -27.5s-9 -24.167 -9 -39.5
c0 -28.667 9.5 -50.5 28.5 -65.5s41.833 -22.5 68.5 -22.5c21.333 0 41.5 4.5 60.5 13.5s34.5 22.833 46.5 41.5c9.33301 14 15.5 29.333 18.5 46s4.83301 40.667 5.5 72v50zM68 370.998c0 3.33301 0.666992 9.50684 2 18.5068s4 18.5 8 28.5
c4.66699 12 11.334 23.833 20.001 35.5s20 22.167 34 31.5s31.167 16.833 51.5 22.5s44.5 8.5 72.5 8.5c4 0 13.333 -0.333008 28 -1s30.5 -3.66699 47.5 -9s33.5 -14 49.5 -26s28 -29 36 -51c5.33301 -12.667 8.33301 -26.834 9 -42.501s1.33398 -37.834 2.00098 -66.501
v-188c0 -17.333 0.166992 -32.333 0.5 -45s1 -24.167 2 -34.5s2.5 -19.666 4.5 -27.999s4.33301 -16.5 7 -24.5h-71c-2 7.33301 -3.66699 13.666 -5 18.999s-2.33301 10.166 -3 14.499s-1.33398 9.16602 -2.00098 14.499s-1.33398 11.666 -2.00098 18.999
c-4.66699 -8.66699 -9.33398 -16 -14.001 -22s-10.667 -12.333 -18 -19c-10 -9.33301 -24 -18.166 -42 -26.499s-42.333 -12.5 -73 -12.5c-26 0 -47.167 3 -63.5 9s-29.166 12 -38.499 18c-6 4 -12.5 9.16699 -19.5 15.5s-13.5 14.166 -19.5 23.499s-11 20.5 -15 33.5
s-6 28.167 -6 45.5c0 7.33301 0.666992 16 2 26s4.33301 20.667 9 32s11.5 23 20.5 35s21.167 23 36.5 33s33 18.667 53 26s40.833 13.666 62.5 18.999s43.167 10 64.5 14s40.333 7.33301 57 10v22c0 14.667 -0.333008 25.167 -1 31.5s-2.33398 13.166 -5.00098 20.499
c-7.33301 20.667 -20.166 34.5 -38.499 41.5s-37.166 10.5 -56.499 10.5c-6 0 -14.667 -0.5 -26 -1.5s-22.833 -4 -34.5 -9s-22.334 -13 -32.001 -24s-16.167 -26.833 -19.5 -47.5h-74z" />
    <glyph glyph-name="acircumflex" unicode="&#xe2;" horiz-adv-x="505" 
d="M210 731h85l120 -149h-72l-90 100l-91 -100h-72zM355 272c-39.333 -7.33301 -71.5 -14.335 -96.5 -21.002s-45.5 -13.667 -61.5 -21c-3.33301 -1.33301 -8.83301 -4.16602 -16.5 -8.49902s-15.5 -10.166 -23.5 -17.499s-15 -16.5 -21 -27.5s-9 -24.167 -9 -39.5
c0 -28.667 9.5 -50.5 28.5 -65.5s41.833 -22.5 68.5 -22.5c21.333 0 41.5 4.5 60.5 13.5s34.5 22.833 46.5 41.5c9.33301 14 15.5 29.333 18.5 46s4.83301 40.667 5.5 72v50zM68 370.998c0 3.33301 0.666992 9.50684 2 18.5068s4 18.5 8 28.5
c4.66699 12 11.334 23.833 20.001 35.5s20 22.167 34 31.5s31.167 16.833 51.5 22.5s44.5 8.5 72.5 8.5c4 0 13.333 -0.333008 28 -1s30.5 -3.66699 47.5 -9s33.5 -14 49.5 -26s28 -29 36 -51c5.33301 -12.667 8.33301 -26.834 9 -42.501s1.33398 -37.834 2.00098 -66.501
v-188c0 -17.333 0.166992 -32.333 0.5 -45s1 -24.167 2 -34.5s2.5 -19.666 4.5 -27.999s4.33301 -16.5 7 -24.5h-71c-2 7.33301 -3.66699 13.666 -5 18.999s-2.33301 10.166 -3 14.499s-1.33398 9.16602 -2.00098 14.499s-1.33398 11.666 -2.00098 18.999
c-4.66699 -8.66699 -9.33398 -16 -14.001 -22s-10.667 -12.333 -18 -19c-10 -9.33301 -24 -18.166 -42 -26.499s-42.333 -12.5 -73 -12.5c-26 0 -47.167 3 -63.5 9s-29.166 12 -38.499 18c-6 4 -12.5 9.16699 -19.5 15.5s-13.5 14.166 -19.5 23.499s-11 20.5 -15 33.5
s-6 28.167 -6 45.5c0 7.33301 0.666992 16 2 26s4.33301 20.667 9 32s11.5 23 20.5 35s21.167 23 36.5 33s33 18.667 53 26s40.833 13.666 62.5 18.999s43.167 10 64.5 14s40.333 7.33301 57 10v22c0 14.667 -0.333008 25.167 -1 31.5s-2.33398 13.166 -5.00098 20.499
c-7.33301 20.667 -20.166 34.5 -38.499 41.5s-37.166 10.5 -56.499 10.5c-6 0 -14.667 -0.5 -26 -1.5s-22.833 -4 -34.5 -9s-22.334 -13 -32.001 -24s-16.167 -26.833 -19.5 -47.5h-74z" />
    <glyph glyph-name="atilde" unicode="&#xe3;" horiz-adv-x="505" 
d="M95 603c0 2 0.665039 6.5 1.99805 13.5s3.66602 15.167 6.99902 24.5s7.66602 18.833 12.999 28.5s12.333 18.167 21 25.5c9.33301 8 18.333 13 27 15s15.334 3 20.001 3c14.667 -0.666992 28.334 -4.33398 41.001 -11.001s24.667 -13.667 36 -21
c12.667 -8 23.5 -14.333 32.5 -19s17.167 -7 24.5 -7c2 0 5.16699 0.5 9.5 1.5s8.5 3.16699 12.5 6.5c5.33301 3.33301 10.333 9.5 15 18.5s8.33398 20.833 11.001 35.5l44 -11c-0.666992 -2.66699 -1.5 -8 -2.5 -16s-3.16699 -16.833 -6.5 -26.5s-8 -19.5 -14 -29.5
s-14 -18.667 -24 -26c-9.33301 -7.33301 -17.666 -11.666 -24.999 -12.999s-13.333 -2 -18 -2c-11.333 0 -23 2.66699 -35 8s-27.667 14 -47 26c-12.667 8 -23 14 -31 18s-15.667 5.66699 -23 5c-23.333 0 -39 -19.333 -47 -58zM354.998 272
c-39.333 -7.33301 -71.5 -14.335 -96.5 -21.002s-45.5 -13.667 -61.5 -21c-3.33301 -1.33301 -8.83301 -4.16602 -16.5 -8.49902s-15.5 -10.166 -23.5 -17.499s-15 -16.5 -21 -27.5s-9 -24.167 -9 -39.5c0 -28.667 9.5 -50.5 28.5 -65.5s41.833 -22.5 68.5 -22.5
c21.333 0 41.5 4.5 60.5 13.5s34.5 22.833 46.5 41.5c9.33301 14 15.5 29.333 18.5 46s4.83301 40.667 5.5 72v50zM67.998 370.998c0 3.33301 0.666992 9.50684 2 18.5068s4 18.5 8 28.5c4.66699 12 11.334 23.833 20.001 35.5s20 22.167 34 31.5s31.167 16.833 51.5 22.5
s44.5 8.5 72.5 8.5c4 0 13.333 -0.333008 28 -1s30.5 -3.66699 47.5 -9s33.5 -14 49.5 -26s28 -29 36 -51c5.33301 -12.667 8.33301 -26.834 9 -42.501s1.33398 -37.834 2.00098 -66.501v-188c0 -17.333 0.166992 -32.333 0.5 -45s1 -24.167 2 -34.5
s2.5 -19.666 4.5 -27.999s4.33301 -16.5 7 -24.5h-71c-2 7.33301 -3.66699 13.666 -5 18.999s-2.33301 10.166 -3 14.499s-1.33398 9.16602 -2.00098 14.499s-1.33398 11.666 -2.00098 18.999c-4.66699 -8.66699 -9.33398 -16 -14.001 -22s-10.667 -12.333 -18 -19
c-10 -9.33301 -24 -18.166 -42 -26.499s-42.333 -12.5 -73 -12.5c-26 0 -47.167 3 -63.5 9s-29.166 12 -38.499 18c-6 4 -12.5 9.16699 -19.5 15.5s-13.5 14.166 -19.5 23.499s-11 20.5 -15 33.5s-6 28.167 -6 45.5c0 7.33301 0.666992 16 2 26s4.33301 20.667 9 32
s11.5 23 20.5 35s21.167 23 36.5 33s33 18.667 53 26s40.833 13.666 62.5 18.999s43.167 10 64.5 14s40.333 7.33301 57 10v22c0 14.667 -0.333008 25.167 -1 31.5s-2.33398 13.166 -5.00098 20.499c-7.33301 20.667 -20.166 34.5 -38.499 41.5s-37.166 10.5 -56.499 10.5
c-6 0 -14.667 -0.5 -26 -1.5s-22.833 -4 -34.5 -9s-22.334 -13 -32.001 -24s-16.167 -26.833 -19.5 -47.5h-74z" />
    <glyph glyph-name="adieresis" unicode="&#xe4;" horiz-adv-x="505" 
d="M360 723c15.333 0 28.499 -5.49902 39.499 -16.499s16.5 -24.167 16.5 -39.5s-5.5 -28.5 -16.5 -39.5s-24.167 -16.5 -39.5 -16.5s-28.5 5.66699 -39.5 17s-16.5 24.666 -16.5 39.999c0.666992 15.333 6.33398 28.333 17.001 39s23.667 16 39 16zM144.999 723.001
c15.333 0 28.333 -5.49902 39 -16.499s16 -24.167 16 -39.5s-5.5 -28.5 -16.5 -39.5s-24.167 -16.5 -39.5 -16.5s-28.333 5.66699 -39 17s-16 24.666 -16 39.999s5.5 28.333 16.5 39s24.167 16 39.5 16zM354.999 272.002c-39.333 -7.33301 -71.5 -14.335 -96.5 -21.002
s-45.5 -13.667 -61.5 -21c-3.33301 -1.33301 -8.83301 -4.16602 -16.5 -8.49902s-15.5 -10.166 -23.5 -17.499s-15 -16.5 -21 -27.5s-9 -24.167 -9 -39.5c0 -28.667 9.5 -50.5 28.5 -65.5s41.833 -22.5 68.5 -22.5c21.333 0 41.5 4.5 60.5 13.5s34.5 22.833 46.5 41.5
c9.33301 14 15.5 29.333 18.5 46s4.83301 40.667 5.5 72v50zM67.999 371c0 3.33301 0.666992 9.50684 2 18.5068s4 18.5 8 28.5c4.66699 12 11.334 23.833 20.001 35.5s20 22.167 34 31.5s31.167 16.833 51.5 22.5s44.5 8.5 72.5 8.5c4 0 13.333 -0.333008 28 -1
s30.5 -3.66699 47.5 -9s33.5 -14 49.5 -26s28 -29 36 -51c5.33301 -12.667 8.33301 -26.834 9 -42.501s1.33398 -37.834 2.00098 -66.501v-188c0 -17.333 0.166992 -32.333 0.5 -45s1 -24.167 2 -34.5s2.5 -19.666 4.5 -27.999s4.33301 -16.5 7 -24.5h-71
c-2 7.33301 -3.66699 13.666 -5 18.999s-2.33301 10.166 -3 14.499s-1.33398 9.16602 -2.00098 14.499s-1.33398 11.666 -2.00098 18.999c-4.66699 -8.66699 -9.33398 -16 -14.001 -22s-10.667 -12.333 -18 -19c-10 -9.33301 -24 -18.166 -42 -26.499
s-42.333 -12.5 -73 -12.5c-26 0 -47.167 3 -63.5 9s-29.166 12 -38.499 18c-6 4 -12.5 9.16699 -19.5 15.5s-13.5 14.166 -19.5 23.499s-11 20.5 -15 33.5s-6 28.167 -6 45.5c0 7.33301 0.666992 16 2 26s4.33301 20.667 9 32s11.5 23 20.5 35s21.167 23 36.5 33
s33 18.667 53 26s40.833 13.666 62.5 18.999s43.167 10 64.5 14s40.333 7.33301 57 10v22c0 14.667 -0.333008 25.167 -1 31.5s-2.33398 13.166 -5.00098 20.499c-7.33301 20.667 -20.166 34.5 -38.499 41.5s-37.166 10.5 -56.499 10.5c-6 0 -14.667 -0.5 -26 -1.5
s-22.833 -4 -34.5 -9s-22.334 -13 -32.001 -24s-16.167 -26.833 -19.5 -47.5h-74z" />
    <glyph glyph-name="aring" unicode="&#xe5;" horiz-adv-x="505" 
d="M264 725c-14.667 0 -27 -5.16699 -37 -15.5s-15 -22.5 -15 -36.5c0 -15.333 5.16699 -27.833 15.5 -37.5s22.833 -14.5 37.5 -14.5s27 5.16699 37 15.5s15 22.5 15 36.5c0 14.667 -5.16699 27 -15.5 37s-22.833 15 -37.5 15zM265 771c13.333 0 26 -2.66699 38 -8
s22.333 -12.5 31 -21.5s15.5 -19.333 20.5 -31s7.5 -24.167 7.5 -37.5c0 -14 -2.5 -26.833 -7.5 -38.5s-12 -22 -21 -31s-19.333 -16 -31 -21s-24.167 -7.5 -37.5 -7.5c-4 0 -9.5 0.5 -16.5 1.5s-14.5 3.16699 -22.5 6.5c-18 7.33301 -32.333 19.333 -43 36
s-16 34.667 -16 54c0 27.333 9.33301 50.5 28 69.5s42 28.5 70 28.5zM355 272c-39.333 -7.33301 -71.5 -14.335 -96.5 -21.002s-45.5 -13.667 -61.5 -21c-3.33301 -1.33301 -8.83301 -4.16602 -16.5 -8.49902s-15.5 -10.166 -23.5 -17.499s-15 -16.5 -21 -27.5
s-9 -24.167 -9 -39.5c0 -28.667 9.5 -50.5 28.5 -65.5s41.833 -22.5 68.5 -22.5c21.333 0 41.5 4.5 60.5 13.5s34.5 22.833 46.5 41.5c9.33301 14 15.5 29.333 18.5 46s4.83301 40.667 5.5 72v50zM68 370.998c0 3.33301 0.666992 9.50684 2 18.5068s4 18.5 8 28.5
c4.66699 12 11.334 23.833 20.001 35.5s20 22.167 34 31.5s31.167 16.833 51.5 22.5s44.5 8.5 72.5 8.5c4 0 13.333 -0.333008 28 -1s30.5 -3.66699 47.5 -9s33.5 -14 49.5 -26s28 -29 36 -51c5.33301 -12.667 8.33301 -26.834 9 -42.501s1.33398 -37.834 2.00098 -66.501
v-188c0 -17.333 0.166992 -32.333 0.5 -45s1 -24.167 2 -34.5s2.5 -19.666 4.5 -27.999s4.33301 -16.5 7 -24.5h-71c-2 7.33301 -3.66699 13.666 -5 18.999s-2.33301 10.166 -3 14.499s-1.33398 9.16602 -2.00098 14.499s-1.33398 11.666 -2.00098 18.999
c-4.66699 -8.66699 -9.33398 -16 -14.001 -22s-10.667 -12.333 -18 -19c-10 -9.33301 -24 -18.166 -42 -26.499s-42.333 -12.5 -73 -12.5c-26 0 -47.167 3 -63.5 9s-29.166 12 -38.499 18c-6 4 -12.5 9.16699 -19.5 15.5s-13.5 14.166 -19.5 23.499s-11 20.5 -15 33.5
s-6 28.167 -6 45.5c0 7.33301 0.666992 16 2 26s4.33301 20.667 9 32s11.5 23 20.5 35s21.167 23 36.5 33s33 18.667 53 26s40.833 13.666 62.5 18.999s43.167 10 64.5 14s40.333 7.33301 57 10v22c0 14.667 -0.333008 25.167 -1 31.5s-2.33398 13.166 -5.00098 20.499
c-7.33301 20.667 -20.166 34.5 -38.499 41.5s-37.166 10.5 -56.499 10.5c-6 0 -14.667 -0.5 -26 -1.5s-22.833 -4 -34.5 -9s-22.334 -13 -32.001 -24s-16.167 -26.833 -19.5 -47.5h-74z" />
    <glyph glyph-name="ae" unicode="&#xe6;" horiz-adv-x="818" 
d="M348 241l-21.002 -0.00195312c-11.333 0 -24.666 -0.666992 -39.999 -2s-31.5 -3.66602 -48.5 -6.99902s-32.833 -8.33301 -47.5 -15c-27.333 -12.667 -44.833 -27.334 -52.5 -44.001s-11.5 -31.667 -11.5 -45s2.66699 -25 8 -35s12.333 -18.167 21 -24.5
s18.667 -11.166 30 -14.499s23 -5 35 -5c20.667 0.666992 39.834 4.83398 57.501 12.501s32.5 20.167 44.5 37.5c11.333 16.667 18.333 34 21 52s4 36.667 4 56v34zM687.998 298.998c-1.33301 24 -5.50098 47.3311 -12.501 69.998s-20.167 42.334 -39.5 59.001
c-14 12 -27.833 19.333 -41.5 22s-24.167 4 -31.5 4c-20 0 -37.167 -4 -51.5 -12s-26.333 -17.333 -36 -28s-17 -21.167 -22 -31.5s-8.5 -18.166 -10.5 -23.499c-4 -10.667 -7.16699 -20.5 -9.5 -29.5s-4.16602 -19.167 -5.49902 -30.5h260zM424.997 239.996
c0 -4 0.171875 -12.8301 0.504883 -26.4971s2.66602 -29 6.99902 -46s11.333 -34.167 21 -51.5s23.834 -32 42.501 -44c6.66699 -4 16.667 -8.66699 30 -14s30 -8 50 -8c18.667 0 34.667 3 48 9s24.666 13.167 33.999 21.5s16.666 16.833 21.999 25.5s9.33301 15.667 12 21
l69 -8c-2 -9.33301 -5 -18 -9 -26c-4.66699 -10 -10.834 -20.333 -18.501 -31s-15.5 -19.667 -23.5 -27c-10.667 -10 -26.834 -20.5 -48.501 -31.5s-50.167 -16.5 -85.5 -16.5c-24 0 -45.333 2.83301 -64 8.5s-35 12.667 -49 21s-25.667 17.166 -35 26.499
s-16.666 17.666 -21.999 24.999c-6.66699 10 -12.334 19.333 -17.001 28c-6.66699 -12 -12.334 -21.333 -17.001 -28l-13 -18c-5.33301 -6 -12.166 -12.667 -20.499 -20s-18.333 -14.166 -30 -20.499s-25.5 -11.666 -41.5 -15.999s-34 -6.5 -54 -6.5
c-27.333 0 -53.833 5 -79.5 15s-46.5 27 -62.5 51c-10 14.667 -16 28.667 -18 42s-3 23.333 -3 30c0 10 1.83301 23.167 5.5 39.5s13.167 33.5 28.5 51.5c21.333 25.333 53.166 45.666 95.499 60.999s98.5 22.666 168.5 21.999v32c0 11.333 -0.166992 22.833 -0.5 34.5
s-2 22.667 -5 33s-7.83301 19.666 -14.5 27.999s-16.667 14.833 -30 19.5c-4 1.33301 -9.83301 2.83301 -17.5 4.5s-17.167 2.5 -28.5 2.5c-4.66699 0 -11.5 -0.5 -20.5 -1.5s-18.667 -3.5 -29 -7.5s-20.5 -10 -30.5 -18s-18.667 -19 -26 -33
c-2 -4.66699 -3.5 -8.5 -4.5 -11.5l-5.5 -16.5h-70c1.33301 12.667 3.16602 22.667 5.49902 30s4.5 13.666 6.5 18.999c4.66699 10.667 11.334 22 20.001 34s20 23 34 33s31 18.333 51 25s43.667 10 71 10c24 0 48.5 -3.33301 73.5 -10s45.5 -19.667 61.5 -39
c3.33301 -4 6.5 -8.66699 9.5 -14s6.5 -13.333 10.5 -24l7.5 11.5c2.33301 3.66699 4.83301 7.16699 7.5 10.5c12 15.333 24.833 27.333 38.5 36s27 15.167 40 19.5s25 7 36 8s19.833 1.5 26.5 1.5c24.667 0 49.5 -4.66699 74.5 -14s47.167 -24.666 66.5 -45.999
s35 -49.5 47 -84.5s17.333 -78.5 16 -130.5z" />
    <glyph glyph-name="ccedilla" unicode="&#xe7;" horiz-adv-x="495" 
d="M279 -69c12 -1.33301 20.9941 -2.83594 26.9941 -4.50293s12.333 -3.83398 19 -6.50098c12 -5.33301 21.5 -11.666 28.5 -18.999s12.5 -14.666 16.5 -21.999s6.5 -14.5 7.5 -21.5s1.5 -12.833 1.5 -17.5c0 -4 -0.5 -10 -1.5 -18s-4.16699 -16.667 -9.5 -26
c-2.66699 -5.33301 -6.66699 -11 -12 -17s-12 -11.667 -20 -17s-17.5 -9.83301 -28.5 -13.5s-24.167 -5.5 -39.5 -5.5c-16.667 0 -31.167 1.83301 -43.5 5.5s-26.166 8.16699 -41.499 13.5l1 45l28 -9c8.66699 -2.66699 18.667 -4 30 -4c12.667 0 23.167 1.83301 31.5 5.5
s14.833 8.33398 19.5 14.001s7.83398 11.5 9.50098 17.5s2.5 11.667 2.5 17c0 3.33301 -0.5 7.83301 -1.5 13.5s-4.16699 11.167 -9.5 16.5c-9.33301 11.333 -22 17.833 -38 19.5s-30.667 2.16699 -44 1.5l34 88l-24.5 3.5c-11.667 1.66699 -24.167 5.16699 -37.5 10.5
c-15.333 6.66699 -31 16.334 -47 29.001s-30.5 29 -43.5 49s-23.667 44.167 -32 72.5s-12.5 61.5 -12.5 99.5c0 7.33301 0.333008 19.333 1 36s3.66699 35.334 9 56.001c1.33301 6.66699 4.33301 17 9 31s11.834 29.167 21.501 45.5s22.334 32.333 38.001 48
s35.167 27.834 58.5 36.501c8 3.33301 18 6.16602 30 8.49902s27.667 3.5 47 3.5c27.333 0 50.5 -3.83301 69.5 -11.5s35 -17.167 48 -28.5s23.167 -23.166 30.5 -35.499s13 -23.5 17 -33.5c3.33301 -9.33301 6 -18.5 8 -27.5s4 -22.5 6 -40.5h-74
c0 2 -0.666992 6.5 -2 13.5s-3.33301 15 -6 24s-6.33398 18.333 -11.001 28s-11 17.834 -19 24.501c-6 5.33301 -14.5 10.666 -25.5 15.999s-25.833 8 -44.5 8c-5.33301 0 -11.5 -0.333008 -18.5 -1s-14.5 -2.5 -22.5 -5.5s-16.333 -7.5 -25 -13.5s-17 -14 -25 -24
c-10.667 -14 -19 -29.333 -25 -46s-10.5 -32.834 -13.5 -48.501s-4.66699 -29.334 -5 -41.001s-0.5 -19.167 -0.5 -22.5c0 -8 0.666992 -21.5 2 -40.5s6 -40.167 14 -63.5c9.33301 -29.333 23.5 -52.833 42.5 -70.5s45.167 -26.5 78.5 -26.5
c12.667 0 22.834 1.16699 30.501 3.5s14.167 4.83301 19.5 7.5c16 7.33301 29 19.333 39 36s17 42 21 76l74 -1c0 -4 -0.5 -9.66699 -1.5 -17s-2.5 -15.666 -4.5 -24.999s-4.83301 -19.333 -8.5 -30s-8.83398 -21.334 -15.501 -32.001
c-3.33301 -6 -8.16602 -13.5 -14.499 -22.5s-16.166 -17.833 -29.499 -26.5c-8 -6 -16.667 -11.167 -26 -15.5s-23.666 -8.5 -42.999 -12.5z" />
    <glyph glyph-name="egrave" unicode="&#xe8;" horiz-adv-x="516" 
d="M262 580l-154 144h106l109 -144h-61zM390 297c-2 21.333 -5.83301 42.1689 -11.5 62.502s-15.834 38.833 -30.501 55.5c-6 7.33301 -15.833 15.666 -29.5 24.999s-32.834 14 -57.501 14c-29.333 0 -52.666 -7.5 -69.999 -22.5s-30.666 -31.833 -39.999 -50.5
s-15.5 -36.334 -18.5 -53.001s-4.83301 -27 -5.5 -31h263zM124 238.003c0 -3.33301 0.500977 -11.999 1.50098 -25.999s3.66699 -29.833 8 -47.5s11.5 -35.334 21.5 -53.001s24.333 -31.834 43 -42.501c14.667 -8.66699 29 -13.834 43 -15.501s23.667 -2.5 29 -2.5
s13 0.5 23 1.5s21 4.16699 33 9.5c19.333 9.33301 33.5 21 42.5 35s14.833 24 17.5 30l69 -9c-2 -6 -5.16699 -14.167 -9.5 -24.5s-10.5 -21.166 -18.5 -32.499s-18.333 -22.166 -31 -32.499s-28 -19.166 -46 -26.499c-7.33301 -3.33301 -17.833 -6.66602 -31.5 -9.99902
s-30.5 -5 -50.5 -5c-7.33301 0 -17.333 0.666992 -30 2s-26.5 4.33301 -41.5 9s-30.5 12 -46.5 22s-31 23.333 -45 40c-6.66699 8 -13.334 17.667 -20.001 29s-12.834 24.5 -18.501 39.5s-10.167 32.167 -13.5 51.5s-5 41 -5 65c0 6.66699 0.5 19.667 1.5 39
s4.83301 41.166 11.5 65.499s17.334 49 32.001 74s35.334 45.833 62.001 62.5c22.667 14.667 44.167 23.334 64.5 26.001s35.166 4 44.499 4c26 0 48.667 -3.83301 68 -11.5s35.833 -16.834 49.5 -27.501s24.667 -21.834 33 -33.501s14.833 -21.5 19.5 -29.5
c12 -23.333 20.5 -48.833 25.5 -76.5s7.5 -54.167 7.5 -79.5v-20h-343z" />
    <glyph glyph-name="eacute" unicode="&#xe9;" horiz-adv-x="516" 
d="M326 724h106l-154 -144h-62zM390 297c-2 21.333 -5.83301 42.1689 -11.5 62.502s-15.834 38.833 -30.501 55.5c-6 7.33301 -15.833 15.666 -29.5 24.999s-32.834 14 -57.501 14c-29.333 0 -52.666 -7.5 -69.999 -22.5s-30.666 -31.833 -39.999 -50.5
s-15.5 -36.334 -18.5 -53.001s-4.83301 -27 -5.5 -31h263zM124 238.003c0 -3.33301 0.500977 -11.999 1.50098 -25.999s3.66699 -29.833 8 -47.5s11.5 -35.334 21.5 -53.001s24.333 -31.834 43 -42.501c14.667 -8.66699 29 -13.834 43 -15.501s23.667 -2.5 29 -2.5
s13 0.5 23 1.5s21 4.16699 33 9.5c19.333 9.33301 33.5 21 42.5 35s14.833 24 17.5 30l69 -9c-2 -6 -5.16699 -14.167 -9.5 -24.5s-10.5 -21.166 -18.5 -32.499s-18.333 -22.166 -31 -32.499s-28 -19.166 -46 -26.499c-7.33301 -3.33301 -17.833 -6.66602 -31.5 -9.99902
s-30.5 -5 -50.5 -5c-7.33301 0 -17.333 0.666992 -30 2s-26.5 4.33301 -41.5 9s-30.5 12 -46.5 22s-31 23.333 -45 40c-6.66699 8 -13.334 17.667 -20.001 29s-12.834 24.5 -18.501 39.5s-10.167 32.167 -13.5 51.5s-5 41 -5 65c0 6.66699 0.5 19.667 1.5 39
s4.83301 41.166 11.5 65.499s17.334 49 32.001 74s35.334 45.833 62.001 62.5c22.667 14.667 44.167 23.334 64.5 26.001s35.166 4 44.499 4c26 0 48.667 -3.83301 68 -11.5s35.833 -16.834 49.5 -27.501s24.667 -21.834 33 -33.501s14.833 -21.5 19.5 -29.5
c12 -23.333 20.5 -48.833 25.5 -76.5s7.5 -54.167 7.5 -79.5v-20h-343z" />
    <glyph glyph-name="ecircumflex" unicode="&#xea;" horiz-adv-x="516" 
d="M226 731h85l120 -149h-72l-91 100l-90 -100h-72zM390 297c-2 21.333 -5.83301 42.1689 -11.5 62.502s-15.834 38.833 -30.501 55.5c-6 7.33301 -15.833 15.666 -29.5 24.999s-32.834 14 -57.501 14c-29.333 0 -52.666 -7.5 -69.999 -22.5s-30.666 -31.833 -39.999 -50.5
s-15.5 -36.334 -18.5 -53.001s-4.83301 -27 -5.5 -31h263zM124 238.003c0 -3.33301 0.500977 -11.999 1.50098 -25.999s3.66699 -29.833 8 -47.5s11.5 -35.334 21.5 -53.001s24.333 -31.834 43 -42.501c14.667 -8.66699 29 -13.834 43 -15.501s23.667 -2.5 29 -2.5
s13 0.5 23 1.5s21 4.16699 33 9.5c19.333 9.33301 33.5 21 42.5 35s14.833 24 17.5 30l69 -9c-2 -6 -5.16699 -14.167 -9.5 -24.5s-10.5 -21.166 -18.5 -32.499s-18.333 -22.166 -31 -32.499s-28 -19.166 -46 -26.499c-7.33301 -3.33301 -17.833 -6.66602 -31.5 -9.99902
s-30.5 -5 -50.5 -5c-7.33301 0 -17.333 0.666992 -30 2s-26.5 4.33301 -41.5 9s-30.5 12 -46.5 22s-31 23.333 -45 40c-6.66699 8 -13.334 17.667 -20.001 29s-12.834 24.5 -18.501 39.5s-10.167 32.167 -13.5 51.5s-5 41 -5 65c0 6.66699 0.5 19.667 1.5 39
s4.83301 41.166 11.5 65.499s17.334 49 32.001 74s35.334 45.833 62.001 62.5c22.667 14.667 44.167 23.334 64.5 26.001s35.166 4 44.499 4c26 0 48.667 -3.83301 68 -11.5s35.833 -16.834 49.5 -27.501s24.667 -21.834 33 -33.501s14.833 -21.5 19.5 -29.5
c12 -23.333 20.5 -48.833 25.5 -76.5s7.5 -54.167 7.5 -79.5v-20h-343z" />
    <glyph glyph-name="edieresis" unicode="&#xeb;" horiz-adv-x="516" 
d="M376 723c15.333 0 28.5 -5.49902 39.5 -16.499s16.5 -24.167 16.5 -39.5s-5.5 -28.5 -16.5 -39.5s-24.167 -16.5 -39.5 -16.5s-28.5 5.66699 -39.5 17s-16.5 24.666 -16.5 39.999s5.5 28.333 16.5 39s24.167 16 39.5 16zM161 723.001
c15.333 0 28.333 -5.49902 39 -16.499s16 -24.167 16 -39.5s-5.5 -28.5 -16.5 -39.5s-24.167 -16.5 -39.5 -16.5s-28.333 5.66699 -39 17s-16 24.666 -16 39.999s5.5 28.333 16.5 39s24.167 16 39.5 16zM390 297.002c-2 21.333 -5.83301 42.1689 -11.5 62.502
s-15.834 38.833 -30.501 55.5c-6 7.33301 -15.833 15.666 -29.5 24.999s-32.834 14 -57.501 14c-29.333 0 -52.666 -7.5 -69.999 -22.5s-30.666 -31.833 -39.999 -50.5s-15.5 -36.334 -18.5 -53.001s-4.83301 -27 -5.5 -31h263zM124 238.005
c0 -3.33301 0.500977 -11.999 1.50098 -25.999s3.66699 -29.833 8 -47.5s11.5 -35.334 21.5 -53.001s24.333 -31.834 43 -42.501c14.667 -8.66699 29 -13.834 43 -15.501s23.667 -2.5 29 -2.5s13 0.5 23 1.5s21 4.16699 33 9.5c19.333 9.33301 33.5 21 42.5 35
s14.833 24 17.5 30l69 -9c-2 -6 -5.16699 -14.167 -9.5 -24.5s-10.5 -21.166 -18.5 -32.499s-18.333 -22.166 -31 -32.499s-28 -19.166 -46 -26.499c-7.33301 -3.33301 -17.833 -6.66602 -31.5 -9.99902s-30.5 -5 -50.5 -5c-7.33301 0 -17.333 0.666992 -30 2
s-26.5 4.33301 -41.5 9s-30.5 12 -46.5 22s-31 23.333 -45 40c-6.66699 8 -13.334 17.667 -20.001 29s-12.834 24.5 -18.501 39.5s-10.167 32.167 -13.5 51.5s-5 41 -5 65c0 6.66699 0.5 19.667 1.5 39s4.83301 41.166 11.5 65.499s17.334 49 32.001 74
s35.334 45.833 62.001 62.5c22.667 14.667 44.167 23.334 64.5 26.001s35.166 4 44.499 4c26 0 48.667 -3.83301 68 -11.5s35.833 -16.834 49.5 -27.501s24.667 -21.834 33 -33.501s14.833 -21.5 19.5 -29.5c12 -23.333 20.5 -48.833 25.5 -76.5s7.5 -54.167 7.5 -79.5v-20
h-343z" />
    <glyph glyph-name="igrave" unicode="&#xec;" horiz-adv-x="234" 
d="M121 580l-154 144h106l110 -144h-62zM156 502v-502h-78v502h78z" />
    <glyph glyph-name="iacute" unicode="&#xed;" horiz-adv-x="234" 
d="M185 724h106l-154 -144h-62zM156 502v-502h-78v502h78z" />
    <glyph glyph-name="icircumflex" unicode="&#xee;" horiz-adv-x="234" 
d="M75 731h85l120 -149h-72l-91 100l-90 -100h-72zM156 502v-502h-78v502h78z" />
    <glyph glyph-name="idieresis" unicode="&#xef;" horiz-adv-x="234" 
d="M225 723c15.333 0 28.5 -5.49902 39.5 -16.499s16.5 -24.167 16.5 -39.5s-5.5 -28.5 -16.5 -39.5s-24.167 -16.5 -39.5 -16.5s-28.5 5.66699 -39.5 17s-16.5 24.666 -16.5 39.999s5.5 28.333 16.5 39s24.167 16 39.5 16zM9 723.001c16 0 29.333 -5.49902 40 -16.499
s16 -24.167 16 -39.5s-5.5 -28.5 -16.5 -39.5s-24.167 -16.5 -39.5 -16.5s-28.333 5.66699 -39 17s-16 24.666 -16 39.999s5.5 28.333 16.5 39s23.833 16 38.5 16zM156 502.002v-502h-78v502h78z" />
    <glyph glyph-name="ntilde" unicode="&#xf1;" horiz-adv-x="531" 
d="M108 603c0 2 0.666992 6.5 2 13.5s3.66602 15.167 6.99902 24.5s7.66602 18.833 12.999 28.5s12.333 18.167 21 25.5c9.33301 8 18.333 13 27 15s15.667 3 21 3c14 -0.666992 27.333 -4.33398 40 -11.001s24.667 -13.667 36 -21c12.667 -8 23.5 -14.333 32.5 -19
s17.167 -7 24.5 -7c2 0 5.16699 0.5 9.5 1.5s8.5 3.16699 12.5 6.5c5.33301 3.33301 10.333 9.5 15 18.5s8.33398 20.833 11.001 35.5l44 -11c-0.666992 -2.66699 -1.5 -8 -2.5 -16s-3.16699 -16.833 -6.5 -26.5s-8 -19.5 -14 -29.5s-14 -18.667 -24 -26
c-9.33301 -7.33301 -17.666 -11.666 -24.999 -12.999s-13.333 -2 -18 -2c-11.333 0 -23 2.66699 -35 8s-27.667 14 -47 26c-12.667 8 -23 14 -31 18s-15.667 5.66699 -23 5c-23.333 0 -39 -19.333 -47 -58zM134 502c3.33301 -9.33301 5.99902 -18.834 7.99902 -28.501
s3 -24.167 3 -43.5c4.66699 8 10.834 16.833 18.501 26.5s17.5 19 29.5 28s26.667 16.5 44 22.5s37.666 9 60.999 9c8 0 19.333 -0.833008 34 -2.5s29.834 -6.16699 45.501 -13.5s30.334 -18.333 44.001 -33s23.5 -35 29.5 -61c3.33301 -14 5.33301 -29.667 6 -47
s1 -41 1 -71v-288h-74v284c0 32.667 -1 58.667 -3 78s-7.33301 35.666 -16 48.999c-5.33301 8.66699 -14.333 17.334 -27 26.001s-31 13 -55 13c-21.333 0 -40.833 -4.16699 -58.5 -12.5s-32.834 -21.166 -45.501 -38.499c-13.333 -18 -21.5 -36.833 -24.5 -56.5
s-4.83301 -40.167 -5.5 -61.5v-281h-74v331v59.5c0 15.667 -0.166992 29.5 -0.5 41.5s-1.33301 23.333 -3 34s-4.16699 22.667 -7.5 36h70z" />
    <glyph glyph-name="ograve" unicode="&#xf2;" horiz-adv-x="536" 
d="M272 580l-154 144h106l110 -144h-62zM125 251c0 -4 0.333984 -12.8369 1.00098 -26.5039s3.16699 -29.167 7.5 -46.5s11 -35.166 20 -53.499s21.833 -34.166 38.5 -47.499c5.33301 -4.66699 14.5 -10.334 27.5 -17.001s29.167 -10 48.5 -10c7.33301 0 17 1 29 3
s25 7.66699 39 17c9.33301 6 18.333 14.167 27 24.5s16.667 23 24 38s13.166 32.333 17.499 52s6.5 42.167 6.5 67.5c0 4.66699 -0.333008 13.834 -1 27.501s-3.16699 29.334 -7.5 47.001s-11 35.5 -20 53.5s-22.167 33.667 -39.5 47c-6 5.33301 -15 11 -27 17s-28 9 -48 9
c-19.333 0 -35.333 -3.16699 -48 -9.5s-22 -11.833 -28 -16.5c-16.667 -13.333 -29.5 -29.166 -38.5 -47.499s-15.667 -36.333 -20 -54s-6.83301 -33.5 -7.5 -47.5s-1 -23 -1 -27zM49.001 251.996c0 22 1.99609 43.9951 5.99609 65.9951s10.167 43 18.5 63
s19.333 38.833 33 56.5s29.834 32.834 48.501 45.501c9.33301 6 23.5 13 42.5 21s42.5 12 70.5 12c25.333 0 46.833 -3.16699 64.5 -9.5s30.5 -12.166 38.5 -17.499c28 -16 49.833 -35.833 65.5 -59.5s27.334 -47.5 35.001 -71.5s12.167 -45.833 13.5 -65.5s2 -33.5 2 -41.5
c0 -21.333 -2 -43.166 -6 -65.499s-10.167 -43.666 -18.5 -63.999s-19.166 -39.333 -32.499 -57s-29.666 -32.5 -48.999 -44.5c-11.333 -7.33301 -22.833 -13.166 -34.5 -17.499s-22.5 -7.66602 -32.5 -9.99902s-19 -3.83301 -27 -4.5s-14.333 -1 -19 -1
c-8 0 -21.167 1.16699 -39.5 3.5s-37.833 9.16602 -58.5 20.499c-22 12 -40.667 26.833 -56 44.5s-27.833 37.167 -37.5 58.5s-16.667 43.833 -21 67.5s-6.5 47.167 -6.5 70.5z" />
    <glyph glyph-name="oacute" unicode="&#xf3;" horiz-adv-x="536" 
d="M336 724h106l-154 -144h-62zM125 251c0 -4 0.333984 -12.8369 1.00098 -26.5039s3.16699 -29.167 7.5 -46.5s11 -35.166 20 -53.499s21.833 -34.166 38.5 -47.499c5.33301 -4.66699 14.5 -10.334 27.5 -17.001s29.167 -10 48.5 -10c7.33301 0 17 1 29 3s25 7.66699 39 17
c9.33301 6 18.333 14.167 27 24.5s16.667 23 24 38s13.166 32.333 17.499 52s6.5 42.167 6.5 67.5c0 4.66699 -0.333008 13.834 -1 27.501s-3.16699 29.334 -7.5 47.001s-11 35.5 -20 53.5s-22.167 33.667 -39.5 47c-6 5.33301 -15 11 -27 17s-28 9 -48 9
c-19.333 0 -35.333 -3.16699 -48 -9.5s-22 -11.833 -28 -16.5c-16.667 -13.333 -29.5 -29.166 -38.5 -47.499s-15.667 -36.333 -20 -54s-6.83301 -33.5 -7.5 -47.5s-1 -23 -1 -27zM49.001 251.996c0 22 1.99609 43.9951 5.99609 65.9951s10.167 43 18.5 63
s19.333 38.833 33 56.5s29.834 32.834 48.501 45.501c9.33301 6 23.5 13 42.5 21s42.5 12 70.5 12c25.333 0 46.833 -3.16699 64.5 -9.5s30.5 -12.166 38.5 -17.499c28 -16 49.833 -35.833 65.5 -59.5s27.334 -47.5 35.001 -71.5s12.167 -45.833 13.5 -65.5s2 -33.5 2 -41.5
c0 -21.333 -2 -43.166 -6 -65.499s-10.167 -43.666 -18.5 -63.999s-19.166 -39.333 -32.499 -57s-29.666 -32.5 -48.999 -44.5c-11.333 -7.33301 -22.833 -13.166 -34.5 -17.499s-22.5 -7.66602 -32.5 -9.99902s-19 -3.83301 -27 -4.5s-14.333 -1 -19 -1
c-8 0 -21.167 1.16699 -39.5 3.5s-37.833 9.16602 -58.5 20.499c-22 12 -40.667 26.833 -56 44.5s-27.833 37.167 -37.5 58.5s-16.667 43.833 -21 67.5s-6.5 47.167 -6.5 70.5z" />
    <glyph glyph-name="ocircumflex" unicode="&#xf4;" horiz-adv-x="536" 
d="M226 731h85l120 -149h-72l-91 100l-90 -100h-72zM125 251c0 -4 0.333984 -12.8369 1.00098 -26.5039s3.16699 -29.167 7.5 -46.5s11 -35.166 20 -53.499s21.833 -34.166 38.5 -47.499c5.33301 -4.66699 14.5 -10.334 27.5 -17.001s29.167 -10 48.5 -10
c7.33301 0 17 1 29 3s25 7.66699 39 17c9.33301 6 18.333 14.167 27 24.5s16.667 23 24 38s13.166 32.333 17.499 52s6.5 42.167 6.5 67.5c0 4.66699 -0.333008 13.834 -1 27.501s-3.16699 29.334 -7.5 47.001s-11 35.5 -20 53.5s-22.167 33.667 -39.5 47
c-6 5.33301 -15 11 -27 17s-28 9 -48 9c-19.333 0 -35.333 -3.16699 -48 -9.5s-22 -11.833 -28 -16.5c-16.667 -13.333 -29.5 -29.166 -38.5 -47.499s-15.667 -36.333 -20 -54s-6.83301 -33.5 -7.5 -47.5s-1 -23 -1 -27zM49.001 251.996
c0 22 1.99609 43.9951 5.99609 65.9951s10.167 43 18.5 63s19.333 38.833 33 56.5s29.834 32.834 48.501 45.501c9.33301 6 23.5 13 42.5 21s42.5 12 70.5 12c25.333 0 46.833 -3.16699 64.5 -9.5s30.5 -12.166 38.5 -17.499c28 -16 49.833 -35.833 65.5 -59.5
s27.334 -47.5 35.001 -71.5s12.167 -45.833 13.5 -65.5s2 -33.5 2 -41.5c0 -21.333 -2 -43.166 -6 -65.499s-10.167 -43.666 -18.5 -63.999s-19.166 -39.333 -32.499 -57s-29.666 -32.5 -48.999 -44.5c-11.333 -7.33301 -22.833 -13.166 -34.5 -17.499
s-22.5 -7.66602 -32.5 -9.99902s-19 -3.83301 -27 -4.5s-14.333 -1 -19 -1c-8 0 -21.167 1.16699 -39.5 3.5s-37.833 9.16602 -58.5 20.499c-22 12 -40.667 26.833 -56 44.5s-27.833 37.167 -37.5 58.5s-16.667 43.833 -21 67.5s-6.5 47.167 -6.5 70.5z" />
    <glyph glyph-name="otilde" unicode="&#xf5;" horiz-adv-x="536" 
d="M110 603c0.666992 2 1.66309 6.5 2.99609 13.5s3.5 15.167 6.5 24.5s7.16699 18.833 12.5 28.5s12.333 18.167 21 25.5c10 8 19.333 13 28 15s15.334 3 20.001 3c14.667 -0.666992 28.167 -4.33398 40.5 -11.001s24.166 -13.667 35.499 -21
c13.333 -8 24.5 -14.333 33.5 -19s17.167 -7 24.5 -7c2 0 5 0.5 9 1.5s8.33301 3.16699 13 6.5c5.33301 3.33301 10.333 9.5 15 18.5s8.33398 20.833 11.001 35.5l43 -11c0 -2.66699 -0.666992 -8 -2 -16s-3.66602 -16.833 -6.99902 -26.5s-7.83301 -19.5 -13.5 -29.5
s-13.5 -18.667 -23.5 -26c-9.33301 -7.33301 -17.666 -11.666 -24.999 -12.999s-13.333 -2 -18 -2c-11.333 0 -23.166 2.66699 -35.499 8s-27.833 14 -46.5 26c-12.667 8 -23.167 14 -31.5 18s-16.166 5.66699 -23.499 5c-22.667 0 -38.334 -19.333 -47.001 -58z
M124.996 251c0 -4 0.333984 -12.8369 1.00098 -26.5039s3.16699 -29.167 7.5 -46.5s11 -35.166 20 -53.499s21.833 -34.166 38.5 -47.499c5.33301 -4.66699 14.5 -10.334 27.5 -17.001s29.167 -10 48.5 -10c7.33301 0 17 1 29 3s25 7.66699 39 17
c9.33301 6 18.333 14.167 27 24.5s16.667 23 24 38s13.166 32.333 17.499 52s6.5 42.167 6.5 67.5c0 4.66699 -0.333008 13.834 -1 27.501s-3.16699 29.334 -7.5 47.001s-11 35.5 -20 53.5s-22.167 33.667 -39.5 47c-6 5.33301 -15 11 -27 17s-28 9 -48 9
c-19.333 0 -35.333 -3.16699 -48 -9.5s-22 -11.833 -28 -16.5c-16.667 -13.333 -29.5 -29.166 -38.5 -47.499s-15.667 -36.333 -20 -54s-6.83301 -33.5 -7.5 -47.5s-1 -23 -1 -27zM48.9971 251.996c0 22 1.99609 43.9951 5.99609 65.9951s10.167 43 18.5 63
s19.333 38.833 33 56.5s29.834 32.834 48.501 45.501c9.33301 6 23.5 13 42.5 21s42.5 12 70.5 12c25.333 0 46.833 -3.16699 64.5 -9.5s30.5 -12.166 38.5 -17.499c28 -16 49.833 -35.833 65.5 -59.5s27.334 -47.5 35.001 -71.5s12.167 -45.833 13.5 -65.5s2 -33.5 2 -41.5
c0 -21.333 -2 -43.166 -6 -65.499s-10.167 -43.666 -18.5 -63.999s-19.166 -39.333 -32.499 -57s-29.666 -32.5 -48.999 -44.5c-11.333 -7.33301 -22.833 -13.166 -34.5 -17.499s-22.5 -7.66602 -32.5 -9.99902s-19 -3.83301 -27 -4.5s-14.333 -1 -19 -1
c-8 0 -21.167 1.16699 -39.5 3.5s-37.833 9.16602 -58.5 20.499c-22 12 -40.667 26.833 -56 44.5s-27.833 37.167 -37.5 58.5s-16.667 43.833 -21 67.5s-6.5 47.167 -6.5 70.5z" />
    <glyph glyph-name="odieresis" unicode="&#xf6;" horiz-adv-x="536" 
d="M125 251c0 -4 0.333984 -12.8369 1.00098 -26.5039s3.16699 -29.167 7.5 -46.5s11 -35.166 20 -53.499s21.833 -34.166 38.5 -47.499c5.33301 -4.66699 14.5 -10.334 27.5 -17.001s29.167 -10 48.5 -10c7.33301 0 17 1 29 3s25 7.66699 39 17
c9.33301 6 18.333 14.167 27 24.5s16.667 23 24 38s13.166 32.333 17.499 52s6.5 42.167 6.5 67.5c0 4.66699 -0.333008 13.834 -1 27.501s-3.16699 29.334 -7.5 47.001s-11 35.5 -20 53.5s-22.167 33.667 -39.5 47c-6 5.33301 -15 11 -27 17s-28 9 -48 9
c-19.333 0 -35.333 -3.16699 -48 -9.5s-22 -11.833 -28 -16.5c-16.667 -13.333 -29.5 -29.166 -38.5 -47.499s-15.667 -36.333 -20 -54s-6.83301 -33.5 -7.5 -47.5s-1 -23 -1 -27zM49.001 251.996c0 22 1.99609 43.9951 5.99609 65.9951s10.167 43 18.5 63
s19.333 38.833 33 56.5s29.834 32.834 48.501 45.501c9.33301 6 23.5 13 42.5 21s42.5 12 70.5 12c25.333 0 46.833 -3.16699 64.5 -9.5s30.5 -12.166 38.5 -17.499c28 -16 49.833 -35.833 65.5 -59.5s27.334 -47.5 35.001 -71.5s12.167 -45.833 13.5 -65.5s2 -33.5 2 -41.5
c0 -21.333 -2 -43.166 -6 -65.499s-10.167 -43.666 -18.5 -63.999s-19.166 -39.333 -32.499 -57s-29.666 -32.5 -48.999 -44.5c-11.333 -7.33301 -22.833 -13.166 -34.5 -17.499s-22.5 -7.66602 -32.5 -9.99902s-19 -3.83301 -27 -4.5s-14.333 -1 -19 -1
c-8 0 -21.167 1.16699 -39.5 3.5s-37.833 9.16602 -58.5 20.499c-22 12 -40.667 26.833 -56 44.5s-27.833 37.167 -37.5 58.5s-16.667 43.833 -21 67.5s-6.5 47.167 -6.5 70.5zM375.997 722.991c16 0 29.333 -5.49902 40 -16.499s16 -24.167 16 -39.5
s-5.5 -28.5 -16.5 -39.5s-24.167 -16.5 -39.5 -16.5s-28.5 5.66699 -39.5 17s-16.5 24.666 -16.5 39.999s5.5 28.333 16.5 39s24.167 16 39.5 16zM160.997 722.992c15.333 0 28.333 -5.49902 39 -16.499s16 -24.167 16 -39.5s-5.5 -28.5 -16.5 -39.5
s-24.167 -16.5 -39.5 -16.5s-28.5 5.66699 -39.5 17s-16.5 24.666 -16.5 39.999c0.666992 15.333 6.5 28.333 17.5 39s24.167 16 39.5 16z" />
    <glyph glyph-name="divide" unicode="&#xf7;" horiz-adv-x="500" 
d="M0 261v59h500v-59h-500zM298 420c-0.666992 -13.333 -5.33301 -24.166 -14 -32.499s-19.667 -12.5 -33 -12.5c-12.667 0 -23.334 4.33301 -32.001 13s-13 19.667 -13 33c0 12.667 4.5 23.5 13.5 32.5s20.167 13.5 33.5 13.5
c12.667 -0.666992 23.334 -5.33398 32.001 -14.001s13 -19.667 13 -33zM298.001 160c-0.666992 -13.333 -5.33301 -24.167 -14 -32.5s-19.334 -12.5 -32.001 -12.5c-13.333 0.666992 -24.333 5.16699 -33 13.5s-13 19.166 -13 32.499c0 12.667 4.5 23.334 13.5 32.001
s20.167 13 33.5 13c12.667 0 23.334 -4.33301 32.001 -13s13 -19.667 13 -33z" />
    <glyph glyph-name="oslash" unicode="&#xf8;" horiz-adv-x="536" 
d="M170 95c7.33301 -8 12.665 -13.333 15.998 -16c5.33301 -4.66699 15 -10.667 29 -18s31.333 -11 52 -11c24.667 0 46.334 6.33301 65.001 19c9.33301 6 18.833 14.333 28.5 25s18.167 23.667 25.5 39s13.333 33 18 53s7 43 7 69c0 28.667 -2.16699 51.167 -6.5 67.5
s-9.16602 30.833 -14.499 43.5zM366.999 405c-2.66699 3.33301 -6.83301 7.83301 -12.5 13.5s-12.5 11 -20.5 16s-17.333 9.33301 -28 13s-23 5.5 -37 5.5c-6 0 -15 -1 -27 -3s-24.667 -7.33301 -38 -16c-9.33301 -6 -18.666 -14.5 -27.999 -25.5
s-17.833 -24.167 -25.5 -39.5s-13.834 -33.333 -18.501 -54s-7 -44 -7 -70c0 -28.667 2.33301 -51 7 -67s9.66699 -30.333 15 -43zM449 502l56.0029 -0.00195312l-64 -77c7.33301 -10.667 13.333 -21.667 18 -33c6 -12 12.167 -29.333 18.5 -52s9.5 -51 9.5 -85
c0 -9.33301 -0.666992 -23.333 -2 -42s-5.66602 -39.667 -12.999 -63s-17.333 -45 -30 -65s-27.667 -37.167 -45 -51.5s-36.833 -25.666 -58.5 -33.999s-45.5 -12.5 -71.5 -12.5c-18.667 0 -35.667 2 -51 6s-28.833 8.66699 -40.5 14s-21.834 11.333 -30.501 18
s-15.667 12.334 -21 17.001l-35 -42h-57l64 77c-6 7.33301 -12.667 18.666 -20 33.999c-6 12 -12 29.167 -18 51.5s-9 50.5 -9 84.5c0 8 0.5 21 1.5 39s5.16699 38.333 12.5 61c7.33301 24.667 17.166 47.334 29.499 68.001s27.333 38.5 45 53.5s37.5 26.667 59.5 35
s46.333 12.5 73 12.5c19.333 0 36.666 -2 51.999 -6s28.833 -9 40.5 -15s21.667 -12.333 30 -19s15.166 -12.667 20.499 -18z" />
    <glyph glyph-name="ugrave" unicode="&#xf9;" horiz-adv-x="526" 
d="M267 580l-154 144h106l110 -144h-62zM148 502l-0.00585938 -307c0 -12 0.333008 -24.5 1 -37.5s2.5 -25.167 5.5 -36.5s8 -22 15 -32s16.833 -18 29.5 -24c11.333 -5.33301 22 -8.66602 32 -9.99902s17.333 -2 22 -2c6 0 16 1.33301 30 4s28.333 9.66699 43 21
c3.33301 2.66699 7.33301 6.5 12 11.5s9.66699 11.5 15 19.5c10.667 16.667 16.834 34.167 18.501 52.5s2.83398 36.833 3.50098 55.5v285h74v-350v-53c0 -14 0.166992 -26.333 0.5 -37s1.33301 -20.667 3 -30s4.16699 -20 7.5 -32h-72c-4 12.667 -6.66699 23.667 -8 33
s-2.33301 20.666 -3 33.999c-4 -8 -9.16699 -16.667 -15.5 -26s-14.666 -18 -24.999 -26s-23.166 -14.667 -38.499 -20s-33.666 -8 -54.999 -8c-15.333 0 -28.666 1.33301 -39.999 4l-25 6c-15.333 5.33301 -28.5 12.166 -39.5 20.499s-20.167 16.833 -27.5 25.5
s-13 17 -17 25s-7 15 -9 21c-2 6.66699 -3.66699 13.334 -5 20.001s-2.5 14 -3.5 22s-1.66699 17.167 -2 27.5s-0.5 22.5 -0.5 36.5v307h74z" />
    <glyph glyph-name="uacute" unicode="&#xfa;" horiz-adv-x="526" 
d="M331 724h106l-154 -144h-62zM148 502l-0.00585938 -307c0 -12 0.333008 -24.5 1 -37.5s2.5 -25.167 5.5 -36.5s8 -22 15 -32s16.833 -18 29.5 -24c11.333 -5.33301 22 -8.66602 32 -9.99902s17.333 -2 22 -2c6 0 16 1.33301 30 4s28.333 9.66699 43 21
c3.33301 2.66699 7.33301 6.5 12 11.5s9.66699 11.5 15 19.5c10.667 16.667 16.834 34.167 18.501 52.5s2.83398 36.833 3.50098 55.5v285h74v-350v-53c0 -14 0.166992 -26.333 0.5 -37s1.33301 -20.667 3 -30s4.16699 -20 7.5 -32h-72c-4 12.667 -6.66699 23.667 -8 33
s-2.33301 20.666 -3 33.999c-4 -8 -9.16699 -16.667 -15.5 -26s-14.666 -18 -24.999 -26s-23.166 -14.667 -38.499 -20s-33.666 -8 -54.999 -8c-15.333 0 -28.666 1.33301 -39.999 4l-25 6c-15.333 5.33301 -28.5 12.166 -39.5 20.499s-20.167 16.833 -27.5 25.5
s-13 17 -17 25s-7 15 -9 21c-2 6.66699 -3.66699 13.334 -5 20.001s-2.5 14 -3.5 22s-1.66699 17.167 -2 27.5s-0.5 22.5 -0.5 36.5v307h74z" />
    <glyph glyph-name="ucircumflex" unicode="&#xfb;" horiz-adv-x="526" 
d="M220 731h86l119 -149h-71l-91 100l-90 -100h-72zM148 502l-0.00585938 -307c0 -12 0.333008 -24.5 1 -37.5s2.5 -25.167 5.5 -36.5s8 -22 15 -32s16.833 -18 29.5 -24c11.333 -5.33301 22 -8.66602 32 -9.99902s17.333 -2 22 -2c6 0 16 1.33301 30 4
s28.333 9.66699 43 21c3.33301 2.66699 7.33301 6.5 12 11.5s9.66699 11.5 15 19.5c10.667 16.667 16.834 34.167 18.501 52.5s2.83398 36.833 3.50098 55.5v285h74v-350v-53c0 -14 0.166992 -26.333 0.5 -37s1.33301 -20.667 3 -30s4.16699 -20 7.5 -32h-72
c-4 12.667 -6.66699 23.667 -8 33s-2.33301 20.666 -3 33.999c-4 -8 -9.16699 -16.667 -15.5 -26s-14.666 -18 -24.999 -26s-23.166 -14.667 -38.499 -20s-33.666 -8 -54.999 -8c-15.333 0 -28.666 1.33301 -39.999 4l-25 6c-15.333 5.33301 -28.5 12.166 -39.5 20.499
s-20.167 16.833 -27.5 25.5s-13 17 -17 25s-7 15 -9 21c-2 6.66699 -3.66699 13.334 -5 20.001s-2.5 14 -3.5 22s-1.66699 17.167 -2 27.5s-0.5 22.5 -0.5 36.5v307h74z" />
    <glyph glyph-name="udieresis" unicode="&#xfc;" horiz-adv-x="526" 
d="M148 502l-0.00585938 -307c0 -12 0.333008 -24.5 1 -37.5s2.5 -25.167 5.5 -36.5s8 -22 15 -32s16.833 -18 29.5 -24c11.333 -5.33301 22 -8.66602 32 -9.99902s17.333 -2 22 -2c6 0 16 1.33301 30 4s28.333 9.66699 43 21c3.33301 2.66699 7.33301 6.5 12 11.5
s9.66699 11.5 15 19.5c10.667 16.667 16.834 34.167 18.501 52.5s2.83398 36.833 3.50098 55.5v285h74v-350v-53c0 -14 0.166992 -26.333 0.5 -37s1.33301 -20.667 3 -30s4.16699 -20 7.5 -32h-72c-4 12.667 -6.66699 23.667 -8 33s-2.33301 20.666 -3 33.999
c-4 -8 -9.16699 -16.667 -15.5 -26s-14.666 -18 -24.999 -26s-23.166 -14.667 -38.499 -20s-33.666 -8 -54.999 -8c-15.333 0 -28.666 1.33301 -39.999 4l-25 6c-15.333 5.33301 -28.5 12.166 -39.5 20.499s-20.167 16.833 -27.5 25.5s-13 17 -17 25s-7 15 -9 21
c-2 6.66699 -3.66699 13.334 -5 20.001s-2.5 14 -3.5 22s-1.66699 17.167 -2 27.5s-0.5 22.5 -0.5 36.5v307h74zM370.994 723c15.333 0 28.333 -5.49902 39 -16.499s16 -24.167 16 -39.5s-5.5 -28.5 -16.5 -39.5s-23.833 -16.5 -38.5 -16.5
c-15.333 0 -28.5 5.66699 -39.5 17s-16.5 24.666 -16.5 39.999s5.5 28.333 16.5 39s24.167 16 39.5 16zM154.994 723.001c15.333 0 28.5 -5.49902 39.5 -16.499s16.5 -24.167 16.5 -39.5s-5.5 -28.5 -16.5 -39.5s-24.167 -16.5 -39.5 -16.5s-28.5 5.66699 -39.5 17
s-16.5 24.666 -16.5 39.999s5.5 28.333 16.5 39s24.167 16 39.5 16z" />
    <glyph glyph-name="ydieresis" unicode="&#xff;" horiz-adv-x="464" 
d="M340 723c15.333 0 28.333 -5.49902 39 -16.499s16 -24.167 16 -39.5s-5.5 -28.5 -16.5 -39.5s-24.167 -16.5 -39.5 -16.5s-28.333 5.66699 -39 17s-16 24.666 -16 39.999s5.5 28.333 16.5 39s24.167 16 39.5 16zM124 723.001c15.333 0 28.499 -5.49902 39.499 -16.499
s16.5 -24.167 16.5 -39.5s-5.66699 -28.5 -17 -39.5s-24.666 -16.5 -39.999 -16.5s-28.333 5.66699 -39 17s-16 24.666 -16 39.999s5.5 28.333 16.5 39s24.167 16 39.5 16zM95.999 502.002l137 -418l141 418h77l-165 -467l-21 -59.5c-6 -17 -11.833 -32.333 -17.5 -46
s-11.5 -25.667 -17.5 -36s-12.667 -20.5 -20 -30.5c-15.333 -20 -31.833 -35.167 -49.5 -45.5s-35 -17.666 -52 -21.999s-32.667 -6.5 -47 -6.5h-33.5l1 66h21c12 0 23.333 1.33301 34 4c14 2.66699 26 7.16699 36 13.5s19 14.666 27 24.999s15.333 23.5 22 39.5
s14 35.333 22 58l-174 507h79z" />
    <glyph glyph-name="dotlessi" unicode="&#x131;" horiz-adv-x="234" 
d="M156 502v-502h-78v502h78z" />
    <glyph glyph-name="OE" unicode="&#x152;" horiz-adv-x="984" 
d="M342 649c-6.66699 0 -17.6699 -1.00098 -33.0029 -3.00098s-31.666 -7.66699 -48.999 -17c-15.333 -8.66699 -30.166 -20.5 -44.499 -35.5s-27.166 -33.833 -38.499 -56.5s-20.5 -49.167 -27.5 -79.5s-10.5 -65.166 -10.5 -104.499c0 -4.66699 0.5 -17.5 1.5 -38.5
s4.5 -44.833 10.5 -71.5s15.667 -54 29 -82s32.666 -51.333 57.999 -70c9.33301 -6.66699 22.5 -14 39.5 -22s39.167 -12 66.5 -12c9.33301 0 22.833 1.5 40.5 4.5s36.834 11.167 57.501 24.5s37.834 30.666 51.501 51.999s24.5 44.166 32.5 68.499s13.5 49.333 16.5 75
s4.5 49.5 4.5 71.5c0 28 -1.5 51.333 -4.5 70s-5.83301 33.334 -8.5 44.001c-2 8.66699 -6.33301 23 -13 43s-17.167 40.333 -31.5 61s-33.333 38.834 -57 54.501s-53.834 23.5 -90.501 23.5zM546.997 705.999l385.002 -0.00488281v-68h-306v-238h284v-68h-284v-263h313v-69
h-392v89c-7.33301 -9.33301 -16.333 -19.833 -27 -31.5s-23.834 -22.667 -39.501 -33s-34.5 -19 -56.5 -26s-48 -10.5 -78 -10.5c-4.66699 0 -11.334 0.166992 -20.001 0.5s-18.5 1.33301 -29.5 3s-22.667 4.33398 -35 8.00098s-25.166 8.83398 -38.499 15.501
c-20 10 -40 23.833 -60 41.5s-38 40 -54 67s-29.167 59.5 -39.5 97.5s-15.5 82 -15.5 132c0 30.667 1.83301 58.334 5.5 83.001s8.5 46.667 14.5 66s12.667 36.5 20 51.5s14.666 27.833 21.999 38.5l23 30.5c10 13 23.667 26.5 41 40.5c7.33301 5.33301 16 11.333 26 18
s21.667 12.834 35 18.501s28.833 10.334 46.5 14.001s37.5 5.5 59.5 5.5c29.333 0 54.833 -3.5 76.5 -10.5s40.5 -15.667 56.5 -26s29.333 -21.333 40 -33s19.667 -22.167 27 -31.5v88z" />
    <glyph glyph-name="oe" unicode="&#x153;" horiz-adv-x="875" 
d="M265 453c-11.333 0 -20.832 -1.16992 -28.499 -3.50293s-13.834 -4.83301 -18.501 -7.5c-11.333 -5.33301 -22.666 -13 -33.999 -23s-21.333 -22.667 -30 -38s-15.667 -33.666 -21 -54.999s-8 -46 -8 -74c0 -4 0.333008 -12 1 -24s2.5 -25.667 5.5 -41
s7.83301 -31.166 14.5 -47.499s16 -31.5 28 -45.5l13 -12.5c5.33301 -5 11.833 -9.83301 19.5 -14.5s16.667 -8.66699 27 -12s21.833 -5 34.5 -5c5.33301 0 12.166 0.666992 20.499 2s17.166 4.16602 26.499 8.49902s18.833 10.333 28.5 18s18.834 17.834 27.501 30.501
c12.667 19.333 21.667 42.333 27 69s8 51.334 8 74.001c0 7.33301 -0.5 18.5 -1.5 33.5s-4.16699 32.167 -9.5 51.5c-6.66699 23.333 -15.167 42.5 -25.5 57.5s-21.5 26.833 -33.5 35.5s-24.167 14.667 -36.5 18s-23.833 5 -34.5 5zM746.001 291.997
c-0.666992 6.66699 -1.16699 13.165 -1.5 19.498s-1.16602 12.833 -2.49902 19.5c-0.666992 6 -2.83398 15.667 -6.50098 29s-10 27 -19 41s-21.333 26.333 -37 37s-36.167 16 -61.5 16c-29.333 0 -52.833 -7.83301 -70.5 -23.5s-31 -33.167 -40 -52.5
s-15 -37.666 -18 -54.999s-4.83301 -27.666 -5.5 -30.999h262zM483.001 234.995c0 -4.66699 0.172852 -12.168 0.505859 -22.501s1.83301 -22 4.5 -35s7 -26.833 13 -41.5s14.333 -28.334 25 -41.001c9.33301 -10.667 19 -19 29 -25s19.833 -10.5 29.5 -13.5
s18.5 -4.83301 26.5 -5.5s14.333 -1 19 -1c15.333 0 28.666 1.83301 39.999 5.5s21.333 8.16699 30 13.5s15.834 11 21.501 17s10.167 11.667 13.5 17c4 5.33301 6.83301 10.166 8.5 14.499s3.16699 7.83301 4.5 10.5l69 -9c-1.33301 -4.66699 -4 -11.667 -8 -21
s-9.66699 -19.666 -17 -30.999c-12.667 -18.667 -26.834 -33.5 -42.501 -44.5s-31.167 -19 -46.5 -24s-29.5 -8.16699 -42.5 -9.5s-23.167 -2 -30.5 -2c-6.66699 0 -15.5 0.5 -26.5 1.5s-23.167 3.33301 -36.5 7s-27.333 9.33398 -42 17.001s-28.667 18.5 -42 32.5
c-8 8 -15.167 16.333 -21.5 25s-12.166 17.667 -17.499 27c-1.33301 -3.33301 -4.33301 -8.5 -9 -15.5s-10.334 -14.5 -17.001 -22.5c-13.333 -16.667 -27 -29.667 -41 -39s-27.5 -16.5 -40.5 -21.5s-25.333 -8.16699 -37 -9.5s-21.5 -2 -29.5 -2s-17.333 0.5 -28 1.5
s-22.5 3.5 -35.5 7.5s-26.5 10 -40.5 18s-28 19 -42 33c-8.66699 8.66699 -17.334 19 -26.001 31s-16.667 26.167 -24 42.5s-13.333 35.333 -18 57s-7 46.167 -7 73.5c0 9.33301 0.666992 23.666 2 42.999s5.66602 40.666 12.999 63.999c15.333 48 41 86.333 77 115
s79.333 43 130 43c22 0 41.667 -2.83301 59 -8.5s32.166 -12.5 44.499 -20.5s22.666 -16.5 30.999 -25.5s14.833 -16.833 19.5 -23.5l9 -14.5c2.66699 -4.33301 6.33398 -11.166 11.001 -20.499c4.66699 8.66699 11.334 19.334 20.001 32.001s20 25 34 37
s31.167 22.333 51.5 31s44.5 13 72.5 13c18 0 34.167 -1.83301 48.5 -5.5s27 -8.33398 38 -14.001s20.5 -11.5 28.5 -17.5s14.333 -11.667 19 -17c6 -6 12.667 -14 20 -24s14.666 -23.667 21.999 -41c3.33301 -7.33301 7.16602 -17 11.499 -29s8.16602 -26.667 11.499 -44
c2 -13.333 3.16699 -24.666 3.5 -33.999s0.5 -17 0.5 -23v-16c0 -5.33301 -0.333008 -10.666 -1 -15.999h-342z" />
    <glyph glyph-name="Ydieresis" unicode="&#x178;" horiz-adv-x="542" 
d="M366 889c16.667 0 30.6689 -5.66602 42.002 -16.999s17 -25.666 17 -42.999c0 -16.667 -5.83301 -30.834 -17.5 -42.501s-25.834 -17.5 -42.501 -17.5c-16.667 0.666992 -30.834 6.66699 -42.501 18s-17.5 25.666 -17.5 42.999c0 16.667 5.83301 30.667 17.5 42
s26.167 17 43.5 17zM177.002 889.001c16.667 0 30.668 -5.66602 42.001 -16.999s17 -25.666 17 -42.999c0 -16.667 -5.83301 -30.834 -17.5 -42.501s-25.834 -17.5 -42.501 -17.5c-16 0.666992 -30 6.66699 -42 18s-18 25.666 -18 42.999c0 16.667 5.83301 30.667 17.5 42
s26.167 17 43.5 17zM103.003 706.002l169 -330l167 330h91l-220 -410v-296h-78v296l-220 410h91z" />
    <glyph glyph-name="circumflex" unicode="&#x2c6;" 
d="M9 731h86l120 -149h-72l-91 100l-90 -100h-72z" />
    <glyph glyph-name="caron" unicode="&#x2c7;" 
d="M95 582h-86l-119 149h71l91 -100l90 100h73z" />
    <glyph glyph-name="tilde" unicode="&#x2dc;" 
d="M-106 603c0.666992 2 1.66602 6.5 2.99902 13.5s3.5 15.167 6.5 24.5s7.16699 18.833 12.5 28.5s12.333 18.167 21 25.5c9.33301 8 18.5 13 27.5 15s15.833 3 20.5 3c14.667 -0.666992 28.167 -4.33398 40.5 -11.001s24.166 -13.667 35.499 -21
c12.667 -8 23.667 -14.333 33 -19s17.666 -7 24.999 -7c2 0 5 0.5 9 1.5s8.33301 3.16699 13 6.5c11.333 8 20 26 26 54l43 -11c0 -2.66699 -0.666992 -8 -2 -16s-3.66602 -16.833 -6.99902 -26.5s-8 -19.5 -14 -29.5s-14 -18.667 -24 -26
c-8.66699 -7.33301 -16.667 -11.666 -24 -12.999s-13.666 -2 -18.999 -2c-10.667 0 -22.167 2.66699 -34.5 8s-27.833 14 -46.5 26c-12.667 8 -23.167 14 -31.5 18s-16.166 5.66699 -23.499 5c-23.333 0 -39 -19.333 -47 -58z" />
    <glyph glyph-name="endash" unicode="&#x2013;" horiz-adv-x="531" 
d="M457 296v-58h-382v58h382z" />
    <glyph glyph-name="emdash" unicode="&#x2014;" horiz-adv-x="568" 
d="M510 384v-57h-452v57h452z" />
    <glyph glyph-name="quoteleft" unicode="&#x2018;" horiz-adv-x="234" 
d="M198 718c-19.333 -19.333 -34.4961 -37.332 -45.4961 -53.999s-18.5 -30.667 -22.5 -42c-1.33301 -3.33301 -2.5 -6.83301 -3.5 -10.5s-2.16699 -9.16699 -3.5 -16.5c1.33301 0 3.83301 0.166992 7.5 0.5s7.16699 -0.166992 10.5 -1.5
c13.333 -2.66699 24.166 -9.16699 32.499 -19.5s12.5 -22.166 12.5 -35.499c0 -17.333 -6 -31.5 -18 -42.5s-26.667 -16.5 -44 -16.5c-6 0 -12.833 1.16699 -20.5 3.5s-14.834 6.5 -21.501 12.5s-12.334 14 -17.001 24s-7 22.667 -7 38c0 31.333 7.66699 60.166 23 86.499
s32.666 51.166 51.999 74.499z" />
    <glyph glyph-name="quoteright" unicode="&#x2019;" horiz-adv-x="234" 
d="M37 480l10.999 11c4 4 7.66699 8 11 12c0.666992 1.33301 3 4.5 7 9.5s8.5 11.167 13.5 18.5s10 15.5 15 24.5s8.83301 17.5 11.5 25.5c2.66699 8.66699 4.33398 16 5.00098 22h-8c-4 0 -8 0.666992 -12 2c-12.667 3.33301 -22.834 9.83301 -30.501 19.5
s-11.5 21.167 -11.5 34.5c0 2.66699 0.333008 6.5 1 11.5s2.66699 10.5 6 16.5c4 7.33301 8.5 13 13.5 17s10.167 7.16699 15.5 9.5s10.333 3.83301 15 4.5s8.33398 1 11.001 1c6 0 12.833 -1.16699 20.5 -3.5s14.667 -6.5 21 -12.5s11.833 -14 16.5 -24s7 -22.667 7 -38
c0 -21.333 -5 -45 -15 -71s-30 -56 -60 -90h-64z" />
    <glyph glyph-name="quotesinglbase" unicode="&#x201a;" horiz-adv-x="255" 
d="M38 -154l9.99707 10.501l10 10.5c10 12 20.5 27.333 31.5 46s19.167 35.334 24.5 50.001c2 5.33301 3.66699 10.333 5 15s2.66602 11.667 3.99902 21c-5.33301 0 -10.166 0.166992 -14.499 0.5s-9.16602 1.83301 -14.499 4.5c-11.333 4.66699 -20.166 11.667 -26.499 21
s-9.5 20 -9.5 32c0 3.33301 1 9.16602 3 17.499s6.66699 16.5 14 24.5c8 9.33301 17.167 15 27.5 17s17.166 3 20.499 3c7.33301 0 14.833 -1.33301 22.5 -4s14.834 -7.33398 21.501 -14.001s12.167 -15.167 16.5 -25.5s6.5 -23.5 6.5 -39.5
c0 -5.33301 -0.166992 -11.833 -0.5 -19.5s-2.16602 -17.167 -5.49902 -28.5c-4.66699 -18.667 -12.667 -39.167 -24 -61.5s-30 -49.5 -56 -81.5z" />
    <glyph glyph-name="quotedblleft" unicode="&#x201c;" horiz-adv-x="401" 
d="M199 718c-3.33301 -2.66699 -6.16504 -5.33203 -8.49805 -7.99902s-5.16602 -5.33398 -8.49902 -8.00098c-8 -9.33301 -17.167 -21.666 -27.5 -36.999s-18.166 -29 -23.499 -41c-1.33301 -3.33301 -2.5 -7.16602 -3.5 -11.499s-2.16699 -10.166 -3.5 -17.499
c1.33301 0 3.33301 0.166992 6 0.5s5.66699 0.166016 9 -0.500977s7.66602 -2 12.999 -4s10.666 -5.16699 15.999 -9.5s9.83301 -10 13.5 -17s5.5 -15.5 5.5 -25.5c0 -16.667 -6 -30.667 -18 -42s-26.667 -17 -44 -17c-6 0 -12.833 1.16699 -20.5 3.5
s-14.834 6.5 -21.501 12.5s-12.334 14 -17.001 24s-7 22.667 -7 38c0 19.333 3.5 38.166 10.5 56.499s14.833 34.666 23.5 48.999s17 26.5 25 36.5s13.333 16.333 16 19zM364.001 718.002c-5.33301 -4.66699 -15.1641 -15.166 -29.4971 -31.499s-26.166 -35.5 -35.499 -57.5
c-4 -8.66699 -6.33301 -15.334 -7 -20.001s-1.66699 -9.33398 -3 -14.001h10.5c3 0 6.16699 -0.333008 9.5 -1s7.33301 -2.16699 12 -4.5s9.16699 -5.66602 13.5 -9.99902s8.16602 -9.83301 11.499 -16.5s5 -14.667 5 -24c0 -17.333 -6 -31.5 -18 -42.5
s-26.333 -16.5 -43 -16.5c-6 0 -12.833 1.16699 -20.5 3.5s-14.834 6.5 -21.501 12.5s-12.334 14 -17.001 24s-7 22.667 -7 38c0 30.667 7.66699 59.5 23 86.5s32.666 51.833 51.999 74.5z" />
    <glyph glyph-name="quotedblright" unicode="&#x201d;" horiz-adv-x="411" 
d="M213 480c4 3.33301 7.83203 7 11.499 11l10.5 12c0.666992 1.33301 3 4.5 7 9.5s8.5 11.167 13.5 18.5s10 15.5 15 24.5s8.83301 17.5 11.5 25.5c2.66699 6.66699 4.66699 14 6 22h-8c-4 0 -8.33301 0.666992 -13 2c-12.667 3.33301 -22.834 9.83301 -30.501 19.5
s-11.5 21.167 -11.5 34.5c0 2.66699 0.333008 6.5 1 11.5s2.66699 10.5 6 16.5c4 7.33301 8.5 13 13.5 17s10.167 7.16699 15.5 9.5s10.333 3.83301 15 4.5s8.33398 1 11.001 1c6 0 12.833 -1.16699 20.5 -3.5s14.834 -6.5 21.501 -12.5s12.167 -14 16.5 -24
s6.5 -22.667 6.5 -38c0 -30.667 -7.5 -59.5 -22.5 -86.5s-32.167 -51.833 -51.5 -74.5h-65zM37.999 480l10.4971 11l10.5 12c1.33301 1.33301 4 4.5 8 9.5s8.5 11.167 13.5 18.5s10 15.5 15 24.5s8.83301 17.5 11.5 25.5c2.66699 8.66699 4.33398 16 5.00098 22h-8
c-4 0 -8 0.666992 -12 2c-12.667 3.33301 -23 9.83301 -31 19.5s-12 21.167 -12 34.5c0.666992 2.66699 1.33398 6.5 2.00098 11.5s2.66699 10.5 6 16.5c4 7.33301 8.5 13 13.5 17s10.167 7.16699 15.5 9.5s10.333 3.83301 15 4.5s8.33398 1 11.001 1
c6 0 12.833 -1.16699 20.5 -3.5s14.667 -6.5 21 -12.5s11.833 -14 16.5 -24s7 -22.667 7 -38c0 -21.333 -5 -45 -15 -71s-30 -56 -60 -90h-64z" />
    <glyph glyph-name="quotedblbase" unicode="&#x201e;" horiz-adv-x="411" 
d="M213 -124c3.33301 3.33301 6.5 6.66895 9.5 10.002s6.16699 6.66602 9.5 9.99902c14 16 24.833 31 32.5 45s13.167 24.667 16.5 32c2 5.33301 3.66699 10.833 5 16.5s2 8.83398 2 9.50098h-8.5c-3.66699 0 -7.83398 0.666992 -12.501 2
c-12.667 3.33301 -22.834 10 -30.501 20s-11.5 21.333 -11.5 34c0 17.333 6 31.666 18 42.999s26.333 16.666 43 15.999c6 0 12.833 -1.16699 20.5 -3.5s14.834 -6.5 21.501 -12.5s12.334 -13.833 17.001 -23.5s7 -22.167 7 -37.5c0 -31.333 -7.5 -60.333 -22.5 -87
s-32.167 -51.667 -51.5 -75zM38 -123.997l11.4941 11.499c5.66699 5.66699 11.834 12.834 18.501 21.501s13.334 18.334 20.001 29.001s12.334 21.667 17.001 33c2.66699 7.33301 4.33398 13 5.00098 17s1.33398 7.66699 2.00098 11h-8c-4 0 -8.33301 0.666992 -13 2
c-2.66699 0.666992 -6.33398 2.16699 -11.001 4.5s-9.16699 5.66602 -13.5 9.99902s-8.33301 9.66602 -12 15.999s-5.5 14.166 -5.5 23.499c0.666992 17.333 7 31.5 19 42.5s26.333 16.5 43 16.5c6 0 12.833 -1.16699 20.5 -3.5s14.834 -6.33301 21.501 -12
s12.334 -13.5 17.001 -23.5s7 -22.667 7 -38c0 -5.33301 -0.5 -12.166 -1.5 -20.499s-3.16699 -18.166 -6.5 -29.499c-4 -14 -10.833 -29.833 -20.5 -47.5s-25.167 -39.167 -46.5 -64.5z" />
    <glyph glyph-name="dagger" unicode="&#x2020;" horiz-adv-x="531" 
d="M303 689v-190h188v-62h-188v-578h-72v578h-191v62h191v190h72z" />
    <glyph glyph-name="bullet" unicode="&#x2022;" horiz-adv-x="333" 
d="M286 353c0 -16.667 -3.00195 -32.3291 -9.00195 -46.9961s-14.167 -27.334 -24.5 -38.001s-22.666 -19 -36.999 -25s-30.166 -9 -47.499 -9c-11.333 0 -21.5 1.33301 -30.5 4s-15.167 4.66699 -18.5 6c-22 9.33301 -39.5 23.833 -52.5 43.5s-19.5 41.167 -19.5 64.5
c0 17.333 3.33301 33.166 10 47.499s15.5 27 26.5 38s23.833 19.5 38.5 25.5s30.334 9 47.001 9s32.167 -3 46.5 -9s26.666 -14.333 36.999 -25s18.5 -23.334 24.5 -38.001s9 -30.334 9 -47.001z" />
    <glyph glyph-name="ellipsis" unicode="&#x2026;" horiz-adv-x="1000" 
d="M213 41c0 -12.667 -4.33301 -23.833 -13 -33.5s-19.667 -14.167 -33 -13.5c-13.333 0 -24.5 4.5 -33.5 13.5s-13.5 20.167 -13.5 33.5s4.5 24.333 13.5 33s20.167 13 33.5 13s24.333 -4.33301 33 -13s13 -19.667 13 -33zM547 41.001
c0 -12.667 -4.49902 -23.833 -13.499 -33.5s-20.167 -14.167 -33.5 -13.5c-13.333 0 -24.333 4.5 -33 13.5s-13 20.167 -13 33.5s4.5 24.333 13.5 33s20.167 13 33.5 13s24.166 -4.33301 32.499 -13s12.833 -19.667 13.5 -33zM880.001 41.002
c0 -12.667 -4.5 -23.667 -13.5 -33s-19.833 -14 -32.5 -14c-13.333 0 -24.5 4.5 -33.5 13.5s-13.5 20.167 -13.5 33.5s4.5 24.333 13.5 33s20.167 13 33.5 13s24.333 -4.33301 33 -13s13 -19.667 13 -33z" />
    <glyph glyph-name="fraction" unicode="&#x2044;" horiz-adv-x="125" 
d="M296 689l-403 -689h-64l403 689h64z" />
    <glyph glyph-name="fraction" unicode="&#x2215;" horiz-adv-x="125" 
d="M296 689l-403 -689h-64l403 689h64z" />
    <glyph glyph-name="trademark" unicode="&#x2122;" horiz-adv-x="688" 
d="M132 374v291h-108v41h262v-41h-106v-291h-48zM573 374l0.999023 217.999c0 11.333 0.166992 22.5 0.5 33.5s0.833008 22.167 1.5 33.5l-8.5 -28.5l-8.5 -28.5l-72 -228h-42l-72 229c-1.33301 4.66699 -2.83301 9.33398 -4.5 14.001s-3.16699 9.33398 -4.5 14.001
c-1.33301 5.33301 -2.66602 10.166 -3.99902 14.499l-4 12.5c1.33301 -10.667 2 -21.5 2 -32.5v-33.5l2 -218h-46v332h67l86 -272l85 272h68v-332h-47z" />
    <glyph glyph-name="Acute" unicode="&#xf6c9;" 
d="M151 902h106l-176 -145h-77z" />
    <glyph glyph-name="Caron" unicode="&#xf6ca;" 
d="M95 760h-86l-137 139h73l107 -93l107 93h73z" />
    <glyph glyph-name="Dieresis" unicode="&#xf6cb;" 
d="M147 889c16.667 0 30.834 -5.66602 42.501 -16.999s17.5 -25.666 17.5 -42.999c0 -16.667 -6 -30.834 -18 -42.501s-26.333 -17.5 -43 -17.5c-16 0.666992 -30 6.66699 -42 18s-17.667 25.666 -17 42.999c0 16.667 5.66699 30.667 17 42s25.666 17 42.999 17z
M-42 889.001c16.667 0 30.834 -5.66602 42.501 -16.999s17.5 -25.666 17.5 -42.999c0 -16.667 -6 -30.834 -18 -42.501s-26.333 -17.5 -43 -17.5c-16 0.666992 -29.833 6.66699 -41.5 18s-17.5 25.666 -17.5 42.999c0 16.667 5.66699 30.667 17 42s25.666 17 42.999 17z" />
    <glyph glyph-name="Grave" unicode="&#xf6ce;" 
d="M31 757l-176 145h107l146 -145h-77z" />
    <glyph glyph-name="onefitted" unicode="&#xf6dc;" horiz-adv-x="359" 
d="M23 587c21.333 1.33301 42.832 4.83301 64.499 10.5s39.834 17.5 54.501 35.5c10 12 16.667 24 20 36l7 25h53v-694h-75v537h-124v50z" />
    <glyph glyph-name=".null" horiz-adv-x="0" 
 />
    <glyph glyph-name="nonmarkingreturn" 
 />
    <glyph glyph-name="Tilde" 
d="M-125 796l4.00195 12.499l4 12.5c1.33301 4 3.66602 10.333 6.99902 19s8.5 17.334 15.5 26.001s16 16.334 27 23.001s24.833 10 41.5 10c17.333 0 33.5 -3.83301 48.5 -11.5l44.5 -23.5c7.33301 -4.66699 16.333 -9.66699 27 -15s20.334 -7.66602 29.001 -6.99902
c11.333 0 20.5 3 27.5 9s12.333 12.667 16 20s6.33398 14.166 8.00098 20.499s2.5 10.166 2.5 11.499l43 -17c-0.666992 -3.33301 -1.5 -8.66602 -2.5 -15.999s-3.33301 -15.333 -7 -24s-8.5 -17.5 -14.5 -26.5s-14.333 -17.167 -25 -24.5
c-3.33301 -2.66699 -9.16602 -5.83398 -17.499 -9.50098s-18.166 -5.5 -29.499 -5.5c-18.667 0 -36.167 4.66699 -52.5 14l-47.5 26l-5.5 2.5c-3.66699 1.66699 -8 3.5 -13 5.5s-10.333 3.83301 -16 5.5s-10.834 2.5 -15.501 2.5c-10.667 0 -19.334 -2.66699 -26.001 -8
s-11.834 -11.5 -15.501 -18.5s-6.33398 -13.5 -8.00098 -19.5s-2.83398 -9.66699 -3.50098 -11z" />
    <glyph glyph-name="Circumflex" 
d="M9 899h86l137 -139h-73l-107 93l-106 -93h-74z" />
    <glyph glyph-name="glyph198" horiz-adv-x="568" 
d="M510 384v-57h-452v57h452z" />
    <glyph glyph-name="glyph199" horiz-adv-x="229" 
d="M85 689h59v-381h-59v381zM144 190v-381h-59v381h59z" />
    <glyph glyph-name="glyph200" horiz-adv-x="500" 
d="M398 101l-148 148l-148 -148l-42 42l148 148l-148 148l42 42l148 -148l148 148l42 -42l-148 -148l148 -148z" />
    </font>
</defs>
</svg>
